STARTFONT 2.1
FONT -xos4-Terminus-Bold-R-Normal--22-220-72-72-C-110-ISO10646-1
SIZE 22 72 72
FONTBOUNDINGBOX 11 22 0 -5
STARTPROPERTIES 20
FAMILY_NAME "Terminus"
FOUNDRY "xos4"
SETWIDTH_NAME "Normal"
ADD_STYLE_NAME ""
COPYRIGHT "Copyright (C) 2019 Dimitar Toshkov Zhekov"
NOTICE "Licensed under the SIL Open Font License, Version 1.1"
WEIGHT_NAME "Bold"
SLANT "R"
PIXEL_SIZE 22
POINT_SIZE 220
RESOLUTION_X 72
RESOLUTION_Y 72
SPACING "C"
AVERAGE_WIDTH 110
CHARSET_REGISTRY "ISO10646"
CHARSET_ENCODING "1"
MIN_SPACE 11
FONT_ASCENT 17
FONT_DESCENT 5
DEFAULT_CHAR 65533
ENDPROPERTIES
CHARS 1354
STARTCHAR char0
ENCODING 0
SWIDTH 500 0
DWIDTH 11 0
BBX 11 22 0 -5
BITMAP
0000
0000
0000
7BC0
60C0
60C0
0000
0000
60C0
60C0
60C0
60C0
0000
0000
60C0
60C0
7BC0
0000
0000
0000
0000
0000
ENDCHAR
STARTCHAR space
ENCODING 32
SWIDTH 500 0
DWIDTH 11 0
BBX 11 22 0 -5
BITMAP
0000
0000
0000
0000
0000
0000
0000
0000
0000
0000
0000
0000
0000
0000
0000
0000
0000
0000
0000
0000
0000
0000
ENDCHAR
STARTCHAR exclam
ENCODING 33
SWIDTH 500 0
DWIDTH 11 0
BBX 11 22 0 -5
BITMAP
0000
0000
0000
0C00
0C00
0C00
0C00
0C00
0C00
0C00
0C00
0C00
0000
0000
0C00
0C00
0C00
0000
0000
0000
0000
0000
ENDCHAR
STARTCHAR quotedbl
ENCODING 34
SWIDTH 500 0
DWIDTH 11 0
BBX 11 22 0 -5
BITMAP
0000
3300
3300
3300
3300
3300
0000
0000
0000
0000
0000
0000
0000
0000
0000
0000
0000
0000
0000
0000
0000
0000
ENDCHAR
STARTCHAR numbersign
ENCODING 35
SWIDTH 500 0
DWIDTH 11 0
BBX 11 22 0 -5
BITMAP
0000
0000
0000
3300
3300
3300
3300
FFC0
3300
3300
3300
3300
FFC0
3300
3300
3300
3300
0000
0000
0000
0000
0000
ENDCHAR
STARTCHAR dollar
ENCODING 36
SWIDTH 500 0
DWIDTH 11 0
BBX 11 22 0 -5
BITMAP
0000
0000
0C00
0C00
3F00
6D80
CCC0
CC00
CC00
6C00
3F00
0D80
0CC0
0CC0
CCC0
6D80
3F00
0C00
0C00
0000
0000
0000
ENDCHAR
STARTCHAR percent
ENCODING 37
SWIDTH 500 0
DWIDTH 11 0
BBX 11 22 0 -5
BITMAP
0000
0000
0000
7180
D980
DB00
7300
0600
0600
0C00
0C00
1800
1800
3380
36C0
66C0
6380
0000
0000
0000
0000
0000
ENDCHAR
STARTCHAR ampersand
ENCODING 38
SWIDTH 500 0
DWIDTH 11 0
BBX 11 22 0 -5
BITMAP
0000
0000
0000
3E00
6300
6300
6300
3600
1C00
3C00
66C0
C3C0
C180
C180
C180
63C0
3EC0
0000
0000
0000
0000
0000
ENDCHAR
STARTCHAR quotesingle
ENCODING 39
SWIDTH 500 0
DWIDTH 11 0
BBX 11 22 0 -5
BITMAP
0000
0C00
0C00
0C00
0C00
0C00
0000
0000
0000
0000
0000
0000
0000
0000
0000
0000
0000
0000
0000
0000
0000
0000
ENDCHAR
STARTCHAR parenleft
ENCODING 40
SWIDTH 500 0
DWIDTH 11 0
BBX 11 22 0 -5
BITMAP
0000
0000
0000
0300
0600
0C00
0C00
1800
1800
1800
1800
1800
1800
0C00
0C00
0600
0300
0000
0000
0000
0000
0000
ENDCHAR
STARTCHAR parenright
ENCODING 41
SWIDTH 500 0
DWIDTH 11 0
BBX 11 22 0 -5
BITMAP
0000
0000
0000
1800
0C00
0600
0600
0300
0300
0300
0300
0300
0300
0600
0600
0C00
1800
0000
0000
0000
0000
0000
ENDCHAR
STARTCHAR asterisk
ENCODING 42
SWIDTH 500 0
DWIDTH 11 0
BBX 11 22 0 -5
BITMAP
0000
0000
0000
0000
0000
0000
6180
3300
1E00
0C00
FFC0
0C00
1E00
3300
6180
0000
0000
0000
0000
0000
0000
0000
ENDCHAR
STARTCHAR plus
ENCODING 43
SWIDTH 500 0
DWIDTH 11 0
BBX 11 22 0 -5
BITMAP
0000
0000
0000
0000
0000
0000
0C00
0C00
0C00
0C00
FFC0
0C00
0C00
0C00
0C00
0000
0000
0000
0000
0000
0000
0000
ENDCHAR
STARTCHAR comma
ENCODING 44
SWIDTH 500 0
DWIDTH 11 0
BBX 11 22 0 -5
BITMAP
0000
0000
0000
0000
0000
0000
0000
0000
0000
0000
0000
0000
0000
0C00
0C00
0C00
0C00
1800
0000
0000
0000
0000
ENDCHAR
STARTCHAR hyphen
ENCODING 45
SWIDTH 500 0
DWIDTH 11 0
BBX 11 22 0 -5
BITMAP
0000
0000
0000
0000
0000
0000
0000
0000
0000
0000
7FC0
0000
0000
0000
0000
0000
0000
0000
0000
0000
0000
0000
ENDCHAR
STARTCHAR period
ENCODING 46
SWIDTH 500 0
DWIDTH 11 0
BBX 11 22 0 -5
BITMAP
0000
0000
0000
0000
0000
0000
0000
0000
0000
0000
0000
0000
0000
0000
0C00
0C00
0C00
0000
0000
0000
0000
0000
ENDCHAR
STARTCHAR slash
ENCODING 47
SWIDTH 500 0
DWIDTH 11 0
BBX 11 22 0 -5
BITMAP
0000
0000
0000
0180
0180
0300
0300
0600
0600
0C00
0C00
1800
1800
3000
3000
6000
6000
0000
0000
0000
0000
0000
ENDCHAR
STARTCHAR zero
ENCODING 48
SWIDTH 500 0
DWIDTH 11 0
BBX 11 22 0 -5
BITMAP
0000
0000
0000
1F00
3180
60C0
60C0
61C0
63C0
66C0
6CC0
78C0
70C0
60C0
60C0
3180
1F00
0000
0000
0000
0000
0000
ENDCHAR
STARTCHAR one
ENCODING 49
SWIDTH 500 0
DWIDTH 11 0
BBX 11 22 0 -5
BITMAP
0000
0000
0000
0600
0E00
1E00
3600
0600
0600
0600
0600
0600
0600
0600
0600
0600
3FC0
0000
0000
0000
0000
0000
ENDCHAR
STARTCHAR two
ENCODING 50
SWIDTH 500 0
DWIDTH 11 0
BBX 11 22 0 -5
BITMAP
0000
0000
0000
1F00
3180
60C0
60C0
60C0
00C0
0180
0300
0600
0C00
1800
3000
6000
7FC0
0000
0000
0000
0000
0000
ENDCHAR
STARTCHAR three
ENCODING 51
SWIDTH 500 0
DWIDTH 11 0
BBX 11 22 0 -5
BITMAP
0000
0000
0000
1F00
3180
60C0
00C0
00C0
0180
0F00
0180
00C0
00C0
00C0
60C0
3180
1F00
0000
0000
0000
0000
0000
ENDCHAR
STARTCHAR four
ENCODING 52
SWIDTH 500 0
DWIDTH 11 0
BBX 11 22 0 -5
BITMAP
0000
0000
0000
00C0
01C0
03C0
06C0
0CC0
18C0
30C0
60C0
60C0
60C0
7FC0
00C0
00C0
00C0
0000
0000
0000
0000
0000
ENDCHAR
STARTCHAR five
ENCODING 53
SWIDTH 500 0
DWIDTH 11 0
BBX 11 22 0 -5
BITMAP
0000
0000
0000
7FC0
6000
6000
6000
6000
7F00
0180
00C0
00C0
00C0
60C0
60C0
3180
1F00
0000
0000
0000
0000
0000
ENDCHAR
STARTCHAR six
ENCODING 54
SWIDTH 500 0
DWIDTH 11 0
BBX 11 22 0 -5
BITMAP
0000
0000
0000
1F80
3000
6000
6000
6000
7F00
6180
60C0
60C0
60C0
60C0
60C0
3180
1F00
0000
0000
0000
0000
0000
ENDCHAR
STARTCHAR seven
ENCODING 55
SWIDTH 500 0
DWIDTH 11 0
BBX 11 22 0 -5
BITMAP
0000
0000
0000
7FC0
60C0
60C0
00C0
0180
0180
0300
0300
0600
0600
0C00
0C00
0C00
0C00
0000
0000
0000
0000
0000
ENDCHAR
STARTCHAR eight
ENCODING 56
SWIDTH 500 0
DWIDTH 11 0
BBX 11 22 0 -5
BITMAP
0000
0000
0000
1F00
3180
60C0
60C0
60C0
3180
1F00
3180
60C0
60C0
60C0
60C0
3180
1F00
0000
0000
0000
0000
0000
ENDCHAR
STARTCHAR nine
ENCODING 57
SWIDTH 500 0
DWIDTH 11 0
BBX 11 22 0 -5
BITMAP
0000
0000
0000
1F00
3180
60C0
60C0
60C0
60C0
60C0
30C0
1FC0
00C0
00C0
00C0
0180
3F00
0000
0000
0000
0000
0000
ENDCHAR
STARTCHAR colon
ENCODING 58
SWIDTH 500 0
DWIDTH 11 0
BBX 11 22 0 -5
BITMAP
0000
0000
0000
0000
0000
0000
0C00
0C00
0C00
0000
0000
0000
0000
0C00
0C00
0C00
0000
0000
0000
0000
0000
0000
ENDCHAR
STARTCHAR semicolon
ENCODING 59
SWIDTH 500 0
DWIDTH 11 0
BBX 11 22 0 -5
BITMAP
0000
0000
0000
0000
0000
0000
0C00
0C00
0C00
0000
0000
0000
0000
0C00
0C00
0C00
0C00
1800
0000
0000
0000
0000
ENDCHAR
STARTCHAR less
ENCODING 60
SWIDTH 500 0
DWIDTH 11 0
BBX 11 22 0 -5
BITMAP
0000
0000
0000
0180
0300
0600
0C00
1800
3000
6000
6000
3000
1800
0C00
0600
0300
0180
0000
0000
0000
0000
0000
ENDCHAR
STARTCHAR equal
ENCODING 61
SWIDTH 500 0
DWIDTH 11 0
BBX 11 22 0 -5
BITMAP
0000
0000
0000
0000
0000
0000
0000
7FC0
0000
0000
0000
0000
7FC0
0000
0000
0000
0000
0000
0000
0000
0000
0000
ENDCHAR
STARTCHAR greater
ENCODING 62
SWIDTH 500 0
DWIDTH 11 0
BBX 11 22 0 -5
BITMAP
0000
0000
0000
6000
3000
1800
0C00
0600
0300
0180
0180
0300
0600
0C00
1800
3000
6000
0000
0000
0000
0000
0000
ENDCHAR
STARTCHAR question
ENCODING 63
SWIDTH 500 0
DWIDTH 11 0
BBX 11 22 0 -5
BITMAP
0000
0000
0000
1F00
3180
60C0
60C0
00C0
0180
0300
0600
0600
0000
0000
0600
0600
0600
0000
0000
0000
0000
0000
ENDCHAR
STARTCHAR at
ENCODING 64
SWIDTH 500 0
DWIDTH 11 0
BBX 11 22 0 -5
BITMAP
0000
0000
0000
3F00
6180
C0C0
C7C0
CCC0
D8C0
D8C0
D8C0
D8C0
CCC0
C7C0
C000
6000
3FC0
0000
0000
0000
0000
0000
ENDCHAR
STARTCHAR A
ENCODING 65
SWIDTH 500 0
DWIDTH 11 0
BBX 11 22 0 -5
BITMAP
0000
0000
0000
1F00
3180
60C0
60C0
60C0
60C0
60C0
7FC0
60C0
60C0
60C0
60C0
60C0
60C0
0000
0000
0000
0000
0000
ENDCHAR
STARTCHAR B
ENCODING 66
SWIDTH 500 0
DWIDTH 11 0
BBX 11 22 0 -5
BITMAP
0000
0000
0000
7F00
6180
60C0
60C0
60C0
6180
7F00
6180
60C0
60C0
60C0
60C0
6180
7F00
0000
0000
0000
0000
0000
ENDCHAR
STARTCHAR C
ENCODING 67
SWIDTH 500 0
DWIDTH 11 0
BBX 11 22 0 -5
BITMAP
0000
0000
0000
1F00
3180
60C0
60C0
6000
6000
6000
6000
6000
6000
60C0
60C0
3180
1F00
0000
0000
0000
0000
0000
ENDCHAR
STARTCHAR D
ENCODING 68
SWIDTH 500 0
DWIDTH 11 0
BBX 11 22 0 -5
BITMAP
0000
0000
0000
7F00
6180
60C0
60C0
60C0
60C0
60C0
60C0
60C0
60C0
60C0
60C0
6180
7F00
0000
0000
0000
0000
0000
ENDCHAR
STARTCHAR E
ENCODING 69
SWIDTH 500 0
DWIDTH 11 0
BBX 11 22 0 -5
BITMAP
0000
0000
0000
7FC0
6000
6000
6000
6000
6000
7F00
6000
6000
6000
6000
6000
6000
7FC0
0000
0000
0000
0000
0000
ENDCHAR
STARTCHAR F
ENCODING 70
SWIDTH 500 0
DWIDTH 11 0
BBX 11 22 0 -5
BITMAP
0000
0000
0000
7FC0
6000
6000
6000
6000
6000
7F00
6000
6000
6000
6000
6000
6000
6000
0000
0000
0000
0000
0000
ENDCHAR
STARTCHAR G
ENCODING 71
SWIDTH 500 0
DWIDTH 11 0
BBX 11 22 0 -5
BITMAP
0000
0000
0000
1F00
3180
60C0
60C0
6000
6000
6000
67C0
60C0
60C0
60C0
60C0
3180
1F00
0000
0000
0000
0000
0000
ENDCHAR
STARTCHAR H
ENCODING 72
SWIDTH 500 0
DWIDTH 11 0
BBX 11 22 0 -5
BITMAP
0000
0000
0000
60C0
60C0
60C0
60C0
60C0
60C0
7FC0
60C0
60C0
60C0
60C0
60C0
60C0
60C0
0000
0000
0000
0000
0000
ENDCHAR
STARTCHAR I
ENCODING 73
SWIDTH 500 0
DWIDTH 11 0
BBX 11 22 0 -5
BITMAP
0000
0000
0000
3F00
0C00
0C00
0C00
0C00
0C00
0C00
0C00
0C00
0C00
0C00
0C00
0C00
3F00
0000
0000
0000
0000
0000
ENDCHAR
STARTCHAR J
ENCODING 74
SWIDTH 500 0
DWIDTH 11 0
BBX 11 22 0 -5
BITMAP
0000
0000
0000
07E0
0180
0180
0180
0180
0180
0180
0180
0180
6180
6180
6180
3300
1E00
0000
0000
0000
0000
0000
ENDCHAR
STARTCHAR K
ENCODING 75
SWIDTH 500 0
DWIDTH 11 0
BBX 11 22 0 -5
BITMAP
0000
0000
0000
60C0
60C0
6180
6300
6600
6C00
7800
7800
6C00
6600
6300
6180
60C0
60C0
0000
0000
0000
0000
0000
ENDCHAR
STARTCHAR L
ENCODING 76
SWIDTH 500 0
DWIDTH 11 0
BBX 11 22 0 -5
BITMAP
0000
0000
0000
6000
6000
6000
6000
6000
6000
6000
6000
6000
6000
6000
6000
6000
7FC0
0000
0000
0000
0000
0000
ENDCHAR
STARTCHAR M
ENCODING 77
SWIDTH 500 0
DWIDTH 11 0
BBX 11 22 0 -5
BITMAP
0000
0000
0000
8040
C0C0
E1C0
F3C0
DEC0
CCC0
C0C0
C0C0
C0C0
C0C0
C0C0
C0C0
C0C0
C0C0
0000
0000
0000
0000
0000
ENDCHAR
STARTCHAR N
ENCODING 78
SWIDTH 500 0
DWIDTH 11 0
BBX 11 22 0 -5
BITMAP
0000
0000
0000
60C0
60C0
60C0
60C0
70C0
78C0
6CC0
66C0
63C0
61C0
60C0
60C0
60C0
60C0
0000
0000
0000
0000
0000
ENDCHAR
STARTCHAR O
ENCODING 79
SWIDTH 500 0
DWIDTH 11 0
BBX 11 22 0 -5
BITMAP
0000
0000
0000
1F00
3180
60C0
60C0
60C0
60C0
60C0
60C0
60C0
60C0
60C0
60C0
3180
1F00
0000
0000
0000
0000
0000
ENDCHAR
STARTCHAR P
ENCODING 80
SWIDTH 500 0
DWIDTH 11 0
BBX 11 22 0 -5
BITMAP
0000
0000
0000
7F00
6180
60C0
60C0
60C0
60C0
6180
7F00
6000
6000
6000
6000
6000
6000
0000
0000
0000
0000
0000
ENDCHAR
STARTCHAR Q
ENCODING 81
SWIDTH 500 0
DWIDTH 11 0
BBX 11 22 0 -5
BITMAP
0000
0000
0000
1F00
3180
60C0
60C0
60C0
60C0
60C0
60C0
60C0
60C0
60C0
60C0
3780
1F00
0180
00C0
0000
0000
0000
ENDCHAR
STARTCHAR R
ENCODING 82
SWIDTH 500 0
DWIDTH 11 0
BBX 11 22 0 -5
BITMAP
0000
0000
0000
7F00
6180
60C0
60C0
60C0
60C0
6180
7F00
7800
6C00
6600
6300
6180
60C0
0000
0000
0000
0000
0000
ENDCHAR
STARTCHAR S
ENCODING 83
SWIDTH 500 0
DWIDTH 11 0
BBX 11 22 0 -5
BITMAP
0000
0000
0000
1F00
3180
60C0
6000
6000
3000
1F00
0180
00C0
00C0
00C0
60C0
3180
1F00
0000
0000
0000
0000
0000
ENDCHAR
STARTCHAR T
ENCODING 84
SWIDTH 500 0
DWIDTH 11 0
BBX 11 22 0 -5
BITMAP
0000
0000
0000
FFC0
0C00
0C00
0C00
0C00
0C00
0C00
0C00
0C00
0C00
0C00
0C00
0C00
0C00
0000
0000
0000
0000
0000
ENDCHAR
STARTCHAR U
ENCODING 85
SWIDTH 500 0
DWIDTH 11 0
BBX 11 22 0 -5
BITMAP
0000
0000
0000
60C0
60C0
60C0
60C0
60C0
60C0
60C0
60C0
60C0
60C0
60C0
60C0
3180
1F00
0000
0000
0000
0000
0000
ENDCHAR
STARTCHAR V
ENCODING 86
SWIDTH 500 0
DWIDTH 11 0
BBX 11 22 0 -5
BITMAP
0000
0000
0000
60C0
60C0
60C0
60C0
60C0
3180
3180
3180
3180
1B00
1B00
0E00
0E00
0E00
0000
0000
0000
0000
0000
ENDCHAR
STARTCHAR W
ENCODING 87
SWIDTH 500 0
DWIDTH 11 0
BBX 11 22 0 -5
BITMAP
0000
0000
0000
C0C0
C0C0
C0C0
C0C0
C0C0
C0C0
C0C0
CCC0
CCC0
DEC0
F3C0
E1C0
C0C0
8040
0000
0000
0000
0000
0000
ENDCHAR
STARTCHAR X
ENCODING 88
SWIDTH 500 0
DWIDTH 11 0
BBX 11 22 0 -5
BITMAP
0000
0000
0000
60C0
60C0
3180
3180
1B00
1B00
0E00
0E00
1B00
1B00
3180
3180
60C0
60C0
0000
0000
0000
0000
0000
ENDCHAR
STARTCHAR Y
ENCODING 89
SWIDTH 500 0
DWIDTH 11 0
BBX 11 22 0 -5
BITMAP
0000
0000
0000
C0C0
C0C0
6180
6180
3300
3300
1E00
1E00
0C00
0C00
0C00
0C00
0C00
0C00
0000
0000
0000
0000
0000
ENDCHAR
STARTCHAR Z
ENCODING 90
SWIDTH 500 0
DWIDTH 11 0
BBX 11 22 0 -5
BITMAP
0000
0000
0000
7FC0
00C0
00C0
00C0
0180
0300
0600
0C00
1800
3000
6000
6000
6000
7FC0
0000
0000
0000
0000
0000
ENDCHAR
STARTCHAR bracketleft
ENCODING 91
SWIDTH 500 0
DWIDTH 11 0
BBX 11 22 0 -5
BITMAP
0000
0000
0000
1F00
1800
1800
1800
1800
1800
1800
1800
1800
1800
1800
1800
1800
1F00
0000
0000
0000
0000
0000
ENDCHAR
STARTCHAR backslash
ENCODING 92
SWIDTH 500 0
DWIDTH 11 0
BBX 11 22 0 -5
BITMAP
0000
0000
0000
6000
6000
3000
3000
1800
1800
0C00
0C00
0600
0600
0300
0300
0180
0180
0000
0000
0000
0000
0000
ENDCHAR
STARTCHAR bracketright
ENCODING 93
SWIDTH 500 0
DWIDTH 11 0
BBX 11 22 0 -5
BITMAP
0000
0000
0000
1F00
0300
0300
0300
0300
0300
0300
0300
0300
0300
0300
0300
0300
1F00
0000
0000
0000
0000
0000
ENDCHAR
STARTCHAR asciicircum
ENCODING 94
SWIDTH 500 0
DWIDTH 11 0
BBX 11 22 0 -5
BITMAP
0000
0400
0E00
1B00
3180
60C0
0000
0000
0000
0000
0000
0000
0000
0000
0000
0000
0000
0000
0000
0000
0000
0000
ENDCHAR
STARTCHAR underscore
ENCODING 95
SWIDTH 500 0
DWIDTH 11 0
BBX 11 22 0 -5
BITMAP
0000
0000
0000
0000
0000
0000
0000
0000
0000
0000
0000
0000
0000
0000
0000
0000
0000
0000
7FC0
0000
0000
0000
ENDCHAR
STARTCHAR grave
ENCODING 96
SWIDTH 500 0
DWIDTH 11 0
BBX 11 22 0 -5
BITMAP
1800
0C00
0600
0000
0000
0000
0000
0000
0000
0000
0000
0000
0000
0000
0000
0000
0000
0000
0000
0000
0000
0000
ENDCHAR
STARTCHAR a
ENCODING 97
SWIDTH 500 0
DWIDTH 11 0
BBX 11 22 0 -5
BITMAP
0000
0000
0000
0000
0000
0000
0000
3F00
0180
00C0
00C0
3FC0
60C0
60C0
60C0
60C0
3FC0
0000
0000
0000
0000
0000
ENDCHAR
STARTCHAR b
ENCODING 98
SWIDTH 500 0
DWIDTH 11 0
BBX 11 22 0 -5
BITMAP
0000
0000
0000
6000
6000
6000
6000
7F00
6180
60C0
60C0
60C0
60C0
60C0
60C0
6180
7F00
0000
0000
0000
0000
0000
ENDCHAR
STARTCHAR c
ENCODING 99
SWIDTH 500 0
DWIDTH 11 0
BBX 11 22 0 -5
BITMAP
0000
0000
0000
0000
0000
0000
0000
1F00
3180
60C0
6000
6000
6000
6000
60C0
3180
1F00
0000
0000
0000
0000
0000
ENDCHAR
STARTCHAR d
ENCODING 100
SWIDTH 500 0
DWIDTH 11 0
BBX 11 22 0 -5
BITMAP
0000
0000
0000
00C0
00C0
00C0
00C0
1FC0
30C0
60C0
60C0
60C0
60C0
60C0
60C0
30C0
1FC0
0000
0000
0000
0000
0000
ENDCHAR
STARTCHAR e
ENCODING 101
SWIDTH 500 0
DWIDTH 11 0
BBX 11 22 0 -5
BITMAP
0000
0000
0000
0000
0000
0000
0000
1F00
3180
60C0
60C0
7FC0
6000
6000
6000
30C0
1F80
0000
0000
0000
0000
0000
ENDCHAR
STARTCHAR f
ENCODING 102
SWIDTH 500 0
DWIDTH 11 0
BBX 11 22 0 -5
BITMAP
0000
0000
0000
07C0
0C00
0C00
0C00
7F80
0C00
0C00
0C00
0C00
0C00
0C00
0C00
0C00
0C00
0000
0000
0000
0000
0000
ENDCHAR
STARTCHAR g
ENCODING 103
SWIDTH 500 0
DWIDTH 11 0
BBX 11 22 0 -5
BITMAP
0000
0000
0000
0000
0000
0000
0000
1FC0
30C0
60C0
60C0
60C0
60C0
60C0
60C0
30C0
1FC0
00C0
00C0
0180
3F00
0000
ENDCHAR
STARTCHAR h
ENCODING 104
SWIDTH 500 0
DWIDTH 11 0
BBX 11 22 0 -5
BITMAP
0000
0000
0000
6000
6000
6000
6000
7F00
6180
60C0
60C0
60C0
60C0
60C0
60C0
60C0
60C0
0000
0000
0000
0000
0000
ENDCHAR
STARTCHAR i
ENCODING 105
SWIDTH 500 0
DWIDTH 11 0
BBX 11 22 0 -5
BITMAP
0000
0000
0000
0600
0600
0600
0000
1E00
0600
0600
0600
0600
0600
0600
0600
0600
1F80
0000
0000
0000
0000
0000
ENDCHAR
STARTCHAR j
ENCODING 106
SWIDTH 500 0
DWIDTH 11 0
BBX 11 22 0 -5
BITMAP
0000
0000
0000
0180
0180
0180
0000
0780
0180
0180
0180
0180
0180
0180
0180
0180
0180
3180
3180
3180
1F00
0000
ENDCHAR
STARTCHAR k
ENCODING 107
SWIDTH 500 0
DWIDTH 11 0
BBX 11 22 0 -5
BITMAP
0000
0000
0000
3000
3000
3000
3000
30C0
3180
3300
3600
3C00
3C00
3600
3300
3180
30C0
0000
0000
0000
0000
0000
ENDCHAR
STARTCHAR l
ENCODING 108
SWIDTH 500 0
DWIDTH 11 0
BBX 11 22 0 -5
BITMAP
0000
0000
0000
1E00
0600
0600
0600
0600
0600
0600
0600
0600
0600
0600
0600
0600
1F80
0000
0000
0000
0000
0000
ENDCHAR
STARTCHAR m
ENCODING 109
SWIDTH 500 0
DWIDTH 11 0
BBX 11 22 0 -5
BITMAP
0000
0000
0000
0000
0000
0000
0000
FF00
CD80
CCC0
CCC0
CCC0
CCC0
CCC0
CCC0
CCC0
CCC0
0000
0000
0000
0000
0000
ENDCHAR
STARTCHAR n
ENCODING 110
SWIDTH 500 0
DWIDTH 11 0
BBX 11 22 0 -5
BITMAP
0000
0000
0000
0000
0000
0000
0000
7F00
6180
60C0
60C0
60C0
60C0
60C0
60C0
60C0
60C0
0000
0000
0000
0000
0000
ENDCHAR
STARTCHAR o
ENCODING 111
SWIDTH 500 0
DWIDTH 11 0
BBX 11 22 0 -5
BITMAP
0000
0000
0000
0000
0000
0000
0000
1F00
3180
60C0
60C0
60C0
60C0
60C0
60C0
3180
1F00
0000
0000
0000
0000
0000
ENDCHAR
STARTCHAR p
ENCODING 112
SWIDTH 500 0
DWIDTH 11 0
BBX 11 22 0 -5
BITMAP
0000
0000
0000
0000
0000
0000
0000
7F00
6180
60C0
60C0
60C0
60C0
60C0
60C0
6180
7F00
6000
6000
6000
6000
0000
ENDCHAR
STARTCHAR q
ENCODING 113
SWIDTH 500 0
DWIDTH 11 0
BBX 11 22 0 -5
BITMAP
0000
0000
0000
0000
0000
0000
0000
1FC0
30C0
60C0
60C0
60C0
60C0
60C0
60C0
30C0
1FC0
00C0
00C0
00C0
00C0
0000
ENDCHAR
STARTCHAR r
ENCODING 114
SWIDTH 500 0
DWIDTH 11 0
BBX 11 22 0 -5
BITMAP
0000
0000
0000
0000
0000
0000
0000
67C0
6C00
7800
7000
6000
6000
6000
6000
6000
6000
0000
0000
0000
0000
0000
ENDCHAR
STARTCHAR s
ENCODING 115
SWIDTH 500 0
DWIDTH 11 0
BBX 11 22 0 -5
BITMAP
0000
0000
0000
0000
0000
0000
0000
3F80
60C0
6000
6000
3F80
00C0
00C0
00C0
60C0
3F80
0000
0000
0000
0000
0000
ENDCHAR
STARTCHAR t
ENCODING 116
SWIDTH 500 0
DWIDTH 11 0
BBX 11 22 0 -5
BITMAP
0000
0000
0000
0C00
0C00
0C00
0C00
7F80
0C00
0C00
0C00
0C00
0C00
0C00
0C00
0C00
07C0
0000
0000
0000
0000
0000
ENDCHAR
STARTCHAR u
ENCODING 117
SWIDTH 500 0
DWIDTH 11 0
BBX 11 22 0 -5
BITMAP
0000
0000
0000
0000
0000
0000
0000
60C0
60C0
60C0
60C0
60C0
60C0
60C0
60C0
30C0
1FC0
0000
0000
0000
0000
0000
ENDCHAR
STARTCHAR v
ENCODING 118
SWIDTH 500 0
DWIDTH 11 0
BBX 11 22 0 -5
BITMAP
0000
0000
0000
0000
0000
0000
0000
60C0
60C0
60C0
3180
3180
3180
1B00
1B00
0E00
0E00
0000
0000
0000
0000
0000
ENDCHAR
STARTCHAR w
ENCODING 119
SWIDTH 500 0
DWIDTH 11 0
BBX 11 22 0 -5
BITMAP
0000
0000
0000
0000
0000
0000
0000
C0C0
C0C0
C0C0
CCC0
CCC0
CCC0
CCC0
CCC0
CCC0
7F80
0000
0000
0000
0000
0000
ENDCHAR
STARTCHAR x
ENCODING 120
SWIDTH 500 0
DWIDTH 11 0
BBX 11 22 0 -5
BITMAP
0000
0000
0000
0000
0000
0000
0000
60C0
60C0
3180
1B00
0E00
0E00
1B00
3180
60C0
60C0
0000
0000
0000
0000
0000
ENDCHAR
STARTCHAR y
ENCODING 121
SWIDTH 500 0
DWIDTH 11 0
BBX 11 22 0 -5
BITMAP
0000
0000
0000
0000
0000
0000
0000
60C0
60C0
60C0
60C0
60C0
60C0
60C0
60C0
30C0
1FC0
00C0
00C0
0180
3F00
0000
ENDCHAR
STARTCHAR z
ENCODING 122
SWIDTH 500 0
DWIDTH 11 0
BBX 11 22 0 -5
BITMAP
0000
0000
0000
0000
0000
0000
0000
7FC0
00C0
0180
0300
0600
0C00
1800
3000
6000
7FC0
0000
0000
0000
0000
0000
ENDCHAR
STARTCHAR braceleft
ENCODING 123
SWIDTH 500 0
DWIDTH 11 0
BBX 11 22 0 -5
BITMAP
0000
0000
0000
0380
0600
0C00
0C00
0C00
0C00
3800
0C00
0C00
0C00
0C00
0C00
0600
0380
0000
0000
0000
0000
0000
ENDCHAR
STARTCHAR bar
ENCODING 124
SWIDTH 500 0
DWIDTH 11 0
BBX 11 22 0 -5
BITMAP
0000
0000
0000
0C00
0C00
0C00
0C00
0C00
0C00
0C00
0C00
0C00
0C00
0C00
0C00
0C00
0C00
0000
0000
0000
0000
0000
ENDCHAR
STARTCHAR braceright
ENCODING 125
SWIDTH 500 0
DWIDTH 11 0
BBX 11 22 0 -5
BITMAP
0000
0000
0000
3800
0C00
0600
0600
0600
0600
0380
0600
0600
0600
0600
0600
0C00
3800
0000
0000
0000
0000
0000
ENDCHAR
STARTCHAR asciitilde
ENCODING 126
SWIDTH 500 0
DWIDTH 11 0
BBX 11 22 0 -5
BITMAP
0000
38C0
6CC0
66C0
6380
0000
0000
0000
0000
0000
0000
0000
0000
0000
0000
0000
0000
0000
0000
0000
0000
0000
ENDCHAR
STARTCHAR nbspace
ENCODING 160
SWIDTH 500 0
DWIDTH 11 0
BBX 11 22 0 -5
BITMAP
0000
0000
0000
0000
0000
0000
0000
0000
0000
0000
0000
0000
0000
0000
0000
0000
0000
0000
0000
0000
0000
0000
ENDCHAR
STARTCHAR exclamdown
ENCODING 161
SWIDTH 500 0
DWIDTH 11 0
BBX 11 22 0 -5
BITMAP
0000
0000
0000
0C00
0C00
0C00
0000
0000
0C00
0C00
0C00
0C00
0C00
0C00
0C00
0C00
0C00
0000
0000
0000
0000
0000
ENDCHAR
STARTCHAR cent
ENCODING 162
SWIDTH 500 0
DWIDTH 11 0
BBX 11 22 0 -5
BITMAP
0000
0000
0000
0000
0000
0C00
0C00
3F00
6D80
CCC0
CC00
CC00
CC00
CC00
CCC0
6D80
3F00
0C00
0C00
0000
0000
0000
ENDCHAR
STARTCHAR sterling
ENCODING 163
SWIDTH 500 0
DWIDTH 11 0
BBX 11 22 0 -5
BITMAP
0000
0000
0000
0000
1F00
3180
3180
3000
3000
3000
7E00
3000
3000
3000
3000
30C0
30C0
7FC0
0000
0000
0000
0000
ENDCHAR
STARTCHAR currency
ENCODING 164
SWIDTH 500 0
DWIDTH 11 0
BBX 11 22 0 -5
BITMAP
0000
0000
0000
0000
0000
C0C0
6180
3F00
6180
6180
6180
6180
6180
3F00
6180
C0C0
0000
0000
0000
0000
0000
0000
ENDCHAR
STARTCHAR yen
ENCODING 165
SWIDTH 500 0
DWIDTH 11 0
BBX 11 22 0 -5
BITMAP
0000
0000
0000
C0C0
C0C0
6180
6180
3300
3300
1E00
0C00
7F80
0C00
0C00
7F80
0C00
0C00
0000
0000
0000
0000
0000
ENDCHAR
STARTCHAR brokenbar
ENCODING 166
SWIDTH 500 0
DWIDTH 11 0
BBX 11 22 0 -5
BITMAP
0000
0000
0000
0C00
0C00
0C00
0C00
0C00
0C00
0000
0000
0C00
0C00
0C00
0C00
0C00
0C00
0000
0000
0000
0000
0000
ENDCHAR
STARTCHAR section
ENCODING 167
SWIDTH 500 0
DWIDTH 11 0
BBX 11 22 0 -5
BITMAP
0000
0000
1F00
3180
3000
3000
1E00
3300
3180
3180
3180
3180
1980
0F00
0180
0180
3180
1F00
0000
0000
0000
0000
ENDCHAR
STARTCHAR dieresis
ENCODING 168
SWIDTH 500 0
DWIDTH 11 0
BBX 11 22 0 -5
BITMAP
3180
3180
3180
0000
0000
0000
0000
0000
0000
0000
0000
0000
0000
0000
0000
0000
0000
0000
0000
0000
0000
0000
ENDCHAR
STARTCHAR copyright
ENCODING 169
SWIDTH 500 0
DWIDTH 11 0
BBX 11 22 0 -5
BITMAP
0000
0000
0000
0000
0000
3F00
4080
9E40
B340
B040
B040
B040
B340
9E40
4080
3F00
0000
0000
0000
0000
0000
0000
ENDCHAR
STARTCHAR ordfeminine
ENCODING 170
SWIDTH 500 0
DWIDTH 11 0
BBX 11 22 0 -5
BITMAP
0000
3F00
0180
0180
3F80
6180
6180
6180
3F80
0000
7F80
0000
0000
0000
0000
0000
0000
0000
0000
0000
0000
0000
ENDCHAR
STARTCHAR guillemotleft
ENCODING 171
SWIDTH 500 0
DWIDTH 11 0
BBX 11 22 0 -5
BITMAP
0000
0000
0000
0000
0000
0000
0000
0CC0
1980
3300
6600
CC00
CC00
6600
3300
1980
0CC0
0000
0000
0000
0000
0000
ENDCHAR
STARTCHAR logicalnot
ENCODING 172
SWIDTH 500 0
DWIDTH 11 0
BBX 11 22 0 -5
BITMAP
0000
0000
0000
0000
0000
0000
0000
0000
7FC0
00C0
00C0
00C0
00C0
0000
0000
0000
0000
0000
0000
0000
0000
0000
ENDCHAR
STARTCHAR softhyphen
ENCODING 173
SWIDTH 500 0
DWIDTH 11 0
BBX 11 22 0 -5
BITMAP
0000
0000
0000
0000
0000
0000
0000
0000
0000
0000
7FC0
0000
0000
0000
0000
0000
0000
0000
0000
0000
0000
0000
ENDCHAR
STARTCHAR registered
ENCODING 174
SWIDTH 500 0
DWIDTH 11 0
BBX 11 22 0 -5
BITMAP
0000
0000
0000
0000
0000
3F00
4080
BE40
B340
B340
BE40
BC40
B640
B340
4080
3F00
0000
0000
0000
0000
0000
0000
ENDCHAR
STARTCHAR macron
ENCODING 175
SWIDTH 500 0
DWIDTH 11 0
BBX 11 22 0 -5
BITMAP
0000
3F80
0000
0000
0000
0000
0000
0000
0000
0000
0000
0000
0000
0000
0000
0000
0000
0000
0000
0000
0000
0000
ENDCHAR
STARTCHAR degree
ENCODING 176
SWIDTH 500 0
DWIDTH 11 0
BBX 11 22 0 -5
BITMAP
0000
1E00
3300
3300
3300
1E00
0000
0000
0000
0000
0000
0000
0000
0000
0000
0000
0000
0000
0000
0000
0000
0000
ENDCHAR
STARTCHAR plusminus
ENCODING 177
SWIDTH 500 0
DWIDTH 11 0
BBX 11 22 0 -5
BITMAP
0000
0000
0000
0000
0000
0C00
0C00
0C00
0C00
FFC0
0C00
0C00
0C00
0C00
0000
0000
FFC0
0000
0000
0000
0000
0000
ENDCHAR
STARTCHAR twosuperior
ENCODING 178
SWIDTH 500 0
DWIDTH 11 0
BBX 11 22 0 -5
BITMAP
0000
1E00
3300
3300
0300
0600
0C00
1800
3F00
0000
0000
0000
0000
0000
0000
0000
0000
0000
0000
0000
0000
0000
ENDCHAR
STARTCHAR threesuperior
ENCODING 179
SWIDTH 500 0
DWIDTH 11 0
BBX 11 22 0 -5
BITMAP
0000
1E00
3300
0300
0E00
0300
0300
3300
1E00
0000
0000
0000
0000
0000
0000
0000
0000
0000
0000
0000
0000
0000
ENDCHAR
STARTCHAR acute
ENCODING 180
SWIDTH 500 0
DWIDTH 11 0
BBX 11 22 0 -5
BITMAP
0300
0600
0C00
0000
0000
0000
0000
0000
0000
0000
0000
0000
0000
0000
0000
0000
0000
0000
0000
0000
0000
0000
ENDCHAR
STARTCHAR mu
ENCODING 181
SWIDTH 500 0
DWIDTH 11 0
BBX 11 22 0 -5
BITMAP
0000
0000
0000
0000
0000
0000
0000
60C0
60C0
60C0
60C0
60C0
60C0
60C0
61C0
63C0
7EC0
6000
6000
6000
6000
0000
ENDCHAR
STARTCHAR paragraph
ENCODING 182
SWIDTH 500 0
DWIDTH 11 0
BBX 11 22 0 -5
BITMAP
0000
0000
0000
7FC0
CCC0
CCC0
CCC0
CCC0
CCC0
CCC0
7CC0
0CC0
0CC0
0CC0
0CC0
0CC0
0CC0
0000
0000
0000
0000
0000
ENDCHAR
STARTCHAR periodcentered
ENCODING 183
SWIDTH 500 0
DWIDTH 11 0
BBX 11 22 0 -5
BITMAP
0000
0000
0000
0000
0000
0000
0000
0000
0000
0C00
0C00
0C00
0000
0000
0000
0000
0000
0000
0000
0000
0000
0000
ENDCHAR
STARTCHAR cedilla
ENCODING 184
SWIDTH 500 0
DWIDTH 11 0
BBX 11 22 0 -5
BITMAP
0000
0000
0000
0000
0000
0000
0000
0000
0000
0000
0000
0000
0000
0000
0000
0000
0000
0600
0600
0600
0C00
0000
ENDCHAR
STARTCHAR onesuperior
ENCODING 185
SWIDTH 500 0
DWIDTH 11 0
BBX 11 22 0 -5
BITMAP
0000
0C00
1C00
0C00
0C00
0C00
0C00
0C00
1E00
0000
0000
0000
0000
0000
0000
0000
0000
0000
0000
0000
0000
0000
ENDCHAR
STARTCHAR ordmasculine
ENCODING 186
SWIDTH 500 0
DWIDTH 11 0
BBX 11 22 0 -5
BITMAP
0000
3F00
6180
6180
6180
6180
6180
6180
3F00
0000
7F80
0000
0000
0000
0000
0000
0000
0000
0000
0000
0000
0000
ENDCHAR
STARTCHAR guillemotright
ENCODING 187
SWIDTH 500 0
DWIDTH 11 0
BBX 11 22 0 -5
BITMAP
0000
0000
0000
0000
0000
0000
0000
CC00
6600
3300
1980
0CC0
0CC0
1980
3300
6600
CC00
0000
0000
0000
0000
0000
ENDCHAR
STARTCHAR onequarter
ENCODING 188
SWIDTH 500 0
DWIDTH 11 0
BBX 11 22 0 -5
BITMAP
0000
0000
3000
7000
F000
3040
30C0
3180
3300
0600
0CC0
19C0
33C0
66C0
4CC0
0FC0
00C0
00C0
0000
0000
0000
0000
ENDCHAR
STARTCHAR onehalf
ENCODING 189
SWIDTH 500 0
DWIDTH 11 0
BBX 11 22 0 -5
BITMAP
0000
0000
3000
7000
F040
30C0
3180
3300
3600
0C00
1800
3780
6CC0
4CC0
0180
0300
0600
0FC0
0000
0000
0000
0000
ENDCHAR
STARTCHAR threequarters
ENCODING 190
SWIDTH 500 0
DWIDTH 11 0
BBX 11 22 0 -5
BITMAP
0000
0000
7800
CC00
0C00
3840
0CC0
CD80
7B00
0600
0CC0
19C0
33C0
66C0
4CC0
0FC0
00C0
00C0
0000
0000
0000
0000
ENDCHAR
STARTCHAR questiondown
ENCODING 191
SWIDTH 500 0
DWIDTH 11 0
BBX 11 22 0 -5
BITMAP
0000
0000
0000
0C00
0C00
0C00
0000
0000
0C00
0C00
1800
3000
6000
60C0
60C0
3180
1F00
0000
0000
0000
0000
0000
ENDCHAR
STARTCHAR Agrave
ENCODING 192
SWIDTH 500 0
DWIDTH 11 0
BBX 11 22 0 -5
BITMAP
1800
0C00
0600
0000
1F00
3180
60C0
60C0
60C0
60C0
60C0
7FC0
60C0
60C0
60C0
60C0
60C0
0000
0000
0000
0000
0000
ENDCHAR
STARTCHAR Aacute
ENCODING 193
SWIDTH 500 0
DWIDTH 11 0
BBX 11 22 0 -5
BITMAP
0300
0600
0C00
0000
1F00
3180
60C0
60C0
60C0
60C0
60C0
7FC0
60C0
60C0
60C0
60C0
60C0
0000
0000
0000
0000
0000
ENDCHAR
STARTCHAR Acircumflex
ENCODING 194
SWIDTH 500 0
DWIDTH 11 0
BBX 11 22 0 -5
BITMAP
0E00
1B00
3180
0000
1F00
3180
60C0
60C0
60C0
60C0
60C0
7FC0
60C0
60C0
60C0
60C0
60C0
0000
0000
0000
0000
0000
ENDCHAR
STARTCHAR Atilde
ENCODING 195
SWIDTH 500 0
DWIDTH 11 0
BBX 11 22 0 -5
BITMAP
1CC0
36C0
3380
0000
1F00
3180
60C0
60C0
60C0
60C0
60C0
7FC0
60C0
60C0
60C0
60C0
60C0
0000
0000
0000
0000
0000
ENDCHAR
STARTCHAR Adieresis
ENCODING 196
SWIDTH 500 0
DWIDTH 11 0
BBX 11 22 0 -5
BITMAP
3180
3180
3180
0000
1F00
3180
60C0
60C0
60C0
60C0
60C0
7FC0
60C0
60C0
60C0
60C0
60C0
0000
0000
0000
0000
0000
ENDCHAR
STARTCHAR Aring
ENCODING 197
SWIDTH 500 0
DWIDTH 11 0
BBX 11 22 0 -5
BITMAP
0E00
1B00
1B00
0E00
1F00
3180
60C0
60C0
60C0
60C0
60C0
7FC0
60C0
60C0
60C0
60C0
60C0
0000
0000
0000
0000
0000
ENDCHAR
STARTCHAR AE
ENCODING 198
SWIDTH 500 0
DWIDTH 11 0
BBX 11 22 0 -5
BITMAP
0000
0000
0000
3FE0
6600
C600
C600
C600
C600
FFE0
C600
C600
C600
C600
C600
C600
C7E0
0000
0000
0000
0000
0000
ENDCHAR
STARTCHAR Ccedilla
ENCODING 199
SWIDTH 500 0
DWIDTH 11 0
BBX 11 22 0 -5
BITMAP
0000
0000
0000
1F00
3180
60C0
60C0
6000
6000
6000
6000
6000
6000
60C0
60C0
3180
1F00
0600
0600
0600
0C00
0000
ENDCHAR
STARTCHAR Egrave
ENCODING 200
SWIDTH 500 0
DWIDTH 11 0
BBX 11 22 0 -5
BITMAP
1800
0C00
0600
0000
7FC0
6000
6000
6000
6000
6000
7F00
6000
6000
6000
6000
6000
7FC0
0000
0000
0000
0000
0000
ENDCHAR
STARTCHAR Eacute
ENCODING 201
SWIDTH 500 0
DWIDTH 11 0
BBX 11 22 0 -5
BITMAP
0300
0600
0C00
0000
7FC0
6000
6000
6000
6000
6000
7F00
6000
6000
6000
6000
6000
7FC0
0000
0000
0000
0000
0000
ENDCHAR
STARTCHAR Ecircumflex
ENCODING 202
SWIDTH 500 0
DWIDTH 11 0
BBX 11 22 0 -5
BITMAP
0E00
1B00
3180
0000
7FC0
6000
6000
6000
6000
6000
7F00
6000
6000
6000
6000
6000
7FC0
0000
0000
0000
0000
0000
ENDCHAR
STARTCHAR Edieresis
ENCODING 203
SWIDTH 500 0
DWIDTH 11 0
BBX 11 22 0 -5
BITMAP
3180
3180
3180
0000
7FC0
6000
6000
6000
6000
6000
7F00
6000
6000
6000
6000
6000
7FC0
0000
0000
0000
0000
0000
ENDCHAR
STARTCHAR Igrave
ENCODING 204
SWIDTH 500 0
DWIDTH 11 0
BBX 11 22 0 -5
BITMAP
3000
1800
0C00
0000
3F00
0C00
0C00
0C00
0C00
0C00
0C00
0C00
0C00
0C00
0C00
0C00
3F00
0000
0000
0000
0000
0000
ENDCHAR
STARTCHAR Iacute
ENCODING 205
SWIDTH 500 0
DWIDTH 11 0
BBX 11 22 0 -5
BITMAP
0300
0600
0C00
0000
3F00
0C00
0C00
0C00
0C00
0C00
0C00
0C00
0C00
0C00
0C00
0C00
3F00
0000
0000
0000
0000
0000
ENDCHAR
STARTCHAR Icircumflex
ENCODING 206
SWIDTH 500 0
DWIDTH 11 0
BBX 11 22 0 -5
BITMAP
0E00
1B00
3180
0000
3F00
0C00
0C00
0C00
0C00
0C00
0C00
0C00
0C00
0C00
0C00
0C00
3F00
0000
0000
0000
0000
0000
ENDCHAR
STARTCHAR Idieresis
ENCODING 207
SWIDTH 500 0
DWIDTH 11 0
BBX 11 22 0 -5
BITMAP
3180
3180
3180
0000
3F00
0C00
0C00
0C00
0C00
0C00
0C00
0C00
0C00
0C00
0C00
0C00
3F00
0000
0000
0000
0000
0000
ENDCHAR
STARTCHAR Eth
ENCODING 208
SWIDTH 500 0
DWIDTH 11 0
BBX 11 22 0 -5
BITMAP
0000
0000
0000
7F00
6180
60C0
60C0
60C0
60C0
FCC0
60C0
60C0
60C0
60C0
60C0
6180
7F00
0000
0000
0000
0000
0000
ENDCHAR
STARTCHAR Ntilde
ENCODING 209
SWIDTH 500 0
DWIDTH 11 0
BBX 11 22 0 -5
BITMAP
1CC0
36C0
3380
0000
60C0
60C0
60C0
70C0
78C0
6CC0
66C0
63C0
61C0
60C0
60C0
60C0
60C0
0000
0000
0000
0000
0000
ENDCHAR
STARTCHAR Ograve
ENCODING 210
SWIDTH 500 0
DWIDTH 11 0
BBX 11 22 0 -5
BITMAP
1800
0C00
0600
0000
1F00
3180
60C0
60C0
60C0
60C0
60C0
60C0
60C0
60C0
60C0
3180
1F00
0000
0000
0000
0000
0000
ENDCHAR
STARTCHAR Oacute
ENCODING 211
SWIDTH 500 0
DWIDTH 11 0
BBX 11 22 0 -5
BITMAP
0300
0600
0C00
0000
1F00
3180
60C0
60C0
60C0
60C0
60C0
60C0
60C0
60C0
60C0
3180
1F00
0000
0000
0000
0000
0000
ENDCHAR
STARTCHAR Ocircumflex
ENCODING 212
SWIDTH 500 0
DWIDTH 11 0
BBX 11 22 0 -5
BITMAP
0E00
1B00
3180
0000
1F00
3180
60C0
60C0
60C0
60C0
60C0
60C0
60C0
60C0
60C0
3180
1F00
0000
0000
0000
0000
0000
ENDCHAR
STARTCHAR Otilde
ENCODING 213
SWIDTH 500 0
DWIDTH 11 0
BBX 11 22 0 -5
BITMAP
1CC0
36C0
3380
0000
1F00
3180
60C0
60C0
60C0
60C0
60C0
60C0
60C0
60C0
60C0
3180
1F00
0000
0000
0000
0000
0000
ENDCHAR
STARTCHAR Odieresis
ENCODING 214
SWIDTH 500 0
DWIDTH 11 0
BBX 11 22 0 -5
BITMAP
3180
3180
3180
0000
1F00
3180
60C0
60C0
60C0
60C0
60C0
60C0
60C0
60C0
60C0
3180
1F00
0000
0000
0000
0000
0000
ENDCHAR
STARTCHAR multiply
ENCODING 215
SWIDTH 500 0
DWIDTH 11 0
BBX 11 22 0 -5
BITMAP
0000
0000
0000
0000
0000
0000
0000
60C0
3180
1B00
0E00
0E00
1B00
3180
60C0
0000
0000
0000
0000
0000
0000
0000
ENDCHAR
STARTCHAR Oslash
ENCODING 216
SWIDTH 500 0
DWIDTH 11 0
BBX 11 22 0 -5
BITMAP
0000
0000
0000
1F00
3180
60E0
60C0
61C0
63C0
66C0
6CC0
78C0
70C0
60C0
E0C0
3180
1F00
0000
0000
0000
0000
0000
ENDCHAR
STARTCHAR Ugrave
ENCODING 217
SWIDTH 500 0
DWIDTH 11 0
BBX 11 22 0 -5
BITMAP
1800
0C00
0600
60C0
60C0
60C0
60C0
60C0
60C0
60C0
60C0
60C0
60C0
60C0
60C0
3180
1F00
0000
0000
0000
0000
0000
ENDCHAR
STARTCHAR Uacute
ENCODING 218
SWIDTH 500 0
DWIDTH 11 0
BBX 11 22 0 -5
BITMAP
0300
0600
0C00
60C0
60C0
60C0
60C0
60C0
60C0
60C0
60C0
60C0
60C0
60C0
60C0
3180
1F00
0000
0000
0000
0000
0000
ENDCHAR
STARTCHAR Ucircumflex
ENCODING 219
SWIDTH 500 0
DWIDTH 11 0
BBX 11 22 0 -5
BITMAP
0E00
1B00
3180
0000
60C0
60C0
60C0
60C0
60C0
60C0
60C0
60C0
60C0
60C0
60C0
3180
1F00
0000
0000
0000
0000
0000
ENDCHAR
STARTCHAR Udieresis
ENCODING 220
SWIDTH 500 0
DWIDTH 11 0
BBX 11 22 0 -5
BITMAP
3180
3180
3180
0000
60C0
60C0
60C0
60C0
60C0
60C0
60C0
60C0
60C0
60C0
60C0
3180
1F00
0000
0000
0000
0000
0000
ENDCHAR
STARTCHAR Yacute
ENCODING 221
SWIDTH 500 0
DWIDTH 11 0
BBX 11 22 0 -5
BITMAP
0300
0600
0C00
C0C0
C0C0
6180
6180
3300
3300
1E00
1E00
0C00
0C00
0C00
0C00
0C00
0C00
0000
0000
0000
0000
0000
ENDCHAR
STARTCHAR Thorn
ENCODING 222
SWIDTH 500 0
DWIDTH 11 0
BBX 11 22 0 -5
BITMAP
0000
0000
0000
6000
6000
6000
6000
7F00
6180
60C0
60C0
60C0
60C0
60C0
60C0
6180
7F00
6000
6000
6000
6000
0000
ENDCHAR
STARTCHAR germandbls
ENCODING 223
SWIDTH 500 0
DWIDTH 11 0
BBX 11 22 0 -5
BITMAP
0000
0000
0000
3E00
6300
6180
6180
6180
6300
7F00
6180
60C0
60C0
60C0
60C0
7180
6F00
0000
0000
0000
0000
0000
ENDCHAR
STARTCHAR agrave
ENCODING 224
SWIDTH 500 0
DWIDTH 11 0
BBX 11 22 0 -5
BITMAP
0000
0000
0000
1800
0C00
0600
0000
3F00
0180
00C0
00C0
3FC0
60C0
60C0
60C0
60C0
3FC0
0000
0000
0000
0000
0000
ENDCHAR
STARTCHAR aacute
ENCODING 225
SWIDTH 500 0
DWIDTH 11 0
BBX 11 22 0 -5
BITMAP
0000
0000
0000
0300
0600
0C00
0000
3F00
0180
00C0
00C0
3FC0
60C0
60C0
60C0
60C0
3FC0
0000
0000
0000
0000
0000
ENDCHAR
STARTCHAR acircumflex
ENCODING 226
SWIDTH 500 0
DWIDTH 11 0
BBX 11 22 0 -5
BITMAP
0000
0000
0000
0E00
1B00
3180
0000
3F00
0180
00C0
00C0
3FC0
60C0
60C0
60C0
60C0
3FC0
0000
0000
0000
0000
0000
ENDCHAR
STARTCHAR atilde
ENCODING 227
SWIDTH 500 0
DWIDTH 11 0
BBX 11 22 0 -5
BITMAP
0000
0000
0000
1CC0
36C0
3380
0000
3F00
0180
00C0
00C0
3FC0
60C0
60C0
60C0
60C0
3FC0
0000
0000
0000
0000
0000
ENDCHAR
STARTCHAR adieresis
ENCODING 228
SWIDTH 500 0
DWIDTH 11 0
BBX 11 22 0 -5
BITMAP
0000
0000
0000
3180
3180
3180
0000
3F00
0180
00C0
00C0
3FC0
60C0
60C0
60C0
60C0
3FC0
0000
0000
0000
0000
0000
ENDCHAR
STARTCHAR aring
ENCODING 229
SWIDTH 500 0
DWIDTH 11 0
BBX 11 22 0 -5
BITMAP
0000
0000
0000
0E00
1B00
1B00
0E00
3F00
0180
00C0
00C0
3FC0
60C0
60C0
60C0
60C0
3FC0
0000
0000
0000
0000
0000
ENDCHAR
STARTCHAR ae
ENCODING 230
SWIDTH 500 0
DWIDTH 11 0
BBX 11 22 0 -5
BITMAP
0000
0000
0000
0000
0000
0000
0000
7B80
0CC0
0CC0
0CC0
7FC0
CC00
CC00
CC00
CCC0
7780
0000
0000
0000
0000
0000
ENDCHAR
STARTCHAR ccedilla
ENCODING 231
SWIDTH 500 0
DWIDTH 11 0
BBX 11 22 0 -5
BITMAP
0000
0000
0000
0000
0000
0000
0000
1F00
3180
60C0
6000
6000
6000
6000
60C0
3180
1F00
0600
0600
0600
0C00
0000
ENDCHAR
STARTCHAR egrave
ENCODING 232
SWIDTH 500 0
DWIDTH 11 0
BBX 11 22 0 -5
BITMAP
0000
0000
0000
1800
0C00
0600
0000
1F00
3180
60C0
60C0
7FC0
6000
6000
6000
30C0
1F80
0000
0000
0000
0000
0000
ENDCHAR
STARTCHAR eacute
ENCODING 233
SWIDTH 500 0
DWIDTH 11 0
BBX 11 22 0 -5
BITMAP
0000
0000
0000
0300
0600
0C00
0000
1F00
3180
60C0
60C0
7FC0
6000
6000
6000
30C0
1F80
0000
0000
0000
0000
0000
ENDCHAR
STARTCHAR ecircumflex
ENCODING 234
SWIDTH 500 0
DWIDTH 11 0
BBX 11 22 0 -5
BITMAP
0000
0000
0000
0E00
1B00
3180
0000
1F00
3180
60C0
60C0
7FC0
6000
6000
6000
30C0
1F80
0000
0000
0000
0000
0000
ENDCHAR
STARTCHAR edieresis
ENCODING 235
SWIDTH 500 0
DWIDTH 11 0
BBX 11 22 0 -5
BITMAP
0000
0000
0000
3180
3180
3180
0000
1F00
3180
60C0
60C0
7FC0
6000
6000
6000
30C0
1F80
0000
0000
0000
0000
0000
ENDCHAR
STARTCHAR igrave
ENCODING 236
SWIDTH 500 0
DWIDTH 11 0
BBX 11 22 0 -5
BITMAP
0000
0000
0000
1800
0C00
0600
0000
1E00
0600
0600
0600
0600
0600
0600
0600
0600
1F80
0000
0000
0000
0000
0000
ENDCHAR
STARTCHAR iacute
ENCODING 237
SWIDTH 500 0
DWIDTH 11 0
BBX 11 22 0 -5
BITMAP
0000
0000
0000
0180
0300
0600
0000
1E00
0600
0600
0600
0600
0600
0600
0600
0600
1F80
0000
0000
0000
0000
0000
ENDCHAR
STARTCHAR icircumflex
ENCODING 238
SWIDTH 500 0
DWIDTH 11 0
BBX 11 22 0 -5
BITMAP
0000
0000
0000
0E00
1B00
3180
0000
1E00
0600
0600
0600
0600
0600
0600
0600
0600
1F80
0000
0000
0000
0000
0000
ENDCHAR
STARTCHAR idieresis
ENCODING 239
SWIDTH 500 0
DWIDTH 11 0
BBX 11 22 0 -5
BITMAP
0000
0000
0000
3180
3180
3180
0000
1E00
0600
0600
0600
0600
0600
0600
0600
0600
1F80
0000
0000
0000
0000
0000
ENDCHAR
STARTCHAR eth
ENCODING 240
SWIDTH 500 0
DWIDTH 11 0
BBX 11 22 0 -5
BITMAP
0000
0000
0000
3600
1800
6C00
0600
1F00
3180
60C0
60C0
60C0
60C0
60C0
60C0
3180
1F00
0000
0000
0000
0000
0000
ENDCHAR
STARTCHAR ntilde
ENCODING 241
SWIDTH 500 0
DWIDTH 11 0
BBX 11 22 0 -5
BITMAP
0000
0000
0000
3980
6D80
6700
0000
7F00
6180
60C0
60C0
60C0
60C0
60C0
60C0
60C0
60C0
0000
0000
0000
0000
0000
ENDCHAR
STARTCHAR ograve
ENCODING 242
SWIDTH 500 0
DWIDTH 11 0
BBX 11 22 0 -5
BITMAP
0000
0000
0000
1800
0C00
0600
0000
1F00
3180
60C0
60C0
60C0
60C0
60C0
60C0
3180
1F00
0000
0000
0000
0000
0000
ENDCHAR
STARTCHAR oacute
ENCODING 243
SWIDTH 500 0
DWIDTH 11 0
BBX 11 22 0 -5
BITMAP
0000
0000
0000
0300
0600
0C00
0000
1F00
3180
60C0
60C0
60C0
60C0
60C0
60C0
3180
1F00
0000
0000
0000
0000
0000
ENDCHAR
STARTCHAR ocircumflex
ENCODING 244
SWIDTH 500 0
DWIDTH 11 0
BBX 11 22 0 -5
BITMAP
0000
0000
0000
0E00
1B00
3180
0000
1F00
3180
60C0
60C0
60C0
60C0
60C0
60C0
3180
1F00
0000
0000
0000
0000
0000
ENDCHAR
STARTCHAR otilde
ENCODING 245
SWIDTH 500 0
DWIDTH 11 0
BBX 11 22 0 -5
BITMAP
0000
0000
0000
1CC0
36C0
3380
0000
1F00
3180
60C0
60C0
60C0
60C0
60C0
60C0
3180
1F00
0000
0000
0000
0000
0000
ENDCHAR
STARTCHAR odieresis
ENCODING 246
SWIDTH 500 0
DWIDTH 11 0
BBX 11 22 0 -5
BITMAP
0000
0000
0000
3180
3180
3180
0000
1F00
3180
60C0
60C0
60C0
60C0
60C0
60C0
3180
1F00
0000
0000
0000
0000
0000
ENDCHAR
STARTCHAR divide
ENCODING 247
SWIDTH 500 0
DWIDTH 11 0
BBX 11 22 0 -5
BITMAP
0000
0000
0000
0000
0000
0C00
0C00
0C00
0000
0000
FFC0
0000
0000
0C00
0C00
0C00
0000
0000
0000
0000
0000
0000
ENDCHAR
STARTCHAR oslash
ENCODING 248
SWIDTH 500 0
DWIDTH 11 0
BBX 11 22 0 -5
BITMAP
0000
0000
0000
0000
0000
0000
0000
1F60
31C0
61C0
63C0
66C0
6CC0
78C0
70C0
7180
DF00
0000
0000
0000
0000
0000
ENDCHAR
STARTCHAR ugrave
ENCODING 249
SWIDTH 500 0
DWIDTH 11 0
BBX 11 22 0 -5
BITMAP
0000
0000
0000
1800
0C00
0600
0000
60C0
60C0
60C0
60C0
60C0
60C0
60C0
60C0
30C0
1FC0
0000
0000
0000
0000
0000
ENDCHAR
STARTCHAR uacute
ENCODING 250
SWIDTH 500 0
DWIDTH 11 0
BBX 11 22 0 -5
BITMAP
0000
0000
0000
0300
0600
0C00
0000
60C0
60C0
60C0
60C0
60C0
60C0
60C0
60C0
30C0
1FC0
0000
0000
0000
0000
0000
ENDCHAR
STARTCHAR ucircumflex
ENCODING 251
SWIDTH 500 0
DWIDTH 11 0
BBX 11 22 0 -5
BITMAP
0000
0000
0000
0E00
1B00
3180
0000
60C0
60C0
60C0
60C0
60C0
60C0
60C0
60C0
30C0
1FC0
0000
0000
0000
0000
0000
ENDCHAR
STARTCHAR udieresis
ENCODING 252
SWIDTH 500 0
DWIDTH 11 0
BBX 11 22 0 -5
BITMAP
0000
0000
0000
3180
3180
3180
0000
60C0
60C0
60C0
60C0
60C0
60C0
60C0
60C0
30C0
1FC0
0000
0000
0000
0000
0000
ENDCHAR
STARTCHAR yacute
ENCODING 253
SWIDTH 500 0
DWIDTH 11 0
BBX 11 22 0 -5
BITMAP
0000
0000
0000
0300
0600
0C00
0000
60C0
60C0
60C0
60C0
60C0
60C0
60C0
60C0
30C0
1FC0
00C0
00C0
0180
3F00
0000
ENDCHAR
STARTCHAR thorn
ENCODING 254
SWIDTH 500 0
DWIDTH 11 0
BBX 11 22 0 -5
BITMAP
0000
0000
0000
6000
6000
6000
6000
7F00
6180
60C0
60C0
60C0
60C0
60C0
60C0
6180
7F00
6000
6000
6000
6000
0000
ENDCHAR
STARTCHAR ydieresis
ENCODING 255
SWIDTH 500 0
DWIDTH 11 0
BBX 11 22 0 -5
BITMAP
0000
0000
0000
3180
3180
3180
0000
60C0
60C0
60C0
60C0
60C0
60C0
60C0
60C0
30C0
1FC0
00C0
00C0
0180
3F00
0000
ENDCHAR
STARTCHAR Amacron
ENCODING 256
SWIDTH 500 0
DWIDTH 11 0
BBX 11 22 0 -5
BITMAP
0000
3F80
0000
1F00
3180
60C0
60C0
60C0
60C0
60C0
7FC0
60C0
60C0
60C0
60C0
60C0
60C0
0000
0000
0000
0000
0000
ENDCHAR
STARTCHAR amacron
ENCODING 257
SWIDTH 500 0
DWIDTH 11 0
BBX 11 22 0 -5
BITMAP
0000
0000
0000
0000
0000
3F80
0000
3F00
0180
00C0
00C0
3FC0
60C0
60C0
60C0
60C0
3FC0
0000
0000
0000
0000
0000
ENDCHAR
STARTCHAR Abreve
ENCODING 258
SWIDTH 500 0
DWIDTH 11 0
BBX 11 22 0 -5
BITMAP
3180
3180
1F00
0000
1F00
3180
60C0
60C0
60C0
60C0
60C0
7FC0
60C0
60C0
60C0
60C0
60C0
0000
0000
0000
0000
0000
ENDCHAR
STARTCHAR abreve
ENCODING 259
SWIDTH 500 0
DWIDTH 11 0
BBX 11 22 0 -5
BITMAP
0000
0000
0000
3180
3180
1F00
0000
3F00
0180
00C0
00C0
3FC0
60C0
60C0
60C0
60C0
3FC0
0000
0000
0000
0000
0000
ENDCHAR
STARTCHAR Aogonek
ENCODING 260
SWIDTH 500 0
DWIDTH 11 0
BBX 11 22 0 -5
BITMAP
0000
0000
0000
1F00
3180
60C0
60C0
60C0
60C0
60C0
7FC0
60C0
60C0
60C0
60C0
60C0
60C0
0180
0300
0300
01E0
0000
ENDCHAR
STARTCHAR aogonek
ENCODING 261
SWIDTH 500 0
DWIDTH 11 0
BBX 11 22 0 -5
BITMAP
0000
0000
0000
0000
0000
0000
0000
3F00
0180
00C0
00C0
3FC0
60C0
60C0
60C0
60C0
3FC0
0180
0300
0300
01E0
0000
ENDCHAR
STARTCHAR Cacute
ENCODING 262
SWIDTH 500 0
DWIDTH 11 0
BBX 11 22 0 -5
BITMAP
0300
0600
0C00
0000
1F00
3180
60C0
60C0
6000
6000
6000
6000
6000
60C0
60C0
3180
1F00
0000
0000
0000
0000
0000
ENDCHAR
STARTCHAR cacute
ENCODING 263
SWIDTH 500 0
DWIDTH 11 0
BBX 11 22 0 -5
BITMAP
0000
0000
0000
0300
0600
0C00
0000
1F00
3180
60C0
6000
6000
6000
6000
60C0
3180
1F00
0000
0000
0000
0000
0000
ENDCHAR
STARTCHAR Ccircumflex
ENCODING 264
SWIDTH 500 0
DWIDTH 11 0
BBX 11 22 0 -5
BITMAP
0E00
1B00
3180
0000
1F00
3180
60C0
60C0
6000
6000
6000
6000
6000
60C0
60C0
3180
1F00
0000
0000
0000
0000
0000
ENDCHAR
STARTCHAR ccircumflex
ENCODING 265
SWIDTH 500 0
DWIDTH 11 0
BBX 11 22 0 -5
BITMAP
0000
0000
0000
0E00
1B00
3180
0000
1F00
3180
60C0
6000
6000
6000
6000
60C0
3180
1F00
0000
0000
0000
0000
0000
ENDCHAR
STARTCHAR Cdotaccent
ENCODING 266
SWIDTH 500 0
DWIDTH 11 0
BBX 11 22 0 -5
BITMAP
0C00
0C00
0C00
0000
1F00
3180
60C0
60C0
6000
6000
6000
6000
6000
60C0
60C0
3180
1F00
0000
0000
0000
0000
0000
ENDCHAR
STARTCHAR cdotaccent
ENCODING 267
SWIDTH 500 0
DWIDTH 11 0
BBX 11 22 0 -5
BITMAP
0000
0000
0000
0C00
0C00
0C00
0000
1F00
3180
60C0
6000
6000
6000
6000
60C0
3180
1F00
0000
0000
0000
0000
0000
ENDCHAR
STARTCHAR Ccaron
ENCODING 268
SWIDTH 500 0
DWIDTH 11 0
BBX 11 22 0 -5
BITMAP
3180
1B00
0E00
0000
1F00
3180
60C0
60C0
6000
6000
6000
6000
6000
60C0
60C0
3180
1F00
0000
0000
0000
0000
0000
ENDCHAR
STARTCHAR ccaron
ENCODING 269
SWIDTH 500 0
DWIDTH 11 0
BBX 11 22 0 -5
BITMAP
0000
0000
0000
3180
1B00
0E00
0000
1F00
3180
60C0
6000
6000
6000
6000
60C0
3180
1F00
0000
0000
0000
0000
0000
ENDCHAR
STARTCHAR Dcaron
ENCODING 270
SWIDTH 500 0
DWIDTH 11 0
BBX 11 22 0 -5
BITMAP
3180
1B00
0E00
0000
7F00
6180
60C0
60C0
60C0
60C0
60C0
60C0
60C0
60C0
60C0
6180
7F00
0000
0000
0000
0000
0000
ENDCHAR
STARTCHAR dcaron
ENCODING 271
SWIDTH 500 0
DWIDTH 11 0
BBX 11 22 0 -5
BITMAP
3180
1B00
0E00
00C0
00C0
00C0
00C0
1FC0
30C0
60C0
60C0
60C0
60C0
60C0
60C0
30C0
1FC0
0000
0000
0000
0000
0000
ENDCHAR
STARTCHAR Dcroat
ENCODING 272
SWIDTH 500 0
DWIDTH 11 0
BBX 11 22 0 -5
BITMAP
0000
0000
0000
7F00
6180
60C0
60C0
60C0
60C0
FCC0
60C0
60C0
60C0
60C0
60C0
6180
7F00
0000
0000
0000
0000
0000
ENDCHAR
STARTCHAR dcroat
ENCODING 273
SWIDTH 500 0
DWIDTH 11 0
BBX 11 22 0 -5
BITMAP
0000
0000
0000
00C0
0FE0
00C0
00C0
1FC0
30C0
60C0
60C0
60C0
60C0
60C0
60C0
30C0
1FC0
0000
0000
0000
0000
0000
ENDCHAR
STARTCHAR Emacron
ENCODING 274
SWIDTH 500 0
DWIDTH 11 0
BBX 11 22 0 -5
BITMAP
0000
3F80
0000
7FC0
6000
6000
6000
6000
6000
7F00
6000
6000
6000
6000
6000
6000
7FC0
0000
0000
0000
0000
0000
ENDCHAR
STARTCHAR emacron
ENCODING 275
SWIDTH 500 0
DWIDTH 11 0
BBX 11 22 0 -5
BITMAP
0000
0000
0000
0000
0000
3F80
0000
1F00
3180
60C0
60C0
7FC0
6000
6000
6000
30C0
1F80
0000
0000
0000
0000
0000
ENDCHAR
STARTCHAR Ebreve
ENCODING 276
SWIDTH 500 0
DWIDTH 11 0
BBX 11 22 0 -5
BITMAP
3180
3180
1F00
0000
7FC0
6000
6000
6000
6000
6000
7F00
6000
6000
6000
6000
6000
7FC0
0000
0000
0000
0000
0000
ENDCHAR
STARTCHAR ebreve
ENCODING 277
SWIDTH 500 0
DWIDTH 11 0
BBX 11 22 0 -5
BITMAP
0000
0000
0000
3180
3180
1F00
0000
1F00
3180
60C0
60C0
7FC0
6000
6000
6000
30C0
1F80
0000
0000
0000
0000
0000
ENDCHAR
STARTCHAR Edotaccent
ENCODING 278
SWIDTH 500 0
DWIDTH 11 0
BBX 11 22 0 -5
BITMAP
0C00
0C00
0C00
0000
7FC0
6000
6000
6000
6000
6000
7F00
6000
6000
6000
6000
6000
7FC0
0000
0000
0000
0000
0000
ENDCHAR
STARTCHAR edotaccent
ENCODING 279
SWIDTH 500 0
DWIDTH 11 0
BBX 11 22 0 -5
BITMAP
0000
0000
0000
0C00
0C00
0C00
0000
1F00
3180
60C0
60C0
7FC0
6000
6000
6000
30C0
1F80
0000
0000
0000
0000
0000
ENDCHAR
STARTCHAR Eogonek
ENCODING 280
SWIDTH 500 0
DWIDTH 11 0
BBX 11 22 0 -5
BITMAP
0000
0000
0000
7FC0
6000
6000
6000
6000
6000
7F00
6000
6000
6000
6000
6000
6000
7FC0
0180
0300
0300
01E0
0000
ENDCHAR
STARTCHAR eogonek
ENCODING 281
SWIDTH 500 0
DWIDTH 11 0
BBX 11 22 0 -5
BITMAP
0000
0000
0000
0000
0000
0000
0000
1F00
3180
60C0
60C0
7FC0
6000
6000
6000
30C0
1F80
0600
0C00
0C00
0780
0000
ENDCHAR
STARTCHAR Ecaron
ENCODING 282
SWIDTH 500 0
DWIDTH 11 0
BBX 11 22 0 -5
BITMAP
3180
1B00
0E00
0000
7FC0
6000
6000
6000
6000
6000
7F00
6000
6000
6000
6000
6000
7FC0
0000
0000
0000
0000
0000
ENDCHAR
STARTCHAR ecaron
ENCODING 283
SWIDTH 500 0
DWIDTH 11 0
BBX 11 22 0 -5
BITMAP
0000
0000
0000
3180
1B00
0E00
0000
1F00
3180
60C0
60C0
7FC0
6000
6000
6000
30C0
1F80
0000
0000
0000
0000
0000
ENDCHAR
STARTCHAR Gcircumflex
ENCODING 284
SWIDTH 500 0
DWIDTH 11 0
BBX 11 22 0 -5
BITMAP
0E00
1B00
3180
0000
1F00
3180
61C0
6000
6000
6000
67C0
60C0
60C0
60C0
60C0
3180
1F00
0000
0000
0000
0000
0000
ENDCHAR
STARTCHAR gcircumflex
ENCODING 285
SWIDTH 500 0
DWIDTH 11 0
BBX 11 22 0 -5
BITMAP
0000
0000
0000
0E00
1B00
3180
0000
1FC0
30C0
60C0
60C0
60C0
60C0
60C0
60C0
30C0
1FC0
00C0
00C0
0180
3F00
0000
ENDCHAR
STARTCHAR Gbreve
ENCODING 286
SWIDTH 500 0
DWIDTH 11 0
BBX 11 22 0 -5
BITMAP
3180
3180
1F00
0000
1F00
3180
61C0
6000
6000
6000
67C0
60C0
60C0
60C0
60C0
3180
1F00
0000
0000
0000
0000
0000
ENDCHAR
STARTCHAR gbreve
ENCODING 287
SWIDTH 500 0
DWIDTH 11 0
BBX 11 22 0 -5
BITMAP
0000
0000
0000
3180
3180
1F00
0000
1FC0
30C0
60C0
60C0
60C0
60C0
60C0
60C0
30C0
1FC0
00C0
00C0
0180
3F00
0000
ENDCHAR
STARTCHAR Gdotaccent
ENCODING 288
SWIDTH 500 0
DWIDTH 11 0
BBX 11 22 0 -5
BITMAP
0C00
0C00
0C00
0000
1F00
3180
61C0
6000
6000
6000
67C0
60C0
60C0
60C0
60C0
3180
1F00
0000
0000
0000
0000
0000
ENDCHAR
STARTCHAR gdotaccent
ENCODING 289
SWIDTH 500 0
DWIDTH 11 0
BBX 11 22 0 -5
BITMAP
0000
0000
0000
0600
0600
0600
0000
1FC0
30C0
60C0
60C0
60C0
60C0
60C0
60C0
30C0
1FC0
00C0
00C0
0180
3F00
0000
ENDCHAR
STARTCHAR Gcommaaccent
ENCODING 290
SWIDTH 500 0
DWIDTH 11 0
BBX 11 22 0 -5
BITMAP
0000
0000
0000
1F00
3180
60C0
60C0
6000
6000
6000
67C0
60C0
60C0
60C0
60C0
3180
1F00
0000
0600
0600
0600
0C00
ENDCHAR
STARTCHAR gcommaaccent
ENCODING 291
SWIDTH 500 0
DWIDTH 11 0
BBX 11 22 0 -5
BITMAP
0000
0000
0300
0600
0600
0600
0000
1FC0
30C0
60C0
60C0
60C0
60C0
60C0
60C0
30C0
1FC0
00C0
00C0
0180
3F00
0000
ENDCHAR
STARTCHAR Hcircumflex
ENCODING 292
SWIDTH 500 0
DWIDTH 11 0
BBX 11 22 0 -5
BITMAP
0E00
1B00
3180
0000
60C0
60C0
60C0
60C0
60C0
7FC0
60C0
60C0
60C0
60C0
60C0
60C0
60C0
0000
0000
0000
0000
0000
ENDCHAR
STARTCHAR hcircumflex
ENCODING 293
SWIDTH 500 0
DWIDTH 11 0
BBX 11 22 0 -5
BITMAP
0700
0D80
18C0
6000
6000
6000
6000
7F00
6180
60C0
60C0
60C0
60C0
60C0
60C0
60C0
60C0
0000
0000
0000
0000
0000
ENDCHAR
STARTCHAR Hbar
ENCODING 294
SWIDTH 500 0
DWIDTH 11 0
BBX 11 22 0 -5
BITMAP
0000
0000
0000
60C0
60C0
FFE0
60C0
60C0
60C0
7FC0
60C0
60C0
60C0
60C0
60C0
60C0
60C0
0000
0000
0000
0000
0000
ENDCHAR
STARTCHAR hbar
ENCODING 295
SWIDTH 500 0
DWIDTH 11 0
BBX 11 22 0 -5
BITMAP
0000
0000
0000
6000
FE00
6000
6000
7F00
6180
60C0
60C0
60C0
60C0
60C0
60C0
60C0
60C0
0000
0000
0000
0000
0000
ENDCHAR
STARTCHAR Itilde
ENCODING 296
SWIDTH 500 0
DWIDTH 11 0
BBX 11 22 0 -5
BITMAP
1CC0
36C0
3380
0000
3F00
0C00
0C00
0C00
0C00
0C00
0C00
0C00
0C00
0C00
0C00
0C00
3F00
0000
0000
0000
0000
0000
ENDCHAR
STARTCHAR itilde
ENCODING 297
SWIDTH 500 0
DWIDTH 11 0
BBX 11 22 0 -5
BITMAP
0000
0000
0000
1CC0
36C0
3380
0000
1E00
0600
0600
0600
0600
0600
0600
0600
0600
1F80
0000
0000
0000
0000
0000
ENDCHAR
STARTCHAR Imacron
ENCODING 298
SWIDTH 500 0
DWIDTH 11 0
BBX 11 22 0 -5
BITMAP
0000
3F80
0000
3F00
0C00
0C00
0C00
0C00
0C00
0C00
0C00
0C00
0C00
0C00
0C00
0C00
3F00
0000
0000
0000
0000
0000
ENDCHAR
STARTCHAR imacron
ENCODING 299
SWIDTH 500 0
DWIDTH 11 0
BBX 11 22 0 -5
BITMAP
0000
0000
0000
0000
0000
3F80
0000
1E00
0600
0600
0600
0600
0600
0600
0600
0600
1F80
0000
0000
0000
0000
0000
ENDCHAR
STARTCHAR Ibreve
ENCODING 300
SWIDTH 500 0
DWIDTH 11 0
BBX 11 22 0 -5
BITMAP
3180
3180
1F00
0000
3F00
0C00
0C00
0C00
0C00
0C00
0C00
0C00
0C00
0C00
0C00
0C00
3F00
0000
0000
0000
0000
0000
ENDCHAR
STARTCHAR ibreve
ENCODING 301
SWIDTH 500 0
DWIDTH 11 0
BBX 11 22 0 -5
BITMAP
0000
0000
0000
3180
3180
1F00
0000
1E00
0600
0600
0600
0600
0600
0600
0600
0600
1F80
0000
0000
0000
0000
0000
ENDCHAR
STARTCHAR Iogonek
ENCODING 302
SWIDTH 500 0
DWIDTH 11 0
BBX 11 22 0 -5
BITMAP
0000
0000
0000
3F00
0C00
0C00
0C00
0C00
0C00
0C00
0C00
0C00
0C00
0C00
0C00
0C00
3F00
0C00
1800
1800
0F00
0000
ENDCHAR
STARTCHAR iogonek
ENCODING 303
SWIDTH 500 0
DWIDTH 11 0
BBX 11 22 0 -5
BITMAP
0000
0000
0000
0600
0600
0600
0000
1E00
0600
0600
0600
0600
0600
0600
0600
0600
1F80
0600
0C00
0C00
0780
0000
ENDCHAR
STARTCHAR Idotaccent
ENCODING 304
SWIDTH 500 0
DWIDTH 11 0
BBX 11 22 0 -5
BITMAP
0C00
0C00
0C00
0000
3F00
0C00
0C00
0C00
0C00
0C00
0C00
0C00
0C00
0C00
0C00
0C00
3F00
0000
0000
0000
0000
0000
ENDCHAR
STARTCHAR dotlessi
ENCODING 305
SWIDTH 500 0
DWIDTH 11 0
BBX 11 22 0 -5
BITMAP
0000
0000
0000
0000
0000
0000
0000
1E00
0600
0600
0600
0600
0600
0600
0600
0600
1F80
0000
0000
0000
0000
0000
ENDCHAR
STARTCHAR IJ
ENCODING 306
SWIDTH 500 0
DWIDTH 11 0
BBX 11 22 0 -5
BITMAP
0000
0000
0000
F1E0
60C0
60C0
60C0
60C0
60C0
60C0
60C0
60C0
6CC0
6CC0
6CC0
6CC0
F780
0000
0000
0000
0000
0000
ENDCHAR
STARTCHAR ij
ENCODING 307
SWIDTH 500 0
DWIDTH 11 0
BBX 11 22 0 -5
BITMAP
0000
0000
0000
60C0
60C0
60C0
0000
E1C0
60C0
60C0
60C0
60C0
60C0
60C0
60C0
60C0
F0C0
0CC0
0CC0
0CC0
0780
0000
ENDCHAR
STARTCHAR Jcircumflex
ENCODING 308
SWIDTH 500 0
DWIDTH 11 0
BBX 11 22 0 -5
BITMAP
0380
06C0
0C60
0000
07E0
0180
0180
0180
0180
0180
0180
0180
6180
6180
6180
3300
1E00
0000
0000
0000
0000
0000
ENDCHAR
STARTCHAR jcircumflex
ENCODING 309
SWIDTH 500 0
DWIDTH 11 0
BBX 11 22 0 -5
BITMAP
0000
0000
0000
0380
06C0
0C60
0000
0780
0180
0180
0180
0180
0180
0180
0180
0180
0180
3180
3180
3180
1F00
0000
ENDCHAR
STARTCHAR Kcommaaccent
ENCODING 310
SWIDTH 500 0
DWIDTH 11 0
BBX 11 22 0 -5
BITMAP
0000
0000
0000
60C0
60C0
6180
6300
6600
6C00
7800
7800
6C00
6600
6300
6180
60C0
60C0
0000
0600
0600
0600
0C00
ENDCHAR
STARTCHAR kcommaaccent
ENCODING 311
SWIDTH 500 0
DWIDTH 11 0
BBX 11 22 0 -5
BITMAP
0000
0000
0000
3000
3000
3000
3000
30C0
3180
3300
3600
3C00
3C00
3600
3300
3180
30C0
0000
0600
0600
0600
0C00
ENDCHAR
STARTCHAR kgreenlandic
ENCODING 312
SWIDTH 500 0
DWIDTH 11 0
BBX 11 22 0 -5
BITMAP
0000
0000
0000
0000
0000
0000
0000
30C0
3180
3300
3600
3C00
3C00
3600
3300
3180
30C0
0000
0000
0000
0000
0000
ENDCHAR
STARTCHAR Lacute
ENCODING 313
SWIDTH 500 0
DWIDTH 11 0
BBX 11 22 0 -5
BITMAP
1800
3000
6000
0000
6000
6000
6000
6000
6000
6000
6000
6000
6000
6000
6000
6000
7FC0
0000
0000
0000
0000
0000
ENDCHAR
STARTCHAR lacute
ENCODING 314
SWIDTH 500 0
DWIDTH 11 0
BBX 11 22 0 -5
BITMAP
0180
0300
0600
0000
1E00
0600
0600
0600
0600
0600
0600
0600
0600
0600
0600
0600
1F80
0000
0000
0000
0000
0000
ENDCHAR
STARTCHAR Lcommaaccent
ENCODING 315
SWIDTH 500 0
DWIDTH 11 0
BBX 11 22 0 -5
BITMAP
0000
0000
0000
6000
6000
6000
6000
6000
6000
6000
6000
6000
6000
6000
6000
6000
7FC0
0000
0600
0600
0600
0C00
ENDCHAR
STARTCHAR lcommaaccent
ENCODING 316
SWIDTH 500 0
DWIDTH 11 0
BBX 11 22 0 -5
BITMAP
0000
0000
0000
1E00
0600
0600
0600
0600
0600
0600
0600
0600
0600
0600
0600
0600
1F80
0000
0600
0600
0600
0C00
ENDCHAR
STARTCHAR Lcaron
ENCODING 317
SWIDTH 500 0
DWIDTH 11 0
BBX 11 22 0 -5
BITMAP
3180
1B00
0E00
6000
6000
6000
6000
6000
6000
6000
6000
6000
6000
6000
6000
6000
7FC0
0000
0000
0000
0000
0000
ENDCHAR
STARTCHAR lcaron
ENCODING 318
SWIDTH 500 0
DWIDTH 11 0
BBX 11 22 0 -5
BITMAP
3180
1B00
0E00
0000
1E00
0600
0600
0600
0600
0600
0600
0600
0600
0600
0600
0600
1F80
0000
0000
0000
0000
0000
ENDCHAR
STARTCHAR Ldot
ENCODING 319
SWIDTH 500 0
DWIDTH 11 0
BBX 11 22 0 -5
BITMAP
0000
0000
0000
6000
6000
6000
6000
6000
6300
6300
6300
6000
6000
6000
6000
6000
7FC0
0000
0000
0000
0000
0000
ENDCHAR
STARTCHAR ldot
ENCODING 320
SWIDTH 500 0
DWIDTH 11 0
BBX 11 22 0 -5
BITMAP
0000
0000
0000
3C00
0C00
0C00
0C00
0C00
0C60
0C60
0C60
0C00
0C00
0C00
0C00
0C00
3F00
0000
0000
0000
0000
0000
ENDCHAR
STARTCHAR Lslash
ENCODING 321
SWIDTH 500 0
DWIDTH 11 0
BBX 11 22 0 -5
BITMAP
0000
0000
0000
3000
3000
3000
3000
3C00
3800
3000
7000
F000
3000
3000
3000
3000
3FE0
0000
0000
0000
0000
0000
ENDCHAR
STARTCHAR lslash
ENCODING 322
SWIDTH 500 0
DWIDTH 11 0
BBX 11 22 0 -5
BITMAP
0000
0000
0000
1E00
0600
0600
0600
0780
0700
0600
0E00
1E00
0600
0600
0600
0600
1F80
0000
0000
0000
0000
0000
ENDCHAR
STARTCHAR Nacute
ENCODING 323
SWIDTH 500 0
DWIDTH 11 0
BBX 11 22 0 -5
BITMAP
0300
0600
0C00
60C0
60C0
60C0
60C0
70C0
78C0
6CC0
66C0
63C0
61C0
60C0
60C0
60C0
60C0
0000
0000
0000
0000
0000
ENDCHAR
STARTCHAR nacute
ENCODING 324
SWIDTH 500 0
DWIDTH 11 0
BBX 11 22 0 -5
BITMAP
0000
0000
0000
0300
0600
0C00
0000
7F00
6180
60C0
60C0
60C0
60C0
60C0
60C0
60C0
60C0
0000
0000
0000
0000
0000
ENDCHAR
STARTCHAR Ncommaaccent
ENCODING 325
SWIDTH 500 0
DWIDTH 11 0
BBX 11 22 0 -5
BITMAP
0000
0000
0000
60C0
60C0
60C0
60C0
70C0
78C0
6CC0
66C0
63C0
61C0
60C0
60C0
60C0
60C0
0000
0600
0600
0600
0C00
ENDCHAR
STARTCHAR ncommaaccent
ENCODING 326
SWIDTH 500 0
DWIDTH 11 0
BBX 11 22 0 -5
BITMAP
0000
0000
0000
0000
0000
0000
0000
7F00
6180
60C0
60C0
60C0
60C0
60C0
60C0
60C0
60C0
0000
0600
0600
0600
0C00
ENDCHAR
STARTCHAR Ncaron
ENCODING 327
SWIDTH 500 0
DWIDTH 11 0
BBX 11 22 0 -5
BITMAP
3180
1B00
0E00
60C0
60C0
60C0
60C0
70C0
78C0
6CC0
66C0
63C0
61C0
60C0
60C0
60C0
60C0
0000
0000
0000
0000
0000
ENDCHAR
STARTCHAR ncaron
ENCODING 328
SWIDTH 500 0
DWIDTH 11 0
BBX 11 22 0 -5
BITMAP
0000
0000
0000
3180
1B00
0E00
0000
7F00
6180
60C0
60C0
60C0
60C0
60C0
60C0
60C0
60C0
0000
0000
0000
0000
0000
ENDCHAR
STARTCHAR napostrophe
ENCODING 329
SWIDTH 500 0
DWIDTH 11 0
BBX 11 22 0 -5
BITMAP
0000
6000
6000
6000
6000
C000
0000
7F00
6180
60C0
60C0
60C0
60C0
60C0
60C0
60C0
60C0
0000
0000
0000
0000
0000
ENDCHAR
STARTCHAR Eng
ENCODING 330
SWIDTH 500 0
DWIDTH 11 0
BBX 11 22 0 -5
BITMAP
0000
0000
0000
60C0
60C0
60C0
60C0
70C0
78C0
6CC0
66C0
63C0
61C0
60C0
60C0
60C0
60C0
00C0
00C0
0180
0700
0000
ENDCHAR
STARTCHAR eng
ENCODING 331
SWIDTH 500 0
DWIDTH 11 0
BBX 11 22 0 -5
BITMAP
0000
0000
0000
0000
0000
0000
0000
7F00
6180
60C0
60C0
60C0
60C0
60C0
60C0
60C0
60C0
00C0
00C0
0180
0700
0000
ENDCHAR
STARTCHAR Omacron
ENCODING 332
SWIDTH 500 0
DWIDTH 11 0
BBX 11 22 0 -5
BITMAP
0000
3F80
0000
1F00
3180
60C0
60C0
60C0
60C0
60C0
60C0
60C0
60C0
60C0
60C0
3180
1F00
0000
0000
0000
0000
0000
ENDCHAR
STARTCHAR omacron
ENCODING 333
SWIDTH 500 0
DWIDTH 11 0
BBX 11 22 0 -5
BITMAP
0000
0000
0000
0000
0000
3F80
0000
1F00
3180
60C0
60C0
60C0
60C0
60C0
60C0
3180
1F00
0000
0000
0000
0000
0000
ENDCHAR
STARTCHAR Obreve
ENCODING 334
SWIDTH 500 0
DWIDTH 11 0
BBX 11 22 0 -5
BITMAP
3180
3180
1F00
0000
1F00
3180
60C0
60C0
60C0
60C0
60C0
60C0
60C0
60C0
60C0
3180
1F00
0000
0000
0000
0000
0000
ENDCHAR
STARTCHAR obreve
ENCODING 335
SWIDTH 500 0
DWIDTH 11 0
BBX 11 22 0 -5
BITMAP
0000
0000
0000
3180
3180
1F00
0000
1F00
3180
60C0
60C0
60C0
60C0
60C0
60C0
3180
1F00
0000
0000
0000
0000
0000
ENDCHAR
STARTCHAR Ohungarumlaut
ENCODING 336
SWIDTH 500 0
DWIDTH 11 0
BBX 11 22 0 -5
BITMAP
0660
0CC0
1980
0000
1F00
3180
60C0
60C0
60C0
60C0
60C0
60C0
60C0
60C0
60C0
3180
1F00
0000
0000
0000
0000
0000
ENDCHAR
STARTCHAR ohungarumlaut
ENCODING 337
SWIDTH 500 0
DWIDTH 11 0
BBX 11 22 0 -5
BITMAP
0000
0000
0000
0660
0CC0
1980
0000
1F00
3180
60C0
60C0
60C0
60C0
60C0
60C0
3180
1F00
0000
0000
0000
0000
0000
ENDCHAR
STARTCHAR OE
ENCODING 338
SWIDTH 500 0
DWIDTH 11 0
BBX 11 22 0 -5
BITMAP
0000
0000
0000
3FE0
6600
C600
C600
C600
C600
C7E0
C600
C600
C600
C600
C600
6600
3FE0
0000
0000
0000
0000
0000
ENDCHAR
STARTCHAR oe
ENCODING 339
SWIDTH 500 0
DWIDTH 11 0
BBX 11 22 0 -5
BITMAP
0000
0000
0000
0000
0000
0000
0000
7F80
CCC0
CCC0
CCC0
CFC0
CC00
CC00
CC00
CCC0
7F80
0000
0000
0000
0000
0000
ENDCHAR
STARTCHAR Racute
ENCODING 340
SWIDTH 500 0
DWIDTH 11 0
BBX 11 22 0 -5
BITMAP
0300
0600
0C00
0000
7F00
6180
60C0
60C0
60C0
6180
7F00
7800
6C00
6600
6300
6180
60C0
0000
0000
0000
0000
0000
ENDCHAR
STARTCHAR racute
ENCODING 341
SWIDTH 500 0
DWIDTH 11 0
BBX 11 22 0 -5
BITMAP
0000
0000
0000
0300
0600
0C00
0000
67C0
6C00
7800
7000
6000
6000
6000
6000
6000
6000
0000
0000
0000
0000
0000
ENDCHAR
STARTCHAR Rcommaaccent
ENCODING 342
SWIDTH 500 0
DWIDTH 11 0
BBX 11 22 0 -5
BITMAP
0000
0000
0000
7F00
6180
60C0
60C0
60C0
60C0
6180
7F00
7800
6C00
6600
6300
6180
60C0
0000
0600
0600
0600
0C00
ENDCHAR
STARTCHAR rcommaaccent
ENCODING 343
SWIDTH 500 0
DWIDTH 11 0
BBX 11 22 0 -5
BITMAP
0000
0000
0000
0000
0000
0000
0000
67C0
6C00
7800
7000
6000
6000
6000
6000
6000
6000
0000
6000
6000
6000
C000
ENDCHAR
STARTCHAR Rcaron
ENCODING 344
SWIDTH 500 0
DWIDTH 11 0
BBX 11 22 0 -5
BITMAP
3180
1B00
0E00
0000
7F00
6180
60C0
60C0
60C0
6180
7F00
7800
6C00
6600
6300
6180
60C0
0000
0000
0000
0000
0000
ENDCHAR
STARTCHAR rcaron
ENCODING 345
SWIDTH 500 0
DWIDTH 11 0
BBX 11 22 0 -5
BITMAP
0000
0000
0000
3180
1B00
0E00
0000
67C0
6C00
7800
7000
6000
6000
6000
6000
6000
6000
0000
0000
0000
0000
0000
ENDCHAR
STARTCHAR Sacute
ENCODING 346
SWIDTH 500 0
DWIDTH 11 0
BBX 11 22 0 -5
BITMAP
0300
0600
0C00
0000
1F00
3180
60C0
6000
6000
3000
1F00
0180
00C0
00C0
60C0
3180
1F00
0000
0000
0000
0000
0000
ENDCHAR
STARTCHAR sacute
ENCODING 347
SWIDTH 500 0
DWIDTH 11 0
BBX 11 22 0 -5
BITMAP
0000
0000
0000
0300
0600
0C00
0000
3F80
60C0
6000
6000
3F80
00C0
00C0
00C0
60C0
3F80
0000
0000
0000
0000
0000
ENDCHAR
STARTCHAR Scircumflex
ENCODING 348
SWIDTH 500 0
DWIDTH 11 0
BBX 11 22 0 -5
BITMAP
0E00
1B00
3180
0000
1F00
3180
60C0
6000
6000
3000
1F00
0180
00C0
00C0
60C0
3180
1F00
0000
0000
0000
0000
0000
ENDCHAR
STARTCHAR scircumflex
ENCODING 349
SWIDTH 500 0
DWIDTH 11 0
BBX 11 22 0 -5
BITMAP
0000
0000
0000
0E00
1B00
3180
0000
3F80
60C0
6000
6000
3F80
00C0
00C0
00C0
60C0
3F80
0000
0000
0000
0000
0000
ENDCHAR
STARTCHAR Scedilla
ENCODING 350
SWIDTH 500 0
DWIDTH 11 0
BBX 11 22 0 -5
BITMAP
0000
0000
0000
1F00
3180
60C0
6000
6000
3000
1F00
0180
00C0
00C0
00C0
60C0
3180
1F00
0600
0600
0600
0C00
0000
ENDCHAR
STARTCHAR scedilla
ENCODING 351
SWIDTH 500 0
DWIDTH 11 0
BBX 11 22 0 -5
BITMAP
0000
0000
0000
0000
0000
0000
0000
3F80
60C0
6000
6000
3F80
00C0
00C0
00C0
60C0
3F80
0600
0600
0600
0C00
0000
ENDCHAR
STARTCHAR Scaron
ENCODING 352
SWIDTH 500 0
DWIDTH 11 0
BBX 11 22 0 -5
BITMAP
3180
1B00
0E00
0000
1F00
3180
60C0
6000
6000
3000
1F00
0180
00C0
00C0
60C0
3180
1F00
0000
0000
0000
0000
0000
ENDCHAR
STARTCHAR scaron
ENCODING 353
SWIDTH 500 0
DWIDTH 11 0
BBX 11 22 0 -5
BITMAP
0000
0000
0000
3180
1B00
0E00
0000
3F80
60C0
6000
6000
3F80
00C0
00C0
00C0
60C0
3F80
0000
0000
0000
0000
0000
ENDCHAR
STARTCHAR Tcedilla
ENCODING 354
SWIDTH 500 0
DWIDTH 11 0
BBX 11 22 0 -5
BITMAP
0000
0000
0000
FFC0
0C00
0C00
0C00
0C00
0C00
0C00
0C00
0C00
0C00
0C00
0C00
0C00
0C00
0600
0600
0600
0C00
0000
ENDCHAR
STARTCHAR tcedilla
ENCODING 355
SWIDTH 500 0
DWIDTH 11 0
BBX 11 22 0 -5
BITMAP
0000
0000
0000
0C00
0C00
0C00
0C00
7F80
0C00
0C00
0C00
0C00
0C00
0C00
0C00
0C00
07C0
0300
0300
0300
0600
0000
ENDCHAR
STARTCHAR Tcaron
ENCODING 356
SWIDTH 500 0
DWIDTH 11 0
BBX 11 22 0 -5
BITMAP
3180
1B00
0E00
0000
FFC0
0C00
0C00
0C00
0C00
0C00
0C00
0C00
0C00
0C00
0C00
0C00
0C00
0000
0000
0000
0000
0000
ENDCHAR
STARTCHAR tcaron
ENCODING 357
SWIDTH 500 0
DWIDTH 11 0
BBX 11 22 0 -5
BITMAP
3300
1E00
0C00
0000
0C00
0C00
0C00
7F80
0C00
0C00
0C00
0C00
0C00
0C00
0C00
0C00
07C0
0000
0000
0000
0000
0000
ENDCHAR
STARTCHAR Tbar
ENCODING 358
SWIDTH 500 0
DWIDTH 11 0
BBX 11 22 0 -5
BITMAP
0000
0000
0000
FFC0
0C00
0C00
0C00
0C00
0C00
7F80
0C00
0C00
0C00
0C00
0C00
0C00
0C00
0000
0000
0000
0000
0000
ENDCHAR
STARTCHAR tbar
ENCODING 359
SWIDTH 500 0
DWIDTH 11 0
BBX 11 22 0 -5
BITMAP
0000
0000
0000
0C00
0C00
0C00
0C00
7F80
0C00
0C00
3F00
0C00
0C00
0C00
0C00
0C00
07C0
0000
0000
0000
0000
0000
ENDCHAR
STARTCHAR Utilde
ENCODING 360
SWIDTH 500 0
DWIDTH 11 0
BBX 11 22 0 -5
BITMAP
1CC0
36C0
3380
0000
60C0
60C0
60C0
60C0
60C0
60C0
60C0
60C0
60C0
60C0
60C0
3180
1F00
0000
0000
0000
0000
0000
ENDCHAR
STARTCHAR utilde
ENCODING 361
SWIDTH 500 0
DWIDTH 11 0
BBX 11 22 0 -5
BITMAP
0000
0000
0000
1CC0
36C0
3380
0000
60C0
60C0
60C0
60C0
60C0
60C0
60C0
60C0
30C0
1FC0
0000
0000
0000
0000
0000
ENDCHAR
STARTCHAR Umacron
ENCODING 362
SWIDTH 500 0
DWIDTH 11 0
BBX 11 22 0 -5
BITMAP
0000
3F80
0000
60C0
60C0
60C0
60C0
60C0
60C0
60C0
60C0
60C0
60C0
60C0
60C0
3180
1F00
0000
0000
0000
0000
0000
ENDCHAR
STARTCHAR umacron
ENCODING 363
SWIDTH 500 0
DWIDTH 11 0
BBX 11 22 0 -5
BITMAP
0000
0000
0000
0000
0000
3F80
0000
60C0
60C0
60C0
60C0
60C0
60C0
60C0
60C0
30C0
1FC0
0000
0000
0000
0000
0000
ENDCHAR
STARTCHAR Ubreve
ENCODING 364
SWIDTH 500 0
DWIDTH 11 0
BBX 11 22 0 -5
BITMAP
3180
3180
1F00
0000
60C0
60C0
60C0
60C0
60C0
60C0
60C0
60C0
60C0
60C0
60C0
3180
1F00
0000
0000
0000
0000
0000
ENDCHAR
STARTCHAR ubreve
ENCODING 365
SWIDTH 500 0
DWIDTH 11 0
BBX 11 22 0 -5
BITMAP
0000
0000
0000
3180
3180
1F00
0000
60C0
60C0
60C0
60C0
60C0
60C0
60C0
60C0
30C0
1FC0
0000
0000
0000
0000
0000
ENDCHAR
STARTCHAR Uring
ENCODING 366
SWIDTH 500 0
DWIDTH 11 0
BBX 11 22 0 -5
BITMAP
0E00
1B00
1B00
0E00
60C0
60C0
60C0
60C0
60C0
60C0
60C0
60C0
60C0
60C0
60C0
3180
1F00
0000
0000
0000
0000
0000
ENDCHAR
STARTCHAR uring
ENCODING 367
SWIDTH 500 0
DWIDTH 11 0
BBX 11 22 0 -5
BITMAP
0000
0000
0000
0E00
1B00
1B00
0E00
60C0
60C0
60C0
60C0
60C0
60C0
60C0
60C0
30C0
1FC0
0000
0000
0000
0000
0000
ENDCHAR
STARTCHAR Uhungarumlaut
ENCODING 368
SWIDTH 500 0
DWIDTH 11 0
BBX 11 22 0 -5
BITMAP
0660
0CC0
1980
0000
60C0
60C0
60C0
60C0
60C0
60C0
60C0
60C0
60C0
60C0
60C0
3180
1F00
0000
0000
0000
0000
0000
ENDCHAR
STARTCHAR uhungarumlaut
ENCODING 369
SWIDTH 500 0
DWIDTH 11 0
BBX 11 22 0 -5
BITMAP
0000
0000
0000
0660
0CC0
1980
0000
60C0
60C0
60C0
60C0
60C0
60C0
60C0
60C0
30C0
1FC0
0000
0000
0000
0000
0000
ENDCHAR
STARTCHAR Uogonek
ENCODING 370
SWIDTH 500 0
DWIDTH 11 0
BBX 11 22 0 -5
BITMAP
0000
0000
0000
60C0
60C0
60C0
60C0
60C0
60C0
60C0
60C0
60C0
60C0
60C0
60C0
3180
1F00
0600
0C00
0C00
0780
0000
ENDCHAR
STARTCHAR uogonek
ENCODING 371
SWIDTH 500 0
DWIDTH 11 0
BBX 11 22 0 -5
BITMAP
0000
0000
0000
0000
0000
0000
0000
60C0
60C0
60C0
60C0
60C0
60C0
60C0
60C0
30C0
1FC0
0180
0300
0300
01E0
0000
ENDCHAR
STARTCHAR Wcircumflex
ENCODING 372
SWIDTH 500 0
DWIDTH 11 0
BBX 11 22 0 -5
BITMAP
0E00
1B00
3180
0000
C0C0
C0C0
C0C0
C0C0
C0C0
C0C0
C0C0
CCC0
DEC0
F3C0
E1C0
C0C0
8040
0000
0000
0000
0000
0000
ENDCHAR
STARTCHAR wcircumflex
ENCODING 373
SWIDTH 500 0
DWIDTH 11 0
BBX 11 22 0 -5
BITMAP
0000
0000
0000
0E00
1B00
3180
0000
C0C0
C0C0
C0C0
CCC0
CCC0
CCC0
CCC0
CCC0
CCC0
7F80
0000
0000
0000
0000
0000
ENDCHAR
STARTCHAR Ycircumflex
ENCODING 374
SWIDTH 500 0
DWIDTH 11 0
BBX 11 22 0 -5
BITMAP
0E00
1B00
3180
0000
C0C0
C0C0
6180
6180
3300
3300
1E00
0C00
0C00
0C00
0C00
0C00
0C00
0000
0000
0000
0000
0000
ENDCHAR
STARTCHAR ycircumflex
ENCODING 375
SWIDTH 500 0
DWIDTH 11 0
BBX 11 22 0 -5
BITMAP
0000
0000
0000
0E00
1B00
3180
0000
60C0
60C0
60C0
60C0
60C0
60C0
60C0
60C0
30C0
1FC0
00C0
00C0
0180
3F00
0000
ENDCHAR
STARTCHAR Ydieresis
ENCODING 376
SWIDTH 500 0
DWIDTH 11 0
BBX 11 22 0 -5
BITMAP
3180
3180
3180
0000
C0C0
C0C0
6180
6180
3300
3300
1E00
0C00
0C00
0C00
0C00
0C00
0C00
0000
0000
0000
0000
0000
ENDCHAR
STARTCHAR Zacute
ENCODING 377
SWIDTH 500 0
DWIDTH 11 0
BBX 11 22 0 -5
BITMAP
0300
0600
0C00
0000
7FC0
00C0
00C0
0180
0300
0600
0C00
1800
3000
6000
6000
6000
7FC0
0000
0000
0000
0000
0000
ENDCHAR
STARTCHAR zacute
ENCODING 378
SWIDTH 500 0
DWIDTH 11 0
BBX 11 22 0 -5
BITMAP
0000
0000
0000
0300
0600
0C00
0000
7FC0
00C0
0180
0300
0600
0C00
1800
3000
6000
7FC0
0000
0000
0000
0000
0000
ENDCHAR
STARTCHAR Zdotaccent
ENCODING 379
SWIDTH 500 0
DWIDTH 11 0
BBX 11 22 0 -5
BITMAP
0C00
0C00
0C00
0000
7FC0
00C0
00C0
0180
0300
0600
0C00
1800
3000
6000
6000
6000
7FC0
0000
0000
0000
0000
0000
ENDCHAR
STARTCHAR zdotaccent
ENCODING 380
SWIDTH 500 0
DWIDTH 11 0
BBX 11 22 0 -5
BITMAP
0000
0000
0000
0C00
0C00
0C00
0000
7FC0
00C0
0180
0300
0600
0C00
1800
3000
6000
7FC0
0000
0000
0000
0000
0000
ENDCHAR
STARTCHAR Zcaron
ENCODING 381
SWIDTH 500 0
DWIDTH 11 0
BBX 11 22 0 -5
BITMAP
3180
1B00
0E00
0000
7FC0
00C0
00C0
0180
0300
0600
0C00
1800
3000
6000
6000
6000
7FC0
0000
0000
0000
0000
0000
ENDCHAR
STARTCHAR zcaron
ENCODING 382
SWIDTH 500 0
DWIDTH 11 0
BBX 11 22 0 -5
BITMAP
0000
0000
0000
3180
1B00
0E00
0000
7FC0
00C0
0180
0300
0600
0C00
1800
3000
6000
7FC0
0000
0000
0000
0000
0000
ENDCHAR
STARTCHAR longs
ENCODING 383
SWIDTH 500 0
DWIDTH 11 0
BBX 11 22 0 -5
BITMAP
0000
0000
0000
07C0
0C00
0C00
0C00
0C00
0C00
0C00
0C00
0C00
0C00
0C00
0C00
0C00
0C00
0000
0000
0000
0000
0000
ENDCHAR
STARTCHAR uni0186
ENCODING 390
SWIDTH 500 0
DWIDTH 11 0
BBX 11 22 0 -5
BITMAP
0000
0000
0000
1F00
3180
60C0
60C0
00C0
00C0
00C0
00C0
00C0
00C0
60C0
60C0
3180
1F00
0000
0000
0000
0000
0000
ENDCHAR
STARTCHAR uni018E
ENCODING 398
SWIDTH 500 0
DWIDTH 11 0
BBX 11 22 0 -5
BITMAP
0000
0000
0000
7FC0
00C0
00C0
00C0
00C0
00C0
1FC0
00C0
00C0
00C0
00C0
00C0
00C0
7FC0
0000
0000
0000
0000
0000
ENDCHAR
STARTCHAR Schwa
ENCODING 399
SWIDTH 500 0
DWIDTH 11 0
BBX 11 22 0 -5
BITMAP
0000
0000
0000
1F00
3180
60C0
00C0
00C0
00C0
7FC0
60C0
60C0
60C0
60C0
60C0
3180
1F00
0000
0000
0000
0000
0000
ENDCHAR
STARTCHAR uni0190
ENCODING 400
SWIDTH 500 0
DWIDTH 11 0
BBX 11 22 0 -5
BITMAP
0000
0000
0000
1F00
3180
60C0
6000
6000
3000
1E00
3000
6000
6000
6000
60C0
3180
1F00
0000
0000
0000
0000
0000
ENDCHAR
STARTCHAR florin
ENCODING 402
SWIDTH 500 0
DWIDTH 11 0
BBX 11 22 0 -5
BITMAP
0000
0000
0000
0780
0CC0
0CC0
0C00
0C00
0C00
7F80
0C00
0C00
0C00
0C00
0C00
0C00
0C00
0C00
CC00
CC00
7800
0000
ENDCHAR
STARTCHAR uni019D
ENCODING 413
SWIDTH 500 0
DWIDTH 11 0
BBX 11 22 0 -5
BITMAP
0000
0000
0000
60C0
60C0
60C0
60C0
70C0
78C0
6CC0
66C0
63C0
61C0
60C0
60C0
60C0
60C0
6000
6000
6000
C000
0000
ENDCHAR
STARTCHAR uni019E
ENCODING 414
SWIDTH 500 0
DWIDTH 11 0
BBX 11 22 0 -5
BITMAP
0000
0000
0000
0000
0000
0000
0000
7F00
6180
60C0
60C0
60C0
60C0
60C0
60C0
60C0
60C0
00C0
00C0
00C0
00C0
0000
ENDCHAR
STARTCHAR uni01B5
ENCODING 437
SWIDTH 500 0
DWIDTH 11 0
BBX 11 22 0 -5
BITMAP
0000
0000
0000
7FC0
00C0
00C0
0180
0300
0600
7FC0
0C00
1800
3000
6000
6000
6000
7FC0
0000
0000
0000
0000
0000
ENDCHAR
STARTCHAR uni01B6
ENCODING 438
SWIDTH 500 0
DWIDTH 11 0
BBX 11 22 0 -5
BITMAP
0000
0000
0000
0000
0000
0000
0000
7FC0
0180
0300
0600
7FC0
0C00
1800
3000
6000
7FC0
0000
0000
0000
0000
0000
ENDCHAR
STARTCHAR Ezh
ENCODING 439
SWIDTH 500 0
DWIDTH 11 0
BBX 11 22 0 -5
BITMAP
0000
0000
0000
7FC0
00C0
0180
0300
0600
0F00
0180
00C0
00C0
00C0
00C0
60C0
3180
1F00
0000
0000
0000
0000
0000
ENDCHAR
STARTCHAR uni01CD
ENCODING 461
SWIDTH 500 0
DWIDTH 11 0
BBX 11 22 0 -5
BITMAP
3180
1B00
0E00
0000
1F00
3180
60C0
60C0
60C0
60C0
60C0
7FC0
60C0
60C0
60C0
60C0
60C0
0000
0000
0000
0000
0000
ENDCHAR
STARTCHAR uni01CE
ENCODING 462
SWIDTH 500 0
DWIDTH 11 0
BBX 11 22 0 -5
BITMAP
0000
0000
0000
3180
1B00
0E00
0000
3F00
0180
00C0
00C0
3FC0
60C0
60C0
60C0
60C0
3FC0
0000
0000
0000
0000
0000
ENDCHAR
STARTCHAR uni01CF
ENCODING 463
SWIDTH 500 0
DWIDTH 11 0
BBX 11 22 0 -5
BITMAP
3180
1B00
0E00
0000
3F00
0C00
0C00
0C00
0C00
0C00
0C00
0C00
0C00
0C00
0C00
0C00
3F00
0000
0000
0000
0000
0000
ENDCHAR
STARTCHAR uni01D0
ENCODING 464
SWIDTH 500 0
DWIDTH 11 0
BBX 11 22 0 -5
BITMAP
0000
0000
0000
3180
1B00
0E00
0000
1E00
0600
0600
0600
0600
0600
0600
0600
0600
1F80
0000
0000
0000
0000
0000
ENDCHAR
STARTCHAR uni01D1
ENCODING 465
SWIDTH 500 0
DWIDTH 11 0
BBX 11 22 0 -5
BITMAP
3180
1B00
0E00
0000
1F00
3180
60C0
60C0
60C0
60C0
60C0
60C0
60C0
60C0
60C0
3180
1F00
0000
0000
0000
0000
0000
ENDCHAR
STARTCHAR uni01D2
ENCODING 466
SWIDTH 500 0
DWIDTH 11 0
BBX 11 22 0 -5
BITMAP
0000
0000
0000
3180
1B00
0E00
0000
1F00
3180
60C0
60C0
60C0
60C0
60C0
60C0
3180
1F00
0000
0000
0000
0000
0000
ENDCHAR
STARTCHAR uni01D3
ENCODING 467
SWIDTH 500 0
DWIDTH 11 0
BBX 11 22 0 -5
BITMAP
3180
1B00
0E00
60C0
60C0
60C0
60C0
60C0
60C0
60C0
60C0
60C0
60C0
60C0
60C0
3180
1F00
0000
0000
0000
0000
0000
ENDCHAR
STARTCHAR uni01D4
ENCODING 468
SWIDTH 500 0
DWIDTH 11 0
BBX 11 22 0 -5
BITMAP
0000
0000
0000
3180
1B00
0E00
0000
60C0
60C0
60C0
60C0
60C0
60C0
60C0
60C0
30C0
1FC0
0000
0000
0000
0000
0000
ENDCHAR
STARTCHAR uni01E2
ENCODING 482
SWIDTH 500 0
DWIDTH 11 0
BBX 11 22 0 -5
BITMAP
0000
3FC0
0000
3FE0
6600
C600
C600
C600
C600
FFE0
C600
C600
C600
C600
C600
C600
C7E0
0000
0000
0000
0000
0000
ENDCHAR
STARTCHAR uni01E3
ENCODING 483
SWIDTH 500 0
DWIDTH 11 0
BBX 11 22 0 -5
BITMAP
0000
0000
0000
0000
0000
7F80
0000
7B80
0CC0
0CC0
0CC0
7FC0
CC00
CC00
CC00
CCC0
7780
0000
0000
0000
0000
0000
ENDCHAR
STARTCHAR uni01E4
ENCODING 484
SWIDTH 500 0
DWIDTH 11 0
BBX 11 22 0 -5
BITMAP
0000
0000
0000
1F00
3180
60C0
60C0
6000
6000
6000
67C0
60C0
60C0
67E0
60C0
3180
1F00
0000
0000
0000
0000
0000
ENDCHAR
STARTCHAR uni01E5
ENCODING 485
SWIDTH 500 0
DWIDTH 11 0
BBX 11 22 0 -5
BITMAP
0000
0000
0000
0000
0000
0000
0000
1FC0
30C0
60C0
60C0
67E0
60C0
60C0
60C0
30C0
1FC0
00C0
00C0
0180
3F00
0000
ENDCHAR
STARTCHAR Gcaron
ENCODING 486
SWIDTH 500 0
DWIDTH 11 0
BBX 11 22 0 -5
BITMAP
3180
1B00
0E00
0000
1F00
3180
61C0
6000
6000
6000
67C0
60C0
60C0
60C0
60C0
3180
1F00
0000
0000
0000
0000
0000
ENDCHAR
STARTCHAR gcaron
ENCODING 487
SWIDTH 500 0
DWIDTH 11 0
BBX 11 22 0 -5
BITMAP
0000
0000
0000
3180
1B00
0E00
0000
1FC0
30C0
60C0
60C0
60C0
60C0
60C0
60C0
30C0
1FC0
00C0
00C0
0180
3F00
0000
ENDCHAR
STARTCHAR uni01E8
ENCODING 488
SWIDTH 500 0
DWIDTH 11 0
BBX 11 22 0 -5
BITMAP
3180
1B00
0E00
60C0
60C0
6180
6300
6600
6C00
7800
7800
6C00
6600
6300
6180
60C0
60C0
0000
0000
0000
0000
0000
ENDCHAR
STARTCHAR uni01E9
ENCODING 489
SWIDTH 500 0
DWIDTH 11 0
BBX 11 22 0 -5
BITMAP
18C0
0D80
0700
3000
3000
3000
3000
30C0
3180
3300
3600
3C00
3C00
3600
3300
3180
30C0
0000
0000
0000
0000
0000
ENDCHAR
STARTCHAR uni01EA
ENCODING 490
SWIDTH 500 0
DWIDTH 11 0
BBX 11 22 0 -5
BITMAP
0000
0000
0000
1F00
3180
60C0
60C0
60C0
60C0
60C0
60C0
60C0
60C0
60C0
60C0
3180
1F00
0600
0C00
0C00
0780
0000
ENDCHAR
STARTCHAR uni01EB
ENCODING 491
SWIDTH 500 0
DWIDTH 11 0
BBX 11 22 0 -5
BITMAP
0000
0000
0000
0000
0000
0000
0000
1F00
3180
60C0
60C0
60C0
60C0
60C0
60C0
3180
1F00
0600
0C00
0C00
0780
0000
ENDCHAR
STARTCHAR uni01EC
ENCODING 492
SWIDTH 500 0
DWIDTH 11 0
BBX 11 22 0 -5
BITMAP
0000
3F80
0000
1F00
3180
60C0
60C0
60C0
60C0
60C0
60C0
60C0
60C0
60C0
60C0
3180
1F00
0600
0C00
0C00
0780
0000
ENDCHAR
STARTCHAR uni01ED
ENCODING 493
SWIDTH 500 0
DWIDTH 11 0
BBX 11 22 0 -5
BITMAP
0000
0000
0000
0000
0000
3F80
0000
1F00
3180
60C0
60C0
60C0
60C0
60C0
60C0
3180
1F00
0600
0C00
0C00
0780
0000
ENDCHAR
STARTCHAR uni01EE
ENCODING 494
SWIDTH 500 0
DWIDTH 11 0
BBX 11 22 0 -5
BITMAP
3180
1B00
0E00
0000
7FC0
00C0
0180
0300
0600
0F00
0180
00C0
00C0
00C0
60C0
3180
1F00
0000
0000
0000
0000
0000
ENDCHAR
STARTCHAR uni01EF
ENCODING 495
SWIDTH 500 0
DWIDTH 11 0
BBX 11 22 0 -5
BITMAP
0000
0000
0000
3180
1B00
0E00
0000
7FC0
00C0
0180
0300
0600
0F00
0180
00C0
00C0
00C0
00C0
60C0
3180
1F00
0000
ENDCHAR
STARTCHAR uni01F0
ENCODING 496
SWIDTH 500 0
DWIDTH 11 0
BBX 11 22 0 -5
BITMAP
0000
0000
0000
0C60
06C0
0380
0000
0780
0180
0180
0180
0180
0180
0180
0180
0180
0180
3180
3180
3180
1F00
0000
ENDCHAR
STARTCHAR uni01F4
ENCODING 500
SWIDTH 500 0
DWIDTH 11 0
BBX 11 22 0 -5
BITMAP
0300
0600
0C00
0000
1F00
3180
61C0
6000
6000
6000
67C0
60C0
60C0
60C0
60C0
3180
1F00
0000
0000
0000
0000
0000
ENDCHAR
STARTCHAR uni01F5
ENCODING 501
SWIDTH 500 0
DWIDTH 11 0
BBX 11 22 0 -5
BITMAP
0000
0000
0000
0180
0300
0600
0000
1FC0
30C0
60C0
60C0
60C0
60C0
60C0
60C0
30C0
1FC0
00C0
00C0
0180
3F00
0000
ENDCHAR
STARTCHAR AEacute
ENCODING 508
SWIDTH 500 0
DWIDTH 11 0
BBX 11 22 0 -5
BITMAP
0180
0300
0600
0000
3FE0
6600
C600
C600
C600
C600
FFE0
C600
C600
C600
C600
C600
C7E0
0000
0000
0000
0000
0000
ENDCHAR
STARTCHAR aeacute
ENCODING 509
SWIDTH 500 0
DWIDTH 11 0
BBX 11 22 0 -5
BITMAP
0000
0000
0000
0300
0600
0C00
0000
7B80
0CC0
0CC0
0CC0
7FC0
CC00
CC00
CC00
CCC0
7780
0000
0000
0000
0000
0000
ENDCHAR
STARTCHAR Oslashacute
ENCODING 510
SWIDTH 500 0
DWIDTH 11 0
BBX 11 22 0 -5
BITMAP
0300
0600
0C00
0000
1F00
3180
60E0
61C0
63C0
66C0
6CC0
78C0
70C0
60C0
E0C0
3180
1F00
0000
0000
0000
0000
0000
ENDCHAR
STARTCHAR oslashacute
ENCODING 511
SWIDTH 500 0
DWIDTH 11 0
BBX 11 22 0 -5
BITMAP
0000
0000
0000
0300
0600
0C00
0000
1F60
31C0
61C0
63C0
66C0
6CC0
78C0
70C0
7180
DF00
0000
0000
0000
0000
0000
ENDCHAR
STARTCHAR Scommaaccent
ENCODING 536
SWIDTH 500 0
DWIDTH 11 0
BBX 11 22 0 -5
BITMAP
0000
0000
0000
1F00
3180
60C0
6000
6000
3000
1F00
0180
00C0
00C0
00C0
60C0
3180
1F00
0000
0600
0600
0600
0C00
ENDCHAR
STARTCHAR scommaaccent
ENCODING 537
SWIDTH 500 0
DWIDTH 11 0
BBX 11 22 0 -5
BITMAP
0000
0000
0000
0000
0000
0000
0000
3F80
60C0
6000
6000
3F80
00C0
00C0
00C0
60C0
3F80
0000
0600
0600
0600
0C00
ENDCHAR
STARTCHAR Tcommaaccent
ENCODING 538
SWIDTH 500 0
DWIDTH 11 0
BBX 11 22 0 -5
BITMAP
0000
0000
0000
FFC0
0C00
0C00
0C00
0C00
0C00
0C00
0C00
0C00
0C00
0C00
0C00
0C00
0C00
0000
0C00
0C00
0C00
1800
ENDCHAR
STARTCHAR tcommaaccent
ENCODING 539
SWIDTH 500 0
DWIDTH 11 0
BBX 11 22 0 -5
BITMAP
0000
0000
0000
0C00
0C00
0C00
0C00
7F80
0C00
0C00
0C00
0C00
0C00
0C00
0C00
0C00
07C0
0000
0300
0300
0300
0600
ENDCHAR
STARTCHAR uni0232
ENCODING 562
SWIDTH 500 0
DWIDTH 11 0
BBX 11 22 0 -5
BITMAP
0000
3F80
0000
C0C0
C0C0
6180
6180
3300
3300
1E00
1E00
0C00
0C00
0C00
0C00
0C00
0C00
0000
0000
0000
0000
0000
ENDCHAR
STARTCHAR uni0233
ENCODING 563
SWIDTH 500 0
DWIDTH 11 0
BBX 11 22 0 -5
BITMAP
0000
0000
0000
0000
0000
3F80
0000
60C0
60C0
60C0
60C0
60C0
60C0
60C0
60C0
30C0
1FC0
00C0
00C0
0180
3F00
0000
ENDCHAR
STARTCHAR dotlessj
ENCODING 567
SWIDTH 500 0
DWIDTH 11 0
BBX 11 22 0 -5
BITMAP
0000
0000
0000
0000
0000
0000
0000
0780
0180
0180
0180
0180
0180
0180
0180
0180
0180
3180
3180
3180
1F00
0000
ENDCHAR
STARTCHAR uni0254
ENCODING 596
SWIDTH 500 0
DWIDTH 11 0
BBX 11 22 0 -5
BITMAP
0000
0000
0000
0000
0000
0000
0000
1F00
3180
60C0
00C0
00C0
00C0
00C0
60C0
3180
1F00
0000
0000
0000
0000
0000
ENDCHAR
STARTCHAR uni0258
ENCODING 600
SWIDTH 500 0
DWIDTH 11 0
BBX 11 22 0 -5
BITMAP
0000
0000
0000
0000
0000
0000
0000
1F00
3180
60C0
60C0
7FC0
00C0
00C0
00C0
6180
3F00
0000
0000
0000
0000
0000
ENDCHAR
STARTCHAR schwa
ENCODING 601
SWIDTH 500 0
DWIDTH 11 0
BBX 11 22 0 -5
BITMAP
0000
0000
0000
0000
0000
0000
0000
3F00
6180
00C0
00C0
00C0
7FC0
60C0
60C0
3180
1F00
0000
0000
0000
0000
0000
ENDCHAR
STARTCHAR uni025B
ENCODING 603
SWIDTH 500 0
DWIDTH 11 0
BBX 11 22 0 -5
BITMAP
0000
0000
0000
0000
0000
0000
0000
3F80
60C0
6000
6000
3E00
6000
6000
6000
60C0
3F80
0000
0000
0000
0000
0000
ENDCHAR
STARTCHAR uni0272
ENCODING 626
SWIDTH 500 0
DWIDTH 11 0
BBX 11 22 0 -5
BITMAP
0000
0000
0000
0000
0000
0000
0000
7F00
6180
60C0
60C0
60C0
60C0
60C0
60C0
60C0
60C0
6000
6000
6000
C000
0000
ENDCHAR
STARTCHAR ezh
ENCODING 658
SWIDTH 500 0
DWIDTH 11 0
BBX 11 22 0 -5
BITMAP
0000
0000
0000
0000
0000
0000
0000
7FC0
00C0
0180
0300
0600
0F00
0180
00C0
00C0
00C0
00C0
60C0
3180
1F00
0000
ENDCHAR
STARTCHAR commaturnedmod
ENCODING 699
SWIDTH 500 0
DWIDTH 11 0
BBX 11 22 0 -5
BITMAP
0600
0C00
0C00
0000
0000
0000
0000
0000
0000
0000
0000
0000
0000
0000
0000
0000
0000
0000
0000
0000
0000
0000
ENDCHAR
STARTCHAR afii57929
ENCODING 700
SWIDTH 500 0
DWIDTH 11 0
BBX 11 22 0 -5
BITMAP
0C00
0C00
1800
0000
0000
0000
0000
0000
0000
0000
0000
0000
0000
0000
0000
0000
0000
0000
0000
0000
0000
0000
ENDCHAR
STARTCHAR afii64937
ENCODING 701
SWIDTH 500 0
DWIDTH 11 0
BBX 11 22 0 -5
BITMAP
0C00
0C00
0600
0000
0000
0000
0000
0000
0000
0000
0000
0000
0000
0000
0000
0000
0000
0000
0000
0000
0000
0000
ENDCHAR
STARTCHAR circumflex
ENCODING 710
SWIDTH 500 0
DWIDTH 11 0
BBX 11 22 0 -5
BITMAP
0E00
1B00
3180
0000
0000
0000
0000
0000
0000
0000
0000
0000
0000
0000
0000
0000
0000
0000
0000
0000
0000
0000
ENDCHAR
STARTCHAR caron
ENCODING 711
SWIDTH 500 0
DWIDTH 11 0
BBX 11 22 0 -5
BITMAP
3180
1B00
0E00
0000
0000
0000
0000
0000
0000
0000
0000
0000
0000
0000
0000
0000
0000
0000
0000
0000
0000
0000
ENDCHAR
STARTCHAR breve
ENCODING 728
SWIDTH 500 0
DWIDTH 11 0
BBX 11 22 0 -5
BITMAP
3180
3180
1F00
0000
0000
0000
0000
0000
0000
0000
0000
0000
0000
0000
0000
0000
0000
0000
0000
0000
0000
0000
ENDCHAR
STARTCHAR dotaccent
ENCODING 729
SWIDTH 500 0
DWIDTH 11 0
BBX 11 22 0 -5
BITMAP
0C00
0C00
0C00
0000
0000
0000
0000
0000
0000
0000
0000
0000
0000
0000
0000
0000
0000
0000
0000
0000
0000
0000
ENDCHAR
STARTCHAR ogonek
ENCODING 731
SWIDTH 500 0
DWIDTH 11 0
BBX 11 22 0 -5
BITMAP
0000
0000
0000
0000
0000
0000
0000
0000
0000
0000
0000
0000
0000
0000
0000
0000
0000
0600
0C00
0C00
0780
0000
ENDCHAR
STARTCHAR tilde
ENCODING 732
SWIDTH 500 0
DWIDTH 11 0
BBX 11 22 0 -5
BITMAP
1CC0
36C0
3380
0000
0000
0000
0000
0000
0000
0000
0000
0000
0000
0000
0000
0000
0000
0000
0000
0000
0000
0000
ENDCHAR
STARTCHAR hungarumlaut
ENCODING 733
SWIDTH 500 0
DWIDTH 11 0
BBX 11 22 0 -5
BITMAP
0660
0CC0
1980
0000
0000
0000
0000
0000
0000
0000
0000
0000
0000
0000
0000
0000
0000
0000
0000
0000
0000
0000
ENDCHAR
STARTCHAR gravecomb
ENCODING 768
SWIDTH 500 0
DWIDTH 11 0
BBX 11 22 0 -5
BITMAP
1800
0C00
0600
0000
0000
0000
0000
0000
0000
0000
0000
0000
0000
0000
0000
0000
0000
0000
0000
0000
0000
0000
ENDCHAR
STARTCHAR acutecomb
ENCODING 769
SWIDTH 500 0
DWIDTH 11 0
BBX 11 22 0 -5
BITMAP
0300
0600
0C00
0000
0000
0000
0000
0000
0000
0000
0000
0000
0000
0000
0000
0000
0000
0000
0000
0000
0000
0000
ENDCHAR
STARTCHAR uni0302
ENCODING 770
SWIDTH 500 0
DWIDTH 11 0
BBX 11 22 0 -5
BITMAP
0E00
1B00
3180
0000
0000
0000
0000
0000
0000
0000
0000
0000
0000
0000
0000
0000
0000
0000
0000
0000
0000
0000
ENDCHAR
STARTCHAR tildecomb
ENCODING 771
SWIDTH 500 0
DWIDTH 11 0
BBX 11 22 0 -5
BITMAP
1CC0
36C0
3380
0000
0000
0000
0000
0000
0000
0000
0000
0000
0000
0000
0000
0000
0000
0000
0000
0000
0000
0000
ENDCHAR
STARTCHAR uni0304
ENCODING 772
SWIDTH 500 0
DWIDTH 11 0
BBX 11 22 0 -5
BITMAP
0000
3F80
0000
0000
0000
0000
0000
0000
0000
0000
0000
0000
0000
0000
0000
0000
0000
0000
0000
0000
0000
0000
ENDCHAR
STARTCHAR uni0305
ENCODING 773
SWIDTH 500 0
DWIDTH 11 0
BBX 11 22 0 -5
BITMAP
0000
7FC0
0000
0000
0000
0000
0000
0000
0000
0000
0000
0000
0000
0000
0000
0000
0000
0000
0000
0000
0000
0000
ENDCHAR
STARTCHAR uni0306
ENCODING 774
SWIDTH 500 0
DWIDTH 11 0
BBX 11 22 0 -5
BITMAP
3180
3180
1F00
0000
0000
0000
0000
0000
0000
0000
0000
0000
0000
0000
0000
0000
0000
0000
0000
0000
0000
0000
ENDCHAR
STARTCHAR uni0307
ENCODING 775
SWIDTH 500 0
DWIDTH 11 0
BBX 11 22 0 -5
BITMAP
0C00
0C00
0C00
0000
0000
0000
0000
0000
0000
0000
0000
0000
0000
0000
0000
0000
0000
0000
0000
0000
0000
0000
ENDCHAR
STARTCHAR uni0308
ENCODING 776
SWIDTH 500 0
DWIDTH 11 0
BBX 11 22 0 -5
BITMAP
3180
3180
3180
0000
0000
0000
0000
0000
0000
0000
0000
0000
0000
0000
0000
0000
0000
0000
0000
0000
0000
0000
ENDCHAR
STARTCHAR uni030A
ENCODING 778
SWIDTH 500 0
DWIDTH 11 0
BBX 11 22 0 -5
BITMAP
0E00
1B00
1B00
0E00
0000
0000
0000
0000
0000
0000
0000
0000
0000
0000
0000
0000
0000
0000
0000
0000
0000
0000
ENDCHAR
STARTCHAR uni030B
ENCODING 779
SWIDTH 500 0
DWIDTH 11 0
BBX 11 22 0 -5
BITMAP
0660
0CC0
1980
0000
0000
0000
0000
0000
0000
0000
0000
0000
0000
0000
0000
0000
0000
0000
0000
0000
0000
0000
ENDCHAR
STARTCHAR uni030C
ENCODING 780
SWIDTH 500 0
DWIDTH 11 0
BBX 11 22 0 -5
BITMAP
3180
1B00
0E00
0000
0000
0000
0000
0000
0000
0000
0000
0000
0000
0000
0000
0000
0000
0000
0000
0000
0000
0000
ENDCHAR
STARTCHAR uni0329
ENCODING 809
SWIDTH 500 0
DWIDTH 11 0
BBX 11 22 0 -5
BITMAP
0000
0000
0000
0000
0000
0000
0000
0000
0000
0000
0000
0000
0000
0000
0000
0000
0000
0000
0C00
0C00
0C00
0000
ENDCHAR
STARTCHAR tonos
ENCODING 900
SWIDTH 500 0
DWIDTH 11 0
BBX 11 22 0 -5
BITMAP
3000
6000
C000
0000
0000
0000
0000
0000
0000
0000
0000
0000
0000
0000
0000
0000
0000
0000
0000
0000
0000
0000
ENDCHAR
STARTCHAR dieresistonos
ENCODING 901
SWIDTH 500 0
DWIDTH 11 0
BBX 11 22 0 -5
BITMAP
0300
0600
0C00
3180
3180
3180
0000
0000
0000
0000
0000
0000
0000
0000
0000
0000
0000
0000
0000
0000
0000
0000
ENDCHAR
STARTCHAR Alphatonos
ENCODING 902
SWIDTH 500 0
DWIDTH 11 0
BBX 11 22 0 -5
BITMAP
3000
6000
C000
1F00
3180
60C0
60C0
60C0
60C0
60C0
7FC0
60C0
60C0
60C0
60C0
60C0
60C0
0000
0000
0000
0000
0000
ENDCHAR
STARTCHAR anoteleia
ENCODING 903
SWIDTH 500 0
DWIDTH 11 0
BBX 11 22 0 -5
BITMAP
0000
0000
0000
0000
0000
0000
0C00
0C00
0C00
0000
0000
0000
0000
0000
0000
0000
0000
0000
0000
0000
0000
0000
ENDCHAR
STARTCHAR Epsilontonos
ENCODING 904
SWIDTH 500 0
DWIDTH 11 0
BBX 11 22 0 -5
BITMAP
3000
6000
C000
7FC0
6000
6000
6000
6000
6000
7F00
6000
6000
6000
6000
6000
6000
7FC0
0000
0000
0000
0000
0000
ENDCHAR
STARTCHAR Etatonos
ENCODING 905
SWIDTH 500 0
DWIDTH 11 0
BBX 11 22 0 -5
BITMAP
3000
6000
C000
60C0
60C0
60C0
60C0
60C0
60C0
7FC0
60C0
60C0
60C0
60C0
60C0
60C0
60C0
0000
0000
0000
0000
0000
ENDCHAR
STARTCHAR Iotatonos
ENCODING 906
SWIDTH 500 0
DWIDTH 11 0
BBX 11 22 0 -5
BITMAP
3000
6000
C000
3F00
0C00
0C00
0C00
0C00
0C00
0C00
0C00
0C00
0C00
0C00
0C00
0C00
3F00
0000
0000
0000
0000
0000
ENDCHAR
STARTCHAR Omicrontonos
ENCODING 908
SWIDTH 500 0
DWIDTH 11 0
BBX 11 22 0 -5
BITMAP
3000
6000
C000
1F00
3180
60C0
60C0
60C0
60C0
60C0
60C0
60C0
60C0
60C0
60C0
3180
1F00
0000
0000
0000
0000
0000
ENDCHAR
STARTCHAR Upsilontonos
ENCODING 910
SWIDTH 500 0
DWIDTH 11 0
BBX 11 22 0 -5
BITMAP
3000
6000
C000
0000
C0C0
C0C0
6180
6180
3300
3300
1E00
0C00
0C00
0C00
0C00
0C00
0C00
0000
0000
0000
0000
0000
ENDCHAR
STARTCHAR Omegatonos
ENCODING 911
SWIDTH 500 0
DWIDTH 11 0
BBX 11 22 0 -5
BITMAP
3000
6000
C000
1F00
3180
60C0
60C0
60C0
60C0
60C0
60C0
60C0
60C0
3180
1B00
1B00
7BC0
0000
0000
0000
0000
0000
ENDCHAR
STARTCHAR iotadieresistonos
ENCODING 912
SWIDTH 500 0
DWIDTH 11 0
BBX 11 22 0 -5
BITMAP
0300
0600
0C00
6300
6300
6300
0000
3C00
0C00
0C00
0C00
0C00
0C00
0C00
0C00
0C00
0780
0000
0000
0000
0000
0000
ENDCHAR
STARTCHAR Alpha
ENCODING 913
SWIDTH 500 0
DWIDTH 11 0
BBX 11 22 0 -5
BITMAP
0000
0000
0000
1F00
3180
60C0
60C0
60C0
60C0
60C0
7FC0
60C0
60C0
60C0
60C0
60C0
60C0
0000
0000
0000
0000
0000
ENDCHAR
STARTCHAR Beta
ENCODING 914
SWIDTH 500 0
DWIDTH 11 0
BBX 11 22 0 -5
BITMAP
0000
0000
0000
7F00
6180
60C0
60C0
60C0
6180
7F00
6180
60C0
60C0
60C0
60C0
6180
7F00
0000
0000
0000
0000
0000
ENDCHAR
STARTCHAR Gamma
ENCODING 915
SWIDTH 500 0
DWIDTH 11 0
BBX 11 22 0 -5
BITMAP
0000
0000
0000
7FC0
6000
6000
6000
6000
6000
6000
6000
6000
6000
6000
6000
6000
6000
0000
0000
0000
0000
0000
ENDCHAR
STARTCHAR Delta
ENCODING 916
SWIDTH 500 0
DWIDTH 11 0
BBX 11 22 0 -5
BITMAP
0000
0000
0000
0C00
0C00
0C00
1E00
1E00
3300
3300
3300
6180
6180
6180
C0C0
C0C0
FFC0
0000
0000
0000
0000
0000
ENDCHAR
STARTCHAR Epsilon
ENCODING 917
SWIDTH 500 0
DWIDTH 11 0
BBX 11 22 0 -5
BITMAP
0000
0000
0000
7FC0
6000
6000
6000
6000
6000
7F00
6000
6000
6000
6000
6000
6000
7FC0
0000
0000
0000
0000
0000
ENDCHAR
STARTCHAR Zeta
ENCODING 918
SWIDTH 500 0
DWIDTH 11 0
BBX 11 22 0 -5
BITMAP
0000
0000
0000
7FC0
00C0
00C0
00C0
0180
0300
0600
0C00
1800
3000
6000
6000
6000
7FC0
0000
0000
0000
0000
0000
ENDCHAR
STARTCHAR Eta
ENCODING 919
SWIDTH 500 0
DWIDTH 11 0
BBX 11 22 0 -5
BITMAP
0000
0000
0000
60C0
60C0
60C0
60C0
60C0
60C0
7FC0
60C0
60C0
60C0
60C0
60C0
60C0
60C0
0000
0000
0000
0000
0000
ENDCHAR
STARTCHAR Theta
ENCODING 920
SWIDTH 500 0
DWIDTH 11 0
BBX 11 22 0 -5
BITMAP
0000
0000
0000
1F00
3180
60C0
60C0
60C0
60C0
6EC0
60C0
60C0
60C0
60C0
60C0
3180
1F00
0000
0000
0000
0000
0000
ENDCHAR
STARTCHAR Iota
ENCODING 921
SWIDTH 500 0
DWIDTH 11 0
BBX 11 22 0 -5
BITMAP
0000
0000
0000
3F00
0C00
0C00
0C00
0C00
0C00
0C00
0C00
0C00
0C00
0C00
0C00
0C00
3F00
0000
0000
0000
0000
0000
ENDCHAR
STARTCHAR Kappa
ENCODING 922
SWIDTH 500 0
DWIDTH 11 0
BBX 11 22 0 -5
BITMAP
0000
0000
0000
60C0
60C0
6180
6300
6600
6C00
7800
7800
6C00
6600
6300
6180
60C0
60C0
0000
0000
0000
0000
0000
ENDCHAR
STARTCHAR Lambda
ENCODING 923
SWIDTH 500 0
DWIDTH 11 0
BBX 11 22 0 -5
BITMAP
0000
0000
0000
0C00
0C00
0C00
1E00
1E00
3300
3300
3300
6180
6180
6180
C0C0
C0C0
C0C0
0000
0000
0000
0000
0000
ENDCHAR
STARTCHAR Mu
ENCODING 924
SWIDTH 500 0
DWIDTH 11 0
BBX 11 22 0 -5
BITMAP
0000
0000
0000
8040
C0C0
E1C0
F3C0
DEC0
CCC0
C0C0
C0C0
C0C0
C0C0
C0C0
C0C0
C0C0
C0C0
0000
0000
0000
0000
0000
ENDCHAR
STARTCHAR Nu
ENCODING 925
SWIDTH 500 0
DWIDTH 11 0
BBX 11 22 0 -5
BITMAP
0000
0000
0000
60C0
60C0
60C0
60C0
70C0
78C0
6CC0
66C0
63C0
61C0
60C0
60C0
60C0
60C0
0000
0000
0000
0000
0000
ENDCHAR
STARTCHAR Xi
ENCODING 926
SWIDTH 500 0
DWIDTH 11 0
BBX 11 22 0 -5
BITMAP
0000
0000
0000
7FC0
0000
0000
0000
0000
0000
3F80
0000
0000
0000
0000
0000
0000
7FC0
0000
0000
0000
0000
0000
ENDCHAR
STARTCHAR Omicron
ENCODING 927
SWIDTH 500 0
DWIDTH 11 0
BBX 11 22 0 -5
BITMAP
0000
0000
0000
1F00
3180
60C0
60C0
60C0
60C0
60C0
60C0
60C0
60C0
60C0
60C0
3180
1F00
0000
0000
0000
0000
0000
ENDCHAR
STARTCHAR Pi
ENCODING 928
SWIDTH 500 0
DWIDTH 11 0
BBX 11 22 0 -5
BITMAP
0000
0000
0000
7FC0
60C0
60C0
60C0
60C0
60C0
60C0
60C0
60C0
60C0
60C0
60C0
60C0
60C0
0000
0000
0000
0000
0000
ENDCHAR
STARTCHAR Rho
ENCODING 929
SWIDTH 500 0
DWIDTH 11 0
BBX 11 22 0 -5
BITMAP
0000
0000
0000
7F00
6180
60C0
60C0
60C0
60C0
6180
7F00
6000
6000
6000
6000
6000
6000
0000
0000
0000
0000
0000
ENDCHAR
STARTCHAR Sigma
ENCODING 931
SWIDTH 500 0
DWIDTH 11 0
BBX 11 22 0 -5
BITMAP
0000
0000
0000
7FC0
6000
3000
1800
0C00
0600
0300
0300
0600
0C00
1800
3000
6000
7FC0
0000
0000
0000
0000
0000
ENDCHAR
STARTCHAR Tau
ENCODING 932
SWIDTH 500 0
DWIDTH 11 0
BBX 11 22 0 -5
BITMAP
0000
0000
0000
FFC0
0C00
0C00
0C00
0C00
0C00
0C00
0C00
0C00
0C00
0C00
0C00
0C00
0C00
0000
0000
0000
0000
0000
ENDCHAR
STARTCHAR Upsilon
ENCODING 933
SWIDTH 500 0
DWIDTH 11 0
BBX 11 22 0 -5
BITMAP
0000
0000
0000
C0C0
C0C0
6180
6180
3300
3300
1E00
1E00
0C00
0C00
0C00
0C00
0C00
0C00
0000
0000
0000
0000
0000
ENDCHAR
STARTCHAR Phi
ENCODING 934
SWIDTH 500 0
DWIDTH 11 0
BBX 11 22 0 -5
BITMAP
0000
0000
0000
0C00
3F00
6D80
CCC0
CCC0
CCC0
CCC0
CCC0
CCC0
CCC0
CCC0
6D80
3F00
0C00
0000
0000
0000
0000
0000
ENDCHAR
STARTCHAR Chi
ENCODING 935
SWIDTH 500 0
DWIDTH 11 0
BBX 11 22 0 -5
BITMAP
0000
0000
0000
60C0
60C0
3180
3180
1B00
1B00
0E00
0E00
1B00
1B00
3180
3180
60C0
60C0
0000
0000
0000
0000
0000
ENDCHAR
STARTCHAR Psi
ENCODING 936
SWIDTH 500 0
DWIDTH 11 0
BBX 11 22 0 -5
BITMAP
0000
0000
0000
CCC0
CCC0
CCC0
CCC0
CCC0
CCC0
CCC0
CCC0
CCC0
6D80
3F00
0C00
0C00
0C00
0000
0000
0000
0000
0000
ENDCHAR
STARTCHAR Omega
ENCODING 937
SWIDTH 500 0
DWIDTH 11 0
BBX 11 22 0 -5
BITMAP
0000
0000
0000
1F00
3180
60C0
60C0
60C0
60C0
60C0
60C0
60C0
60C0
3180
1B00
1B00
7BC0
0000
0000
0000
0000
0000
ENDCHAR
STARTCHAR Iotadieresis
ENCODING 938
SWIDTH 500 0
DWIDTH 11 0
BBX 11 22 0 -5
BITMAP
3180
3180
3180
0000
3F00
0C00
0C00
0C00
0C00
0C00
0C00
0C00
0C00
0C00
0C00
0C00
3F00
0000
0000
0000
0000
0000
ENDCHAR
STARTCHAR Upsilondieresis
ENCODING 939
SWIDTH 500 0
DWIDTH 11 0
BBX 11 22 0 -5
BITMAP
3180
3180
3180
0000
C0C0
C0C0
6180
6180
3300
3300
1E00
0C00
0C00
0C00
0C00
0C00
0C00
0000
0000
0000
0000
0000
ENDCHAR
STARTCHAR alphatonos
ENCODING 940
SWIDTH 500 0
DWIDTH 11 0
BBX 11 22 0 -5
BITMAP
0000
0000
0000
0300
0600
0C00
0000
3CC0
6780
C300
C300
C300
C300
C300
C300
6780
3CC0
0000
0000
0000
0000
0000
ENDCHAR
STARTCHAR epsilontonos
ENCODING 941
SWIDTH 500 0
DWIDTH 11 0
BBX 11 22 0 -5
BITMAP
0000
0000
0000
0300
0600
0C00
0000
3F80
60C0
6000
6000
3E00
6000
6000
6000
60C0
3F80
0000
0000
0000
0000
0000
ENDCHAR
STARTCHAR etatonos
ENCODING 942
SWIDTH 500 0
DWIDTH 11 0
BBX 11 22 0 -5
BITMAP
0000
0000
0000
0300
0600
0C00
0000
7F00
6180
60C0
60C0
60C0
60C0
60C0
60C0
60C0
60C0
00C0
00C0
00C0
00C0
0000
ENDCHAR
STARTCHAR iotatonos
ENCODING 943
SWIDTH 500 0
DWIDTH 11 0
BBX 11 22 0 -5
BITMAP
0000
0000
0000
0300
0600
0C00
0000
3C00
0C00
0C00
0C00
0C00
0C00
0C00
0C00
0C00
0780
0000
0000
0000
0000
0000
ENDCHAR
STARTCHAR upsilondieresistonos
ENCODING 944
SWIDTH 500 0
DWIDTH 11 0
BBX 11 22 0 -5
BITMAP
0300
0600
0C00
3180
3180
3180
0000
60C0
60C0
60C0
60C0
60C0
60C0
60C0
60C0
3180
1F00
0000
0000
0000
0000
0000
ENDCHAR
STARTCHAR alpha
ENCODING 945
SWIDTH 500 0
DWIDTH 11 0
BBX 11 22 0 -5
BITMAP
0000
0000
0000
0000
0000
0000
0000
3CC0
6780
C300
C300
C300
C300
C300
C300
6780
3CC0
0000
0000
0000
0000
0000
ENDCHAR
STARTCHAR beta
ENCODING 946
SWIDTH 500 0
DWIDTH 11 0
BBX 11 22 0 -5
BITMAP
0000
0000
0000
3E00
6300
6180
6180
6180
6300
7F00
6180
60C0
60C0
60C0
60C0
6180
7F00
6000
6000
6000
6000
0000
ENDCHAR
STARTCHAR gamma
ENCODING 947
SWIDTH 500 0
DWIDTH 11 0
BBX 11 22 0 -5
BITMAP
0000
0000
0000
0000
0000
0000
0000
C0C0
C0C0
C0C0
6180
6180
3300
3300
1E00
1E00
0C00
0C00
0C00
0C00
0C00
0000
ENDCHAR
STARTCHAR delta
ENCODING 948
SWIDTH 500 0
DWIDTH 11 0
BBX 11 22 0 -5
BITMAP
0000
0000
0000
3F80
1800
0C00
0600
1F00
3180
60C0
60C0
60C0
60C0
60C0
60C0
3180
1F00
0000
0000
0000
0000
0000
ENDCHAR
STARTCHAR epsilon
ENCODING 949
SWIDTH 500 0
DWIDTH 11 0
BBX 11 22 0 -5
BITMAP
0000
0000
0000
0000
0000
0000
0000
3F80
60C0
6000
6000
3E00
6000
6000
6000
60C0
3F80
0000
0000
0000
0000
0000
ENDCHAR
STARTCHAR zeta
ENCODING 950
SWIDTH 500 0
DWIDTH 11 0
BBX 11 22 0 -5
BITMAP
0000
0000
0000
7FC0
0180
0300
0600
0C00
1800
3000
3000
6000
6000
6000
6000
3000
1F80
00C0
00C0
00C0
0380
0000
ENDCHAR
STARTCHAR eta
ENCODING 951
SWIDTH 500 0
DWIDTH 11 0
BBX 11 22 0 -5
BITMAP
0000
0000
0000
0000
0000
0000
0000
7F00
6180
60C0
60C0
60C0
60C0
60C0
60C0
60C0
60C0
00C0
00C0
00C0
00C0
0000
ENDCHAR
STARTCHAR theta
ENCODING 952
SWIDTH 500 0
DWIDTH 11 0
BBX 11 22 0 -5
BITMAP
0000
0000
0000
1E00
3300
6180
6180
6180
6180
7F80
6180
6180
6180
6180
6180
3300
1E00
0000
0000
0000
0000
0000
ENDCHAR
STARTCHAR iota
ENCODING 953
SWIDTH 500 0
DWIDTH 11 0
BBX 11 22 0 -5
BITMAP
0000
0000
0000
0000
0000
0000
0000
3C00
0C00
0C00
0C00
0C00
0C00
0C00
0C00
0C00
0780
0000
0000
0000
0000
0000
ENDCHAR
STARTCHAR kappa
ENCODING 954
SWIDTH 500 0
DWIDTH 11 0
BBX 11 22 0 -5
BITMAP
0000
0000
0000
0000
0000
0000
0000
30C0
3180
3300
3600
3C00
3C00
3600
3300
3180
30C0
0000
0000
0000
0000
0000
ENDCHAR
STARTCHAR lambda
ENCODING 955
SWIDTH 500 0
DWIDTH 11 0
BBX 11 22 0 -5
BITMAP
0000
0000
0000
1800
1800
0C00
0C00
0E00
0E00
1B00
1B00
3180
3180
3180
60C0
60C0
60C0
0000
0000
0000
0000
0000
ENDCHAR
STARTCHAR mugreek
ENCODING 956
SWIDTH 500 0
DWIDTH 11 0
BBX 11 22 0 -5
BITMAP
0000
0000
0000
0000
0000
0000
0000
60C0
60C0
60C0
60C0
60C0
60C0
60C0
61C0
63C0
7EC0
6000
6000
6000
6000
0000
ENDCHAR
STARTCHAR nu
ENCODING 957
SWIDTH 500 0
DWIDTH 11 0
BBX 11 22 0 -5
BITMAP
0000
0000
0000
0000
0000
0000
0000
60C0
60C0
60C0
3180
3180
3180
1B00
1B00
0E00
0E00
0000
0000
0000
0000
0000
ENDCHAR
STARTCHAR xi
ENCODING 958
SWIDTH 500 0
DWIDTH 11 0
BBX 11 22 0 -5
BITMAP
0000
0000
0000
1FC0
3000
6000
6000
6000
3000
1F80
3000
6000
6000
6000
6000
3000
1F80
00C0
00C0
00C0
0380
0000
ENDCHAR
STARTCHAR omicron
ENCODING 959
SWIDTH 500 0
DWIDTH 11 0
BBX 11 22 0 -5
BITMAP
0000
0000
0000
0000
0000
0000
0000
1F00
3180
60C0
60C0
60C0
60C0
60C0
60C0
3180
1F00
0000
0000
0000
0000
0000
ENDCHAR
STARTCHAR pi
ENCODING 960
SWIDTH 500 0
DWIDTH 11 0
BBX 11 22 0 -5
BITMAP
0000
0000
0000
0000
0000
0000
0000
7FC0
60C0
60C0
60C0
60C0
60C0
60C0
60C0
60C0
60C0
0000
0000
0000
0000
0000
ENDCHAR
STARTCHAR rho
ENCODING 961
SWIDTH 500 0
DWIDTH 11 0
BBX 11 22 0 -5
BITMAP
0000
0000
0000
0000
0000
0000
0000
1F00
3180
60C0
60C0
60C0
60C0
60C0
60C0
6180
7F00
6000
6000
6000
6000
0000
ENDCHAR
STARTCHAR sigma1
ENCODING 962
SWIDTH 500 0
DWIDTH 11 0
BBX 11 22 0 -5
BITMAP
0000
0000
0000
0000
0000
0000
0000
1F00
3180
60C0
6000
6000
6000
6000
6000
3000
1F80
00C0
00C0
00C0
0380
0000
ENDCHAR
STARTCHAR sigma
ENCODING 963
SWIDTH 500 0
DWIDTH 11 0
BBX 11 22 0 -5
BITMAP
0000
0000
0000
0000
0000
0000
0000
1FE0
3300
6180
60C0
60C0
60C0
60C0
60C0
3180
1F00
0000
0000
0000
0000
0000
ENDCHAR
STARTCHAR tau
ENCODING 964
SWIDTH 500 0
DWIDTH 11 0
BBX 11 22 0 -5
BITMAP
0000
0000
0000
0000
0000
0000
0000
FFC0
0C00
0C00
0C00
0C00
0C00
0C00
0C00
0C00
0780
0000
0000
0000
0000
0000
ENDCHAR
STARTCHAR upsilon
ENCODING 965
SWIDTH 500 0
DWIDTH 11 0
BBX 11 22 0 -5
BITMAP
0000
0000
0000
0000
0000
0000
0000
60C0
60C0
60C0
60C0
60C0
60C0
60C0
60C0
3180
1F00
0000
0000
0000
0000
0000
ENDCHAR
STARTCHAR phi
ENCODING 966
SWIDTH 500 0
DWIDTH 11 0
BBX 11 22 0 -5
BITMAP
0000
0000
0000
0000
0000
0000
0000
6780
CCC0
CCC0
CCC0
CCC0
CCC0
CCC0
CCC0
6D80
3F00
0C00
0C00
0C00
0C00
0000
ENDCHAR
STARTCHAR chi
ENCODING 967
SWIDTH 500 0
DWIDTH 11 0
BBX 11 22 0 -5
BITMAP
0000
0000
0000
0000
0000
0000
0000
60C0
60C0
3180
3180
1B00
1B00
0E00
0E00
1B00
1B00
3180
3180
60C0
60C0
0000
ENDCHAR
STARTCHAR psi
ENCODING 968
SWIDTH 500 0
DWIDTH 11 0
BBX 11 22 0 -5
BITMAP
0000
0000
0000
0000
0000
0000
0000
CCC0
CCC0
CCC0
CCC0
CCC0
CCC0
CCC0
CCC0
6D80
3F00
0C00
0C00
0C00
0C00
0000
ENDCHAR
STARTCHAR omega
ENCODING 969
SWIDTH 500 0
DWIDTH 11 0
BBX 11 22 0 -5
BITMAP
0000
0000
0000
0000
0000
0000
0000
6180
C0C0
C0C0
CCC0
CCC0
CCC0
CCC0
CCC0
DEC0
7380
0000
0000
0000
0000
0000
ENDCHAR
STARTCHAR iotadieresis
ENCODING 970
SWIDTH 500 0
DWIDTH 11 0
BBX 11 22 0 -5
BITMAP
0000
0000
0000
6300
6300
6300
0000
3C00
0C00
0C00
0C00
0C00
0C00
0C00
0C00
0C00
0780
0000
0000
0000
0000
0000
ENDCHAR
STARTCHAR upsilondieresis
ENCODING 971
SWIDTH 500 0
DWIDTH 11 0
BBX 11 22 0 -5
BITMAP
0000
0000
0000
3180
3180
3180
0000
60C0
60C0
60C0
60C0
60C0
60C0
60C0
60C0
3180
1F00
0000
0000
0000
0000
0000
ENDCHAR
STARTCHAR omicrontonos
ENCODING 972
SWIDTH 500 0
DWIDTH 11 0
BBX 11 22 0 -5
BITMAP
0000
0000
0000
0300
0600
0C00
0000
1F00
3180
60C0
60C0
60C0
60C0
60C0
60C0
3180
1F00
0000
0000
0000
0000
0000
ENDCHAR
STARTCHAR upsilontonos
ENCODING 973
SWIDTH 500 0
DWIDTH 11 0
BBX 11 22 0 -5
BITMAP
0000
0000
0000
0300
0600
0C00
0000
60C0
60C0
60C0
60C0
60C0
60C0
60C0
60C0
3180
1F00
0000
0000
0000
0000
0000
ENDCHAR
STARTCHAR omegatonos
ENCODING 974
SWIDTH 500 0
DWIDTH 11 0
BBX 11 22 0 -5
BITMAP
0000
0000
0000
0300
0600
0C00
0000
6180
C0C0
C0C0
CCC0
CCC0
CCC0
CCC0
CCC0
DEC0
7380
0000
0000
0000
0000
0000
ENDCHAR
STARTCHAR theta1
ENCODING 977
SWIDTH 500 0
DWIDTH 11 0
BBX 11 22 0 -5
BITMAP
0000
0000
0000
0F00
1980
30C0
30C0
30C0
18C0
0FE0
00C0
70C0
30C0
30C0
30C0
1980
0F00
0000
0000
0000
0000
0000
ENDCHAR
STARTCHAR phi1
ENCODING 981
SWIDTH 500 0
DWIDTH 11 0
BBX 11 22 0 -5
BITMAP
0000
0000
0000
0000
0000
0C00
0C00
3F00
6D80
CCC0
CCC0
CCC0
CCC0
CCC0
CCC0
6D80
3F00
0C00
0C00
0000
0000
0000
ENDCHAR
STARTCHAR uni03F0
ENCODING 1008
SWIDTH 500 0
DWIDTH 11 0
BBX 11 22 0 -5
BITMAP
0000
0000
0000
0000
0000
0000
0000
F0C0
1980
0B00
0E00
0C00
0C00
1C00
3400
6600
C3C0
0000
0000
0000
0000
0000
ENDCHAR
STARTCHAR uni03F1
ENCODING 1009
SWIDTH 500 0
DWIDTH 11 0
BBX 11 22 0 -5
BITMAP
0000
0000
0000
0000
0000
0000
0000
1F00
3180
60C0
60C0
60C0
60C0
60C0
60C0
6180
7F00
6000
6000
3000
1F80
0000
ENDCHAR
STARTCHAR uni03F2
ENCODING 1010
SWIDTH 500 0
DWIDTH 11 0
BBX 11 22 0 -5
BITMAP
0000
0000
0000
0000
0000
0000
0000
1F00
3180
60C0
6000
6000
6000
6000
60C0
3180
1F00
0000
0000
0000
0000
0000
ENDCHAR
STARTCHAR uni03F3
ENCODING 1011
SWIDTH 500 0
DWIDTH 11 0
BBX 11 22 0 -5
BITMAP
0000
0000
0000
0180
0180
0180
0000
0780
0180
0180
0180
0180
0180
0180
0180
0180
0180
3180
3180
3180
1F00
0000
ENDCHAR
STARTCHAR uni03F4
ENCODING 1012
SWIDTH 500 0
DWIDTH 11 0
BBX 11 22 0 -5
BITMAP
0000
0000
0000
1F00
3180
60C0
60C0
60C0
60C0
7FC0
60C0
60C0
60C0
60C0
60C0
3180
1F00
0000
0000
0000
0000
0000
ENDCHAR
STARTCHAR uni03F5
ENCODING 1013
SWIDTH 500 0
DWIDTH 11 0
BBX 11 22 0 -5
BITMAP
0000
0000
0000
0000
0000
0000
0000
1FC0
3000
6000
6000
7F00
6000
6000
6000
3000
1FC0
0000
0000
0000
0000
0000
ENDCHAR
STARTCHAR uni03F6
ENCODING 1014
SWIDTH 500 0
DWIDTH 11 0
BBX 11 22 0 -5
BITMAP
0000
0000
0000
0000
0000
0000
0000
7F00
0180
00C0
00C0
1FC0
00C0
00C0
00C0
0180
7F00
0000
0000
0000
0000
0000
ENDCHAR
STARTCHAR uni0400
ENCODING 1024
SWIDTH 500 0
DWIDTH 11 0
BBX 11 22 0 -5
BITMAP
1800
0C00
0600
0000
7FC0
6000
6000
6000
6000
6000
7F00
6000
6000
6000
6000
6000
7FC0
0000
0000
0000
0000
0000
ENDCHAR
STARTCHAR afii10023
ENCODING 1025
SWIDTH 500 0
DWIDTH 11 0
BBX 11 22 0 -5
BITMAP
3180
3180
3180
0000
7FC0
6000
6000
6000
6000
6000
7F00
6000
6000
6000
6000
6000
7FC0
0000
0000
0000
0000
0000
ENDCHAR
STARTCHAR afii10051
ENCODING 1026
SWIDTH 500 0
DWIDTH 11 0
BBX 11 22 0 -5
BITMAP
0000
0000
0000
FC00
3000
3000
3000
3F00
3180
30C0
30C0
30C0
30C0
30C0
30C0
3180
3300
0000
0000
0000
0000
0000
ENDCHAR
STARTCHAR afii10052
ENCODING 1027
SWIDTH 500 0
DWIDTH 11 0
BBX 11 22 0 -5
BITMAP
0300
0600
0C00
0000
7FC0
6000
6000
6000
6000
6000
6000
6000
6000
6000
6000
6000
6000
0000
0000
0000
0000
0000
ENDCHAR
STARTCHAR afii10053
ENCODING 1028
SWIDTH 500 0
DWIDTH 11 0
BBX 11 22 0 -5
BITMAP
0000
0000
0000
1F00
3180
60C0
6000
6000
6000
7E00
6000
6000
6000
6000
60C0
3180
1F00
0000
0000
0000
0000
0000
ENDCHAR
STARTCHAR afii10054
ENCODING 1029
SWIDTH 500 0
DWIDTH 11 0
BBX 11 22 0 -5
BITMAP
0000
0000
0000
1F00
3180
60C0
6000
6000
3000
1F00
0180
00C0
00C0
00C0
60C0
3180
1F00
0000
0000
0000
0000
0000
ENDCHAR
STARTCHAR afii10055
ENCODING 1030
SWIDTH 500 0
DWIDTH 11 0
BBX 11 22 0 -5
BITMAP
0000
0000
0000
3F00
0C00
0C00
0C00
0C00
0C00
0C00
0C00
0C00
0C00
0C00
0C00
0C00
3F00
0000
0000
0000
0000
0000
ENDCHAR
STARTCHAR afii10056
ENCODING 1031
SWIDTH 500 0
DWIDTH 11 0
BBX 11 22 0 -5
BITMAP
3180
3180
3180
0000
3F00
0C00
0C00
0C00
0C00
0C00
0C00
0C00
0C00
0C00
0C00
0C00
3F00
0000
0000
0000
0000
0000
ENDCHAR
STARTCHAR afii10057
ENCODING 1032
SWIDTH 500 0
DWIDTH 11 0
BBX 11 22 0 -5
BITMAP
0000
0000
0000
07E0
0180
0180
0180
0180
0180
0180
0180
0180
6180
6180
6180
3300
1E00
0000
0000
0000
0000
0000
ENDCHAR
STARTCHAR afii10058
ENCODING 1033
SWIDTH 500 0
DWIDTH 11 0
BBX 11 22 0 -5
BITMAP
0000
0000
0000
3C00
6C00
CC00
CC00
CC00
CF80
CCC0
CC60
CC60
CC60
CC60
CC60
CCC0
CF80
0000
0000
0000
0000
0000
ENDCHAR
STARTCHAR afii10059
ENCODING 1034
SWIDTH 500 0
DWIDTH 11 0
BBX 11 22 0 -5
BITMAP
0000
0000
0000
CC00
CC00
CC00
CC00
CC00
CF80
FCC0
CC60
CC60
CC60
CC60
CC60
CCC0
CF80
0000
0000
0000
0000
0000
ENDCHAR
STARTCHAR afii10060
ENCODING 1035
SWIDTH 500 0
DWIDTH 11 0
BBX 11 22 0 -5
BITMAP
0000
0000
0000
FC00
3000
3000
3000
3F00
3180
30C0
30C0
30C0
30C0
30C0
30C0
30C0
30C0
0000
0000
0000
0000
0000
ENDCHAR
STARTCHAR afii10061
ENCODING 1036
SWIDTH 500 0
DWIDTH 11 0
BBX 11 22 0 -5
BITMAP
0300
0600
0C00
60C0
60C0
6180
6300
6600
6C00
7800
7800
6C00
6600
6300
6180
60C0
60C0
0000
0000
0000
0000
0000
ENDCHAR
STARTCHAR uni040D
ENCODING 1037
SWIDTH 500 0
DWIDTH 11 0
BBX 11 22 0 -5
BITMAP
1800
0C00
0600
60C0
60C0
60C0
60C0
61C0
63C0
66C0
6CC0
78C0
70C0
60C0
60C0
60C0
60C0
0000
0000
0000
0000
0000
ENDCHAR
STARTCHAR afii10062
ENCODING 1038
SWIDTH 500 0
DWIDTH 11 0
BBX 11 22 0 -5
BITMAP
3180
3180
1F00
60C0
60C0
60C0
60C0
60C0
60C0
30C0
1FC0
00C0
00C0
00C0
00C0
0180
3F00
0000
0000
0000
0000
0000
ENDCHAR
STARTCHAR afii10145
ENCODING 1039
SWIDTH 500 0
DWIDTH 11 0
BBX 11 22 0 -5
BITMAP
0000
0000
0000
60C0
60C0
60C0
60C0
60C0
60C0
60C0
60C0
60C0
60C0
60C0
60C0
60C0
7FC0
0E00
0E00
0E00
0000
0000
ENDCHAR
STARTCHAR afii10017
ENCODING 1040
SWIDTH 500 0
DWIDTH 11 0
BBX 11 22 0 -5
BITMAP
0000
0000
0000
1F00
3180
60C0
60C0
60C0
60C0
60C0
7FC0
60C0
60C0
60C0
60C0
60C0
60C0
0000
0000
0000
0000
0000
ENDCHAR
STARTCHAR afii10018
ENCODING 1041
SWIDTH 500 0
DWIDTH 11 0
BBX 11 22 0 -5
BITMAP
0000
0000
0000
7F80
6000
6000
6000
6000
7F00
6180
60C0
60C0
60C0
60C0
60C0
6180
7F00
0000
0000
0000
0000
0000
ENDCHAR
STARTCHAR afii10019
ENCODING 1042
SWIDTH 500 0
DWIDTH 11 0
BBX 11 22 0 -5
BITMAP
0000
0000
0000
7F00
6180
60C0
60C0
60C0
6180
7F00
6180
60C0
60C0
60C0
60C0
6180
7F00
0000
0000
0000
0000
0000
ENDCHAR
STARTCHAR afii10020
ENCODING 1043
SWIDTH 500 0
DWIDTH 11 0
BBX 11 22 0 -5
BITMAP
0000
0000
0000
7FC0
6000
6000
6000
6000
6000
6000
6000
6000
6000
6000
6000
6000
6000
0000
0000
0000
0000
0000
ENDCHAR
STARTCHAR afii10021
ENCODING 1044
SWIDTH 500 0
DWIDTH 11 0
BBX 11 22 0 -5
BITMAP
0000
0000
0000
0FC0
18C0
30C0
30C0
30C0
30C0
30C0
30C0
30C0
30C0
30C0
30C0
60C0
FFE0
C060
C060
0000
0000
0000
ENDCHAR
STARTCHAR afii10022
ENCODING 1045
SWIDTH 500 0
DWIDTH 11 0
BBX 11 22 0 -5
BITMAP
0000
0000
0000
7FC0
6000
6000
6000
6000
6000
7F00
6000
6000
6000
6000
6000
6000
7FC0
0000
0000
0000
0000
0000
ENDCHAR
STARTCHAR afii10024
ENCODING 1046
SWIDTH 500 0
DWIDTH 11 0
BBX 11 22 0 -5
BITMAP
0000
0000
0000
CCC0
CCC0
CCC0
CCC0
CCC0
6D80
3F00
3F00
6D80
CCC0
CCC0
CCC0
CCC0
CCC0
0000
0000
0000
0000
0000
ENDCHAR
STARTCHAR afii10025
ENCODING 1047
SWIDTH 500 0
DWIDTH 11 0
BBX 11 22 0 -5
BITMAP
0000
0000
0000
1F00
3180
60C0
00C0
00C0
0180
0F00
0180
00C0
00C0
00C0
60C0
3180
1F00
0000
0000
0000
0000
0000
ENDCHAR
STARTCHAR afii10026
ENCODING 1048
SWIDTH 500 0
DWIDTH 11 0
BBX 11 22 0 -5
BITMAP
0000
0000
0000
60C0
60C0
60C0
60C0
61C0
63C0
66C0
6CC0
78C0
70C0
60C0
60C0
60C0
60C0
0000
0000
0000
0000
0000
ENDCHAR
STARTCHAR afii10027
ENCODING 1049
SWIDTH 500 0
DWIDTH 11 0
BBX 11 22 0 -5
BITMAP
3180
3180
1F00
60C0
60C0
60C0
60C0
61C0
63C0
66C0
6CC0
78C0
70C0
60C0
60C0
60C0
60C0
0000
0000
0000
0000
0000
ENDCHAR
STARTCHAR afii10028
ENCODING 1050
SWIDTH 500 0
DWIDTH 11 0
BBX 11 22 0 -5
BITMAP
0000
0000
0000
60C0
60C0
6180
6300
6600
6C00
7800
7800
6C00
6600
6300
6180
60C0
60C0
0000
0000
0000
0000
0000
ENDCHAR
STARTCHAR afii10029
ENCODING 1051
SWIDTH 500 0
DWIDTH 11 0
BBX 11 22 0 -5
BITMAP
0000
0000
0000
0FC0
18C0
30C0
30C0
30C0
30C0
30C0
30C0
30C0
30C0
30C0
30C0
60C0
C0C0
0000
0000
0000
0000
0000
ENDCHAR
STARTCHAR afii10030
ENCODING 1052
SWIDTH 500 0
DWIDTH 11 0
BBX 11 22 0 -5
BITMAP
0000
0000
0000
8040
C0C0
E1C0
F3C0
DEC0
CCC0
C0C0
C0C0
C0C0
C0C0
C0C0
C0C0
C0C0
C0C0
0000
0000
0000
0000
0000
ENDCHAR
STARTCHAR afii10031
ENCODING 1053
SWIDTH 500 0
DWIDTH 11 0
BBX 11 22 0 -5
BITMAP
0000
0000
0000
60C0
60C0
60C0
60C0
60C0
60C0
7FC0
60C0
60C0
60C0
60C0
60C0
60C0
60C0
0000
0000
0000
0000
0000
ENDCHAR
STARTCHAR afii10032
ENCODING 1054
SWIDTH 500 0
DWIDTH 11 0
BBX 11 22 0 -5
BITMAP
0000
0000
0000
1F00
3180
60C0
60C0
60C0
60C0
60C0
60C0
60C0
60C0
60C0
60C0
3180
1F00
0000
0000
0000
0000
0000
ENDCHAR
STARTCHAR afii10033
ENCODING 1055
SWIDTH 500 0
DWIDTH 11 0
BBX 11 22 0 -5
BITMAP
0000
0000
0000
7FC0
60C0
60C0
60C0
60C0
60C0
60C0
60C0
60C0
60C0
60C0
60C0
60C0
60C0
0000
0000
0000
0000
0000
ENDCHAR
STARTCHAR afii10034
ENCODING 1056
SWIDTH 500 0
DWIDTH 11 0
BBX 11 22 0 -5
BITMAP
0000
0000
0000
7F00
6180
60C0
60C0
60C0
60C0
6180
7F00
6000
6000
6000
6000
6000
6000
0000
0000
0000
0000
0000
ENDCHAR
STARTCHAR afii10035
ENCODING 1057
SWIDTH 500 0
DWIDTH 11 0
BBX 11 22 0 -5
BITMAP
0000
0000
0000
1F00
3180
60C0
60C0
6000
6000
6000
6000
6000
6000
60C0
60C0
3180
1F00
0000
0000
0000
0000
0000
ENDCHAR
STARTCHAR afii10036
ENCODING 1058
SWIDTH 500 0
DWIDTH 11 0
BBX 11 22 0 -5
BITMAP
0000
0000
0000
FFC0
0C00
0C00
0C00
0C00
0C00
0C00
0C00
0C00
0C00
0C00
0C00
0C00
0C00
0000
0000
0000
0000
0000
ENDCHAR
STARTCHAR afii10037
ENCODING 1059
SWIDTH 500 0
DWIDTH 11 0
BBX 11 22 0 -5
BITMAP
0000
0000
0000
60C0
60C0
60C0
60C0
60C0
60C0
30C0
1FC0
00C0
00C0
00C0
00C0
0180
3F00
0000
0000
0000
0000
0000
ENDCHAR
STARTCHAR afii10038
ENCODING 1060
SWIDTH 500 0
DWIDTH 11 0
BBX 11 22 0 -5
BITMAP
0000
0000
0C00
3F00
6D80
CCC0
CCC0
CCC0
CCC0
CCC0
CCC0
CCC0
CCC0
CCC0
CCC0
6D80
3F00
0C00
0000
0000
0000
0000
ENDCHAR
STARTCHAR afii10039
ENCODING 1061
SWIDTH 500 0
DWIDTH 11 0
BBX 11 22 0 -5
BITMAP
0000
0000
0000
60C0
60C0
3180
3180
1B00
1B00
0E00
0E00
1B00
1B00
3180
3180
60C0
60C0
0000
0000
0000
0000
0000
ENDCHAR
STARTCHAR afii10040
ENCODING 1062
SWIDTH 500 0
DWIDTH 11 0
BBX 11 22 0 -5
BITMAP
0000
0000
0000
60C0
60C0
60C0
60C0
60C0
60C0
60C0
60C0
60C0
60C0
60C0
60C0
30C0
1FE0
0060
0060
0060
0000
0000
ENDCHAR
STARTCHAR afii10041
ENCODING 1063
SWIDTH 500 0
DWIDTH 11 0
BBX 11 22 0 -5
BITMAP
0000
0000
0000
60C0
60C0
60C0
60C0
60C0
60C0
30C0
1FC0
00C0
00C0
00C0
00C0
00C0
00C0
0000
0000
0000
0000
0000
ENDCHAR
STARTCHAR afii10042
ENCODING 1064
SWIDTH 500 0
DWIDTH 11 0
BBX 11 22 0 -5
BITMAP
0000
0000
0000
CCC0
CCC0
CCC0
CCC0
CCC0
CCC0
CCC0
CCC0
CCC0
CCC0
CCC0
CCC0
6CC0
3FC0
0000
0000
0000
0000
0000
ENDCHAR
STARTCHAR afii10043
ENCODING 1065
SWIDTH 500 0
DWIDTH 11 0
BBX 11 22 0 -5
BITMAP
0000
0000
0000
CCC0
CCC0
CCC0
CCC0
CCC0
CCC0
CCC0
CCC0
CCC0
CCC0
CCC0
CCC0
6CC0
3FE0
0060
0060
0060
0000
0000
ENDCHAR
STARTCHAR afii10044
ENCODING 1066
SWIDTH 500 0
DWIDTH 11 0
BBX 11 22 0 -5
BITMAP
0000
0000
0000
E000
E000
6000
6000
7F00
6180
60C0
60C0
60C0
60C0
60C0
60C0
6180
7F00
0000
0000
0000
0000
0000
ENDCHAR
STARTCHAR afii10045
ENCODING 1067
SWIDTH 500 0
DWIDTH 11 0
BBX 11 22 0 -5
BITMAP
0000
0000
0000
C0C0
C0C0
C0C0
C0C0
F8C0
CCC0
C6C0
C6C0
C6C0
C6C0
C6C0
C6C0
CCC0
F8C0
0000
0000
0000
0000
0000
ENDCHAR
STARTCHAR afii10046
ENCODING 1068
SWIDTH 500 0
DWIDTH 11 0
BBX 11 22 0 -5
BITMAP
0000
0000
0000
6000
6000
6000
6000
7F00
6180
60C0
60C0
60C0
60C0
60C0
60C0
6180
7F00
0000
0000
0000
0000
0000
ENDCHAR
STARTCHAR afii10047
ENCODING 1069
SWIDTH 500 0
DWIDTH 11 0
BBX 11 22 0 -5
BITMAP
0000
0000
0000
1F00
3180
60C0
00C0
00C0
00C0
0FC0
00C0
00C0
00C0
00C0
60C0
3180
1F00
0000
0000
0000
0000
0000
ENDCHAR
STARTCHAR afii10048
ENCODING 1070
SWIDTH 500 0
DWIDTH 11 0
BBX 11 22 0 -5
BITMAP
0000
0000
0000
C780
CCC0
CCC0
CCC0
CCC0
CCC0
FCC0
CCC0
CCC0
CCC0
CCC0
CCC0
CCC0
C780
0000
0000
0000
0000
0000
ENDCHAR
STARTCHAR afii10049
ENCODING 1071
SWIDTH 500 0
DWIDTH 11 0
BBX 11 22 0 -5
BITMAP
0000
0000
0000
1FC0
30C0
60C0
60C0
60C0
60C0
30C0
1FC0
03C0
06C0
0CC0
18C0
30C0
60C0
0000
0000
0000
0000
0000
ENDCHAR
STARTCHAR afii10065
ENCODING 1072
SWIDTH 500 0
DWIDTH 11 0
BBX 11 22 0 -5
BITMAP
0000
0000
0000
0000
0000
0000
0000
3F00
0180
00C0
00C0
3FC0
60C0
60C0
60C0
60C0
3FC0
0000
0000
0000
0000
0000
ENDCHAR
STARTCHAR afii10066
ENCODING 1073
SWIDTH 500 0
DWIDTH 11 0
BBX 11 22 0 -5
BITMAP
0000
0000
0000
1F80
3000
6000
6000
6000
7F00
6180
60C0
60C0
60C0
60C0
60C0
6180
7F00
0000
0000
0000
0000
0000
ENDCHAR
STARTCHAR afii10067
ENCODING 1074
SWIDTH 500 0
DWIDTH 11 0
BBX 11 22 0 -5
BITMAP
0000
0000
0000
3E00
6300
6180
6180
6180
6300
7F00
6180
60C0
60C0
60C0
60C0
6180
7F00
0000
0000
0000
0000
0000
ENDCHAR
STARTCHAR afii10068
ENCODING 1075
SWIDTH 500 0
DWIDTH 11 0
BBX 11 22 0 -5
BITMAP
0000
0000
0000
0000
0000
0000
0000
7FC0
6000
6000
6000
6000
6000
6000
6000
6000
6000
0000
0000
0000
0000
0000
ENDCHAR
STARTCHAR afii10069
ENCODING 1076
SWIDTH 500 0
DWIDTH 11 0
BBX 11 22 0 -5
BITMAP
0000
0000
0000
0000
0000
0000
0000
1FC0
30C0
60C0
60C0
60C0
60C0
60C0
60C0
30C0
1FC0
00C0
00C0
0180
3F00
0000
ENDCHAR
STARTCHAR afii10070
ENCODING 1077
SWIDTH 500 0
DWIDTH 11 0
BBX 11 22 0 -5
BITMAP
0000
0000
0000
0000
0000
0000
0000
1F00
3180
60C0
60C0
7FC0
6000
6000
6000
30C0
1F80
0000
0000
0000
0000
0000
ENDCHAR
STARTCHAR afii10072
ENCODING 1078
SWIDTH 500 0
DWIDTH 11 0
BBX 11 22 0 -5
BITMAP
0000
0000
0000
0000
0000
0000
0000
CCC0
CCC0
CCC0
6D80
3F00
3F00
6D80
CCC0
CCC0
CCC0
0000
0000
0000
0000
0000
ENDCHAR
STARTCHAR afii10073
ENCODING 1079
SWIDTH 500 0
DWIDTH 11 0
BBX 11 22 0 -5
BITMAP
0000
0000
0000
0000
0000
0000
0000
3F80
60C0
00C0
00C0
0F80
00C0
00C0
00C0
60C0
3F80
0000
0000
0000
0000
0000
ENDCHAR
STARTCHAR afii10074
ENCODING 1080
SWIDTH 500 0
DWIDTH 11 0
BBX 11 22 0 -5
BITMAP
0000
0000
0000
0000
0000
0000
0000
60C0
60C0
60C0
60C0
60C0
60C0
60C0
60C0
30C0
1FC0
0000
0000
0000
0000
0000
ENDCHAR
STARTCHAR afii10075
ENCODING 1081
SWIDTH 500 0
DWIDTH 11 0
BBX 11 22 0 -5
BITMAP
0000
0000
0000
3180
3180
1F00
0000
60C0
60C0
60C0
60C0
60C0
60C0
60C0
60C0
30C0
1FC0
0000
0000
0000
0000
0000
ENDCHAR
STARTCHAR afii10076
ENCODING 1082
SWIDTH 500 0
DWIDTH 11 0
BBX 11 22 0 -5
BITMAP
0000
0000
0000
0000
0000
0000
0000
30C0
3180
3300
3600
3C00
3C00
3600
3300
3180
30C0
0000
0000
0000
0000
0000
ENDCHAR
STARTCHAR afii10077
ENCODING 1083
SWIDTH 500 0
DWIDTH 11 0
BBX 11 22 0 -5
BITMAP
0000
0000
0000
0000
0000
0000
0000
0FC0
18C0
30C0
30C0
30C0
30C0
30C0
30C0
30C0
60C0
0000
0000
0000
0000
0000
ENDCHAR
STARTCHAR afii10078
ENCODING 1084
SWIDTH 500 0
DWIDTH 11 0
BBX 11 22 0 -5
BITMAP
0000
0000
0000
0000
0000
0000
0000
8040
C0C0
E1C0
F3C0
DEC0
CCC0
C0C0
C0C0
C0C0
C0C0
0000
0000
0000
0000
0000
ENDCHAR
STARTCHAR afii10079
ENCODING 1085
SWIDTH 500 0
DWIDTH 11 0
BBX 11 22 0 -5
BITMAP
0000
0000
0000
0000
0000
0000
0000
60C0
60C0
60C0
60C0
7FC0
60C0
60C0
60C0
60C0
60C0
0000
0000
0000
0000
0000
ENDCHAR
STARTCHAR afii10080
ENCODING 1086
SWIDTH 500 0
DWIDTH 11 0
BBX 11 22 0 -5
BITMAP
0000
0000
0000
0000
0000
0000
0000
1F00
3180
60C0
60C0
60C0
60C0
60C0
60C0
3180
1F00
0000
0000
0000
0000
0000
ENDCHAR
STARTCHAR afii10081
ENCODING 1087
SWIDTH 500 0
DWIDTH 11 0
BBX 11 22 0 -5
BITMAP
0000
0000
0000
0000
0000
0000
0000
7FC0
60C0
60C0
60C0
60C0
60C0
60C0
60C0
60C0
60C0
0000
0000
0000
0000
0000
ENDCHAR
STARTCHAR afii10082
ENCODING 1088
SWIDTH 500 0
DWIDTH 11 0
BBX 11 22 0 -5
BITMAP
0000
0000
0000
0000
0000
0000
0000
7F00
6180
60C0
60C0
60C0
60C0
60C0
60C0
6180
7F00
6000
6000
6000
6000
0000
ENDCHAR
STARTCHAR afii10083
ENCODING 1089
SWIDTH 500 0
DWIDTH 11 0
BBX 11 22 0 -5
BITMAP
0000
0000
0000
0000
0000
0000
0000
1F00
3180
60C0
6000
6000
6000
6000
60C0
3180
1F00
0000
0000
0000
0000
0000
ENDCHAR
STARTCHAR afii10084
ENCODING 1090
SWIDTH 500 0
DWIDTH 11 0
BBX 11 22 0 -5
BITMAP
0000
0000
0000
0000
0000
0000
0000
FFC0
0C00
0C00
0C00
0C00
0C00
0C00
0C00
0C00
0C00
0000
0000
0000
0000
0000
ENDCHAR
STARTCHAR afii10085
ENCODING 1091
SWIDTH 500 0
DWIDTH 11 0
BBX 11 22 0 -5
BITMAP
0000
0000
0000
0000
0000
0000
0000
60C0
60C0
60C0
60C0
60C0
60C0
60C0
60C0
30C0
1FC0
00C0
00C0
0180
3F00
0000
ENDCHAR
STARTCHAR afii10086
ENCODING 1092
SWIDTH 500 0
DWIDTH 11 0
BBX 11 22 0 -5
BITMAP
0000
0000
0000
0000
0000
0C00
0C00
3F00
6D80
CCC0
CCC0
CCC0
CCC0
CCC0
CCC0
6D80
3F00
0C00
0C00
0000
0000
0000
ENDCHAR
STARTCHAR afii10087
ENCODING 1093
SWIDTH 500 0
DWIDTH 11 0
BBX 11 22 0 -5
BITMAP
0000
0000
0000
0000
0000
0000
0000
60C0
60C0
3180
1B00
0E00
0E00
1B00
3180
60C0
60C0
0000
0000
0000
0000
0000
ENDCHAR
STARTCHAR afii10088
ENCODING 1094
SWIDTH 500 0
DWIDTH 11 0
BBX 11 22 0 -5
BITMAP
0000
0000
0000
0000
0000
0000
0000
60C0
60C0
60C0
60C0
60C0
60C0
60C0
60C0
30C0
1FE0
0060
0060
0060
0000
0000
ENDCHAR
STARTCHAR afii10089
ENCODING 1095
SWIDTH 500 0
DWIDTH 11 0
BBX 11 22 0 -5
BITMAP
0000
0000
0000
0000
0000
0000
0000
60C0
60C0
60C0
60C0
30C0
1FC0
00C0
00C0
00C0
00C0
0000
0000
0000
0000
0000
ENDCHAR
STARTCHAR afii10090
ENCODING 1096
SWIDTH 500 0
DWIDTH 11 0
BBX 11 22 0 -5
BITMAP
0000
0000
0000
0000
0000
0000
0000
CCC0
CCC0
CCC0
CCC0
CCC0
CCC0
CCC0
CCC0
6CC0
3FC0
0000
0000
0000
0000
0000
ENDCHAR
STARTCHAR afii10091
ENCODING 1097
SWIDTH 500 0
DWIDTH 11 0
BBX 11 22 0 -5
BITMAP
0000
0000
0000
0000
0000
0000
0000
CCC0
CCC0
CCC0
CCC0
CCC0
CCC0
CCC0
CCC0
6CC0
3FE0
0060
0060
0060
0000
0000
ENDCHAR
STARTCHAR afii10092
ENCODING 1098
SWIDTH 500 0
DWIDTH 11 0
BBX 11 22 0 -5
BITMAP
0000
0000
0000
0000
0000
0000
0000
7000
7000
3000
3F00
3180
30C0
30C0
30C0
3180
3F00
0000
0000
0000
0000
0000
ENDCHAR
STARTCHAR afii10093
ENCODING 1099
SWIDTH 500 0
DWIDTH 11 0
BBX 11 22 0 -5
BITMAP
0000
0000
0000
0000
0000
0000
0000
C0C0
C0C0
C0C0
F8C0
CCC0
C6C0
C6C0
C6C0
CCC0
F8C0
0000
0000
0000
0000
0000
ENDCHAR
STARTCHAR afii10094
ENCODING 1100
SWIDTH 500 0
DWIDTH 11 0
BBX 11 22 0 -5
BITMAP
0000
0000
0000
0000
0000
0000
0000
3000
3000
3000
3F00
3180
30C0
30C0
30C0
3180
3F00
0000
0000
0000
0000
0000
ENDCHAR
STARTCHAR afii10095
ENCODING 1101
SWIDTH 500 0
DWIDTH 11 0
BBX 11 22 0 -5
BITMAP
0000
0000
0000
0000
0000
0000
0000
1F00
3180
60C0
00C0
0FC0
00C0
00C0
60C0
3180
1F00
0000
0000
0000
0000
0000
ENDCHAR
STARTCHAR afii10096
ENCODING 1102
SWIDTH 500 0
DWIDTH 11 0
BBX 11 22 0 -5
BITMAP
0000
0000
0000
0000
0000
0000
0000
C780
CCC0
CCC0
CCC0
FCC0
CCC0
CCC0
CCC0
CCC0
C780
0000
0000
0000
0000
0000
ENDCHAR
STARTCHAR afii10097
ENCODING 1103
SWIDTH 500 0
DWIDTH 11 0
BBX 11 22 0 -5
BITMAP
0000
0000
0000
0000
0000
0000
0000
3FC0
60C0
60C0
60C0
60C0
3FC0
06C0
0CC0
18C0
30C0
0000
0000
0000
0000
0000
ENDCHAR
STARTCHAR uni0450
ENCODING 1104
SWIDTH 500 0
DWIDTH 11 0
BBX 11 22 0 -5
BITMAP
0000
0000
0000
1800
0C00
0600
0000
1F00
3180
60C0
60C0
7FC0
6000
6000
6000
30C0
1F80
0000
0000
0000
0000
0000
ENDCHAR
STARTCHAR afii10071
ENCODING 1105
SWIDTH 500 0
DWIDTH 11 0
BBX 11 22 0 -5
BITMAP
0000
0000
0000
3180
3180
3180
0000
1F00
3180
60C0
60C0
7FC0
6000
6000
6000
30C0
1F80
0000
0000
0000
0000
0000
ENDCHAR
STARTCHAR afii10099
ENCODING 1106
SWIDTH 500 0
DWIDTH 11 0
BBX 11 22 0 -5
BITMAP
0000
0000
0000
6000
FE00
6000
6000
7F00
6180
60C0
60C0
60C0
60C0
60C0
60C0
60C0
60C0
00C0
00C0
0180
0700
0000
ENDCHAR
STARTCHAR afii10100
ENCODING 1107
SWIDTH 500 0
DWIDTH 11 0
BBX 11 22 0 -5
BITMAP
0000
0000
0000
0300
0600
0C00
0000
7FC0
6000
6000
6000
6000
6000
6000
6000
6000
6000
0000
0000
0000
0000
0000
ENDCHAR
STARTCHAR afii10101
ENCODING 1108
SWIDTH 500 0
DWIDTH 11 0
BBX 11 22 0 -5
BITMAP
0000
0000
0000
0000
0000
0000
0000
1F00
3180
60C0
6000
7E00
6000
6000
60C0
3180
1F00
0000
0000
0000
0000
0000
ENDCHAR
STARTCHAR afii10102
ENCODING 1109
SWIDTH 500 0
DWIDTH 11 0
BBX 11 22 0 -5
BITMAP
0000
0000
0000
0000
0000
0000
0000
3F80
60C0
6000
6000
3F80
00C0
00C0
00C0
60C0
3F80
0000
0000
0000
0000
0000
ENDCHAR
STARTCHAR afii10103
ENCODING 1110
SWIDTH 500 0
DWIDTH 11 0
BBX 11 22 0 -5
BITMAP
0000
0000
0000
0600
0600
0600
0000
1E00
0600
0600
0600
0600
0600
0600
0600
0600
1F80
0000
0000
0000
0000
0000
ENDCHAR
STARTCHAR afii10104
ENCODING 1111
SWIDTH 500 0
DWIDTH 11 0
BBX 11 22 0 -5
BITMAP
0000
0000
0000
3180
3180
3180
0000
1E00
0600
0600
0600
0600
0600
0600
0600
0600
1F80
0000
0000
0000
0000
0000
ENDCHAR
STARTCHAR afii10105
ENCODING 1112
SWIDTH 500 0
DWIDTH 11 0
BBX 11 22 0 -5
BITMAP
0000
0000
0000
0180
0180
0180
0000
0780
0180
0180
0180
0180
0180
0180
0180
0180
0180
3180
3180
3180
1F00
0000
ENDCHAR
STARTCHAR afii10106
ENCODING 1113
SWIDTH 500 0
DWIDTH 11 0
BBX 11 22 0 -5
BITMAP
0000
0000
0000
0000
0000
0000
0000
3C00
6C00
CC00
CF80
CCC0
CC60
CC60
CC60
CCC0
CF80
0000
0000
0000
0000
0000
ENDCHAR
STARTCHAR afii10107
ENCODING 1114
SWIDTH 500 0
DWIDTH 11 0
BBX 11 22 0 -5
BITMAP
0000
0000
0000
0000
0000
0000
0000
CC00
CC00
CC00
CF80
FCC0
CC60
CC60
CC60
CCC0
CF80
0000
0000
0000
0000
0000
ENDCHAR
STARTCHAR afii10108
ENCODING 1115
SWIDTH 500 0
DWIDTH 11 0
BBX 11 22 0 -5
BITMAP
0000
0000
0000
6000
FE00
6000
6000
7F00
6180
60C0
60C0
60C0
60C0
60C0
60C0
60C0
60C0
0000
0000
0000
0000
0000
ENDCHAR
STARTCHAR afii10109
ENCODING 1116
SWIDTH 500 0
DWIDTH 11 0
BBX 11 22 0 -5
BITMAP
0000
0000
0000
0180
0300
0600
0000
30C0
3180
3300
3600
3C00
3C00
3600
3300
3180
30C0
0000
0000
0000
0000
0000
ENDCHAR
STARTCHAR uni045D
ENCODING 1117
SWIDTH 500 0
DWIDTH 11 0
BBX 11 22 0 -5
BITMAP
0000
0000
0000
1800
0C00
0600
0000
60C0
60C0
60C0
60C0
60C0
60C0
60C0
60C0
30C0
1FC0
0000
0000
0000
0000
0000
ENDCHAR
STARTCHAR afii10110
ENCODING 1118
SWIDTH 500 0
DWIDTH 11 0
BBX 11 22 0 -5
BITMAP
0000
0000
0000
3180
3180
1F00
0000
60C0
60C0
60C0
60C0
60C0
60C0
60C0
60C0
30C0
1FC0
00C0
00C0
0180
3F00
0000
ENDCHAR
STARTCHAR afii10193
ENCODING 1119
SWIDTH 500 0
DWIDTH 11 0
BBX 11 22 0 -5
BITMAP
0000
0000
0000
0000
0000
0000
0000
60C0
60C0
60C0
60C0
60C0
60C0
60C0
60C0
60C0
7FC0
0E00
0E00
0E00
0000
0000
ENDCHAR
STARTCHAR afii10146
ENCODING 1122
SWIDTH 500 0
DWIDTH 11 0
BBX 11 22 0 -5
BITMAP
0000
0000
0000
6000
6000
FE00
6000
6000
7F00
6180
60C0
60C0
60C0
60C0
60C0
6180
7F00
0000
0000
0000
0000
0000
ENDCHAR
STARTCHAR afii10194
ENCODING 1123
SWIDTH 500 0
DWIDTH 11 0
BBX 11 22 0 -5
BITMAP
0000
0000
0000
3000
3000
3000
FE00
3000
3000
3000
3F00
3180
30C0
30C0
30C0
3180
3F00
0000
0000
0000
0000
0000
ENDCHAR
STARTCHAR uni046A
ENCODING 1130
SWIDTH 500 0
DWIDTH 11 0
BBX 11 22 0 -5
BITMAP
0000
0000
0000
FFC0
C0C0
6180
6180
3300
3300
1E00
3F00
6D80
CCC0
CCC0
CCC0
CCC0
CCC0
0000
0000
0000
0000
0000
ENDCHAR
STARTCHAR uni046B
ENCODING 1131
SWIDTH 500 0
DWIDTH 11 0
BBX 11 22 0 -5
BITMAP
0000
0000
0000
0000
0000
0000
0000
FFC0
C0C0
6180
3300
1E00
3F00
6D80
CCC0
CCC0
CCC0
0000
0000
0000
0000
0000
ENDCHAR
STARTCHAR afii10050
ENCODING 1168
SWIDTH 500 0
DWIDTH 11 0
BBX 11 22 0 -5
BITMAP
00C0
00C0
00C0
7FC0
6000
6000
6000
6000
6000
6000
6000
6000
6000
6000
6000
6000
6000
0000
0000
0000
0000
0000
ENDCHAR
STARTCHAR afii10098
ENCODING 1169
SWIDTH 500 0
DWIDTH 11 0
BBX 11 22 0 -5
BITMAP
0000
0000
0000
0000
00C0
00C0
00C0
7FC0
6000
6000
6000
6000
6000
6000
6000
6000
6000
0000
0000
0000
0000
0000
ENDCHAR
STARTCHAR uni0492
ENCODING 1170
SWIDTH 500 0
DWIDTH 11 0
BBX 11 22 0 -5
BITMAP
0000
0000
0000
7FC0
6000
6000
6000
6000
6000
FE00
6000
6000
6000
6000
6000
6000
6000
0000
0000
0000
0000
0000
ENDCHAR
STARTCHAR uni0493
ENCODING 1171
SWIDTH 500 0
DWIDTH 11 0
BBX 11 22 0 -5
BITMAP
0000
0000
0000
0000
0000
0000
0000
7FC0
6000
6000
6000
6000
FE00
6000
6000
6000
6000
0000
0000
0000
0000
0000
ENDCHAR
STARTCHAR uni0494
ENCODING 1172
SWIDTH 500 0
DWIDTH 11 0
BBX 11 22 0 -5
BITMAP
0000
0000
0000
7FC0
6000
6000
6000
6000
6000
6000
7F00
6180
60C0
60C0
60C0
60C0
60C0
00C0
0180
0300
0000
0000
ENDCHAR
STARTCHAR uni0495
ENCODING 1173
SWIDTH 500 0
DWIDTH 11 0
BBX 11 22 0 -5
BITMAP
0000
0000
0000
0000
0000
0000
0000
7FC0
6000
6000
6000
6000
7E00
6300
6180
6180
6180
0180
0300
0600
0000
0000
ENDCHAR
STARTCHAR uni0496
ENCODING 1174
SWIDTH 500 0
DWIDTH 11 0
BBX 11 22 0 -5
BITMAP
0000
0000
0000
CCC0
CCC0
CCC0
CCC0
CCC0
6D80
3F00
3F00
6D80
CCC0
CCC0
CCC0
CCC0
CCE0
0060
0060
0060
0000
0000
ENDCHAR
STARTCHAR uni0497
ENCODING 1175
SWIDTH 500 0
DWIDTH 11 0
BBX 11 22 0 -5
BITMAP
0000
0000
0000
0000
0000
0000
0000
CCC0
CCC0
CCC0
6D80
3F00
3F00
6D80
CCC0
CCC0
CCE0
0060
0060
0060
0000
0000
ENDCHAR
STARTCHAR uni0498
ENCODING 1176
SWIDTH 500 0
DWIDTH 11 0
BBX 11 22 0 -5
BITMAP
0000
0000
0000
1F00
3180
60C0
00C0
00C0
0180
0F00
0180
00C0
00C0
00C0
60C0
3180
1F00
0C00
0C00
0C00
0C00
0000
ENDCHAR
STARTCHAR uni0499
ENCODING 1177
SWIDTH 500 0
DWIDTH 11 0
BBX 11 22 0 -5
BITMAP
0000
0000
0000
0000
0000
0000
0000
3F80
60C0
00C0
00C0
0F80
00C0
00C0
00C0
60C0
3F80
0C00
0C00
0C00
0C00
0000
ENDCHAR
STARTCHAR uni049A
ENCODING 1178
SWIDTH 500 0
DWIDTH 11 0
BBX 11 22 0 -5
BITMAP
0000
0000
0000
60C0
60C0
6180
6300
6600
6C00
7800
7800
6C00
6600
6300
6180
60C0
60E0
0060
0060
0060
0000
0000
ENDCHAR
STARTCHAR uni049B
ENCODING 1179
SWIDTH 500 0
DWIDTH 11 0
BBX 11 22 0 -5
BITMAP
0000
0000
0000
0000
0000
0000
0000
30C0
3180
3300
3600
3C00
3C00
3600
3300
3180
30E0
0060
0060
0060
0000
0000
ENDCHAR
STARTCHAR uni049C
ENCODING 1180
SWIDTH 500 0
DWIDTH 11 0
BBX 11 22 0 -5
BITMAP
0000
0000
0000
60C0
60C0
6180
6B00
6E00
6C00
7800
7800
6C00
6E00
6B00
6180
60C0
60C0
0000
0000
0000
0000
0000
ENDCHAR
STARTCHAR uni049D
ENCODING 1181
SWIDTH 500 0
DWIDTH 11 0
BBX 11 22 0 -5
BITMAP
0000
0000
0000
0000
0000
0000
0000
30C0
3580
3700
3600
3C00
3C00
3600
3700
3580
30C0
0000
0000
0000
0000
0000
ENDCHAR
STARTCHAR uni04A0
ENCODING 1184
SWIDTH 500 0
DWIDTH 11 0
BBX 11 22 0 -5
BITMAP
0000
0000
0000
E0C0
E0C0
6180
6300
6600
6C00
7800
7800
6C00
6600
6300
6180
60C0
60C0
0000
0000
0000
0000
0000
ENDCHAR
STARTCHAR uni04A1
ENCODING 1185
SWIDTH 500 0
DWIDTH 11 0
BBX 11 22 0 -5
BITMAP
0000
0000
0000
0000
0000
0000
0000
70C0
7180
3300
3600
3C00
3C00
3600
3300
3180
30C0
0000
0000
0000
0000
0000
ENDCHAR
STARTCHAR uni04A2
ENCODING 1186
SWIDTH 500 0
DWIDTH 11 0
BBX 11 22 0 -5
BITMAP
0000
0000
0000
60C0
60C0
60C0
60C0
60C0
60C0
7FC0
60C0
60C0
60C0
60C0
60C0
60C0
60E0
0060
0060
0060
0000
0000
ENDCHAR
STARTCHAR uni04A3
ENCODING 1187
SWIDTH 500 0
DWIDTH 11 0
BBX 11 22 0 -5
BITMAP
0000
0000
0000
0000
0000
0000
0000
60C0
60C0
60C0
60C0
7FC0
60C0
60C0
60C0
60C0
60E0
0060
0060
0060
0000
0000
ENDCHAR
STARTCHAR uni04A4
ENCODING 1188
SWIDTH 500 0
DWIDTH 11 0
BBX 11 22 0 -5
BITMAP
0000
0000
0000
63E0
6300
6300
6300
6300
6300
7F00
6300
6300
6300
6300
6300
6300
6300
0000
0000
0000
0000
0000
ENDCHAR
STARTCHAR uni04A5
ENCODING 1189
SWIDTH 500 0
DWIDTH 11 0
BBX 11 22 0 -5
BITMAP
0000
0000
0000
0000
0000
0000
0000
63E0
6300
6300
6300
7F00
6300
6300
6300
6300
6300
0000
0000
0000
0000
0000
ENDCHAR
STARTCHAR uni04AA
ENCODING 1194
SWIDTH 500 0
DWIDTH 11 0
BBX 11 22 0 -5
BITMAP
0000
0000
0000
1F00
3180
60C0
60C0
6000
6000
6000
6000
6000
6000
60C0
60C0
3180
1F00
0C00
0C00
0C00
0C00
0000
ENDCHAR
STARTCHAR uni04AB
ENCODING 1195
SWIDTH 500 0
DWIDTH 11 0
BBX 11 22 0 -5
BITMAP
0000
0000
0000
0000
0000
0000
0000
1F00
3180
60C0
6000
6000
6000
6000
60C0
3180
1F00
0C00
0C00
0C00
0C00
0000
ENDCHAR
STARTCHAR uni04AE
ENCODING 1198
SWIDTH 500 0
DWIDTH 11 0
BBX 11 22 0 -5
BITMAP
0000
0000
0000
C0C0
C0C0
6180
6180
3300
3300
1E00
1E00
0C00
0C00
0C00
0C00
0C00
0C00
0000
0000
0000
0000
0000
ENDCHAR
STARTCHAR uni04AF
ENCODING 1199
SWIDTH 500 0
DWIDTH 11 0
BBX 11 22 0 -5
BITMAP
0000
0000
0000
0000
0000
0000
0000
C0C0
C0C0
C0C0
6180
6180
3300
3300
1E00
1E00
0C00
0C00
0C00
0C00
0C00
0000
ENDCHAR
STARTCHAR uni04B0
ENCODING 1200
SWIDTH 500 0
DWIDTH 11 0
BBX 11 22 0 -5
BITMAP
0000
0000
0000
C0C0
C0C0
6180
6180
3300
3300
1E00
1E00
0C00
7F80
0C00
0C00
0C00
0C00
0000
0000
0000
0000
0000
ENDCHAR
STARTCHAR uni04B1
ENCODING 1201
SWIDTH 500 0
DWIDTH 11 0
BBX 11 22 0 -5
BITMAP
0000
0000
0000
0000
0000
0000
0000
C0C0
C0C0
C0C0
6180
6180
3300
3300
1E00
1E00
0C00
7F80
0C00
0C00
0C00
0000
ENDCHAR
STARTCHAR uni04B2
ENCODING 1202
SWIDTH 500 0
DWIDTH 11 0
BBX 11 22 0 -5
BITMAP
0000
0000
0000
60C0
60C0
3180
3180
1B00
1B00
0E00
0E00
1B00
1B00
3180
3180
60C0
60E0
0060
0060
0060
0000
0000
ENDCHAR
STARTCHAR uni04B3
ENCODING 1203
SWIDTH 500 0
DWIDTH 11 0
BBX 11 22 0 -5
BITMAP
0000
0000
0000
0000
0000
0000
0000
60C0
60C0
3180
1B00
0E00
0E00
1B00
3180
60C0
60E0
0060
0060
0060
0000
0000
ENDCHAR
STARTCHAR uni04B6
ENCODING 1206
SWIDTH 500 0
DWIDTH 11 0
BBX 11 22 0 -5
BITMAP
0000
0000
0000
60C0
60C0
60C0
60C0
60C0
60C0
30C0
1FC0
00C0
00C0
00C0
00C0
00C0
00E0
0060
0060
0060
0000
0000
ENDCHAR
STARTCHAR uni04B7
ENCODING 1207
SWIDTH 500 0
DWIDTH 11 0
BBX 11 22 0 -5
BITMAP
0000
0000
0000
0000
0000
0000
0000
60C0
60C0
60C0
60C0
30C0
1FC0
00C0
00C0
00C0
00E0
0060
0060
0060
0000
0000
ENDCHAR
STARTCHAR uni04B8
ENCODING 1208
SWIDTH 500 0
DWIDTH 11 0
BBX 11 22 0 -5
BITMAP
0000
0000
0000
60C0
60C0
60C0
60C0
66C0
66C0
36C0
1FC0
06C0
06C0
06C0
00C0
00C0
00C0
0000
0000
0000
0000
0000
ENDCHAR
STARTCHAR uni04B9
ENCODING 1209
SWIDTH 500 0
DWIDTH 11 0
BBX 11 22 0 -5
BITMAP
0000
0000
0000
0000
0000
0000
0000
60C0
60C0
66C0
66C0
36C0
1FC0
06C0
06C0
00C0
00C0
0000
0000
0000
0000
0000
ENDCHAR
STARTCHAR uni04BA
ENCODING 1210
SWIDTH 500 0
DWIDTH 11 0
BBX 11 22 0 -5
BITMAP
0000
0000
0000
6000
6000
6000
6000
6000
7F00
6180
60C0
60C0
60C0
60C0
60C0
60C0
60C0
0000
0000
0000
0000
0000
ENDCHAR
STARTCHAR uni04BB
ENCODING 1211
SWIDTH 500 0
DWIDTH 11 0
BBX 11 22 0 -5
BITMAP
0000
0000
0000
0000
0000
0000
0000
6000
6000
6000
7F00
6180
60C0
60C0
60C0
60C0
60C0
0000
0000
0000
0000
0000
ENDCHAR
STARTCHAR uni04C0
ENCODING 1216
SWIDTH 500 0
DWIDTH 11 0
BBX 11 22 0 -5
BITMAP
0000
0000
0000
3F00
0C00
0C00
0C00
0C00
0C00
0C00
0C00
0C00
0C00
0C00
0C00
0C00
3F00
0000
0000
0000
0000
0000
ENDCHAR
STARTCHAR uni04C1
ENCODING 1217
SWIDTH 500 0
DWIDTH 11 0
BBX 11 22 0 -5
BITMAP
3180
3180
1F00
0000
CCC0
CCC0
CCC0
CCC0
6D80
3F00
3F00
6D80
CCC0
CCC0
CCC0
CCC0
CCC0
0000
0000
0000
0000
0000
ENDCHAR
STARTCHAR uni04C2
ENCODING 1218
SWIDTH 500 0
DWIDTH 11 0
BBX 11 22 0 -5
BITMAP
0000
0000
0000
3180
3180
1F00
0000
CCC0
CCC0
CCC0
6D80
3F00
3F00
6D80
CCC0
CCC0
CCC0
0000
0000
0000
0000
0000
ENDCHAR
STARTCHAR uni04CF
ENCODING 1231
SWIDTH 500 0
DWIDTH 11 0
BBX 11 22 0 -5
BITMAP
0000
0000
0000
1E00
0600
0600
0600
0600
0600
0600
0600
0600
0600
0600
0600
0600
1F80
0000
0000
0000
0000
0000
ENDCHAR
STARTCHAR uni04D0
ENCODING 1232
SWIDTH 500 0
DWIDTH 11 0
BBX 11 22 0 -5
BITMAP
3180
3180
1F00
0000
1F00
3180
60C0
60C0
60C0
60C0
60C0
7FC0
60C0
60C0
60C0
60C0
60C0
0000
0000
0000
0000
0000
ENDCHAR
STARTCHAR uni04D1
ENCODING 1233
SWIDTH 500 0
DWIDTH 11 0
BBX 11 22 0 -5
BITMAP
0000
0000
0000
3180
3180
1F00
0000
3F00
0180
00C0
00C0
3FC0
60C0
60C0
60C0
60C0
3FC0
0000
0000
0000
0000
0000
ENDCHAR
STARTCHAR uni04D2
ENCODING 1234
SWIDTH 500 0
DWIDTH 11 0
BBX 11 22 0 -5
BITMAP
3180
3180
3180
0000
1F00
3180
60C0
60C0
60C0
60C0
60C0
7FC0
60C0
60C0
60C0
60C0
60C0
0000
0000
0000
0000
0000
ENDCHAR
STARTCHAR uni04D3
ENCODING 1235
SWIDTH 500 0
DWIDTH 11 0
BBX 11 22 0 -5
BITMAP
0000
0000
0000
3180
3180
3180
0000
3F00
0180
00C0
00C0
3FC0
60C0
60C0
60C0
60C0
3FC0
0000
0000
0000
0000
0000
ENDCHAR
STARTCHAR uni04D4
ENCODING 1236
SWIDTH 500 0
DWIDTH 11 0
BBX 11 22 0 -5
BITMAP
0000
0000
0000
3FE0
6600
C600
C600
C600
C600
FFE0
C600
C600
C600
C600
C600
C600
C7E0
0000
0000
0000
0000
0000
ENDCHAR
STARTCHAR uni04D5
ENCODING 1237
SWIDTH 500 0
DWIDTH 11 0
BBX 11 22 0 -5
BITMAP
0000
0000
0000
0000
0000
0000
0000
7B80
0CC0
0CC0
0CC0
7FC0
CC00
CC00
CC00
CCC0
7780
0000
0000
0000
0000
0000
ENDCHAR
STARTCHAR uni04D6
ENCODING 1238
SWIDTH 500 0
DWIDTH 11 0
BBX 11 22 0 -5
BITMAP
3180
3180
1F00
0000
7FC0
6000
6000
6000
6000
6000
7F00
6000
6000
6000
6000
6000
7FC0
0000
0000
0000
0000
0000
ENDCHAR
STARTCHAR uni04D7
ENCODING 1239
SWIDTH 500 0
DWIDTH 11 0
BBX 11 22 0 -5
BITMAP
0000
0000
0000
3180
3180
1F00
0000
1F00
3180
60C0
60C0
7FC0
6000
6000
6000
30C0
1F80
0000
0000
0000
0000
0000
ENDCHAR
STARTCHAR uni04D8
ENCODING 1240
SWIDTH 500 0
DWIDTH 11 0
BBX 11 22 0 -5
BITMAP
0000
0000
0000
1F00
3180
60C0
00C0
00C0
00C0
7FC0
60C0
60C0
60C0
60C0
60C0
3180
1F00
0000
0000
0000
0000
0000
ENDCHAR
STARTCHAR afii10846
ENCODING 1241
SWIDTH 500 0
DWIDTH 11 0
BBX 11 22 0 -5
BITMAP
0000
0000
0000
0000
0000
0000
0000
3F00
6180
00C0
00C0
00C0
7FC0
60C0
60C0
3180
1F00
0000
0000
0000
0000
0000
ENDCHAR
STARTCHAR uni04DA
ENCODING 1242
SWIDTH 500 0
DWIDTH 11 0
BBX 11 22 0 -5
BITMAP
3180
3180
3180
0000
1F00
3180
60C0
00C0
00C0
00C0
7FC0
60C0
60C0
60C0
60C0
3180
1F00
0000
0000
0000
0000
0000
ENDCHAR
STARTCHAR uni04DB
ENCODING 1243
SWIDTH 500 0
DWIDTH 11 0
BBX 11 22 0 -5
BITMAP
0000
0000
0000
3180
3180
3180
0000
3F00
6180
00C0
00C0
00C0
7FC0
60C0
60C0
3180
1F00
0000
0000
0000
0000
0000
ENDCHAR
STARTCHAR uni04DC
ENCODING 1244
SWIDTH 500 0
DWIDTH 11 0
BBX 11 22 0 -5
BITMAP
3180
3180
3180
0000
CCC0
CCC0
CCC0
CCC0
6D80
3F00
3F00
6D80
CCC0
CCC0
CCC0
CCC0
CCC0
0000
0000
0000
0000
0000
ENDCHAR
STARTCHAR uni04DD
ENCODING 1245
SWIDTH 500 0
DWIDTH 11 0
BBX 11 22 0 -5
BITMAP
0000
0000
0000
3180
3180
3180
0000
CCC0
CCC0
CCC0
6D80
3F00
3F00
6D80
CCC0
CCC0
CCC0
0000
0000
0000
0000
0000
ENDCHAR
STARTCHAR uni04DE
ENCODING 1246
SWIDTH 500 0
DWIDTH 11 0
BBX 11 22 0 -5
BITMAP
3180
3180
3180
0000
1F00
3180
60C0
00C0
00C0
0180
0F00
0180
00C0
00C0
60C0
3180
1F00
0000
0000
0000
0000
0000
ENDCHAR
STARTCHAR uni04DF
ENCODING 1247
SWIDTH 500 0
DWIDTH 11 0
BBX 11 22 0 -5
BITMAP
0000
0000
0000
3180
3180
3180
0000
3F80
60C0
00C0
00C0
0F80
00C0
00C0
00C0
60C0
3F80
0000
0000
0000
0000
0000
ENDCHAR
STARTCHAR uni04E2
ENCODING 1250
SWIDTH 500 0
DWIDTH 11 0
BBX 11 22 0 -5
BITMAP
0000
3F80
0000
60C0
60C0
60C0
60C0
61C0
63C0
66C0
6CC0
78C0
70C0
60C0
60C0
60C0
60C0
0000
0000
0000
0000
0000
ENDCHAR
STARTCHAR uni04E3
ENCODING 1251
SWIDTH 500 0
DWIDTH 11 0
BBX 11 22 0 -5
BITMAP
0000
0000
0000
0000
0000
3F80
0000
60C0
60C0
60C0
60C0
60C0
60C0
60C0
60C0
30C0
1FC0
0000
0000
0000
0000
0000
ENDCHAR
STARTCHAR uni04E4
ENCODING 1252
SWIDTH 500 0
DWIDTH 11 0
BBX 11 22 0 -5
BITMAP
3180
3180
3180
0000
60C0
60C0
60C0
61C0
63C0
66C0
6CC0
78C0
70C0
60C0
60C0
60C0
60C0
0000
0000
0000
0000
0000
ENDCHAR
STARTCHAR uni04E5
ENCODING 1253
SWIDTH 500 0
DWIDTH 11 0
BBX 11 22 0 -5
BITMAP
0000
0000
0000
3180
3180
3180
0000
60C0
60C0
60C0
60C0
60C0
60C0
60C0
60C0
30C0
1FC0
0000
0000
0000
0000
0000
ENDCHAR
STARTCHAR uni04E6
ENCODING 1254
SWIDTH 500 0
DWIDTH 11 0
BBX 11 22 0 -5
BITMAP
3180
3180
3180
0000
1F00
3180
60C0
60C0
60C0
60C0
60C0
60C0
60C0
60C0
60C0
3180
1F00
0000
0000
0000
0000
0000
ENDCHAR
STARTCHAR uni04E7
ENCODING 1255
SWIDTH 500 0
DWIDTH 11 0
BBX 11 22 0 -5
BITMAP
0000
0000
0000
3180
3180
3180
0000
1F00
3180
60C0
60C0
60C0
60C0
60C0
60C0
3180
1F00
0000
0000
0000
0000
0000
ENDCHAR
STARTCHAR uni04E8
ENCODING 1256
SWIDTH 500 0
DWIDTH 11 0
BBX 11 22 0 -5
BITMAP
0000
0000
0000
1F00
3180
60C0
60C0
60C0
60C0
7FC0
60C0
60C0
60C0
60C0
60C0
3180
1F00
0000
0000
0000
0000
0000
ENDCHAR
STARTCHAR uni04E9
ENCODING 1257
SWIDTH 500 0
DWIDTH 11 0
BBX 11 22 0 -5
BITMAP
0000
0000
0000
0000
0000
0000
0000
1F00
3180
60C0
60C0
7FC0
60C0
60C0
60C0
3180
1F00
0000
0000
0000
0000
0000
ENDCHAR
STARTCHAR uni04EA
ENCODING 1258
SWIDTH 500 0
DWIDTH 11 0
BBX 11 22 0 -5
BITMAP
3180
3180
3180
0000
1F00
3180
60C0
60C0
60C0
60C0
7FC0
60C0
60C0
60C0
60C0
3180
1F00
0000
0000
0000
0000
0000
ENDCHAR
STARTCHAR uni04EB
ENCODING 1259
SWIDTH 500 0
DWIDTH 11 0
BBX 11 22 0 -5
BITMAP
0000
0000
0000
3180
3180
3180
0000
1F00
3180
60C0
60C0
7FC0
60C0
60C0
60C0
3180
1F00
0000
0000
0000
0000
0000
ENDCHAR
STARTCHAR uni04EC
ENCODING 1260
SWIDTH 500 0
DWIDTH 11 0
BBX 11 22 0 -5
BITMAP
3180
3180
3180
0000
1F00
3180
60C0
00C0
00C0
00C0
0FC0
00C0
00C0
00C0
60C0
3180
1F00
0000
0000
0000
0000
0000
ENDCHAR
STARTCHAR uni04ED
ENCODING 1261
SWIDTH 500 0
DWIDTH 11 0
BBX 11 22 0 -5
BITMAP
0000
0000
0000
3180
3180
3180
0000
1F00
3180
60C0
00C0
0FC0
00C0
00C0
60C0
3180
1F00
0000
0000
0000
0000
0000
ENDCHAR
STARTCHAR uni04EE
ENCODING 1262
SWIDTH 500 0
DWIDTH 11 0
BBX 11 22 0 -5
BITMAP
0000
3F80
0000
60C0
60C0
60C0
60C0
60C0
60C0
30C0
1FC0
00C0
00C0
00C0
00C0
0180
3F00
0000
0000
0000
0000
0000
ENDCHAR
STARTCHAR uni04EF
ENCODING 1263
SWIDTH 500 0
DWIDTH 11 0
BBX 11 22 0 -5
BITMAP
0000
0000
0000
0000
0000
3F80
0000
60C0
60C0
60C0
60C0
60C0
60C0
60C0
60C0
30C0
1FC0
00C0
00C0
0180
3F00
0000
ENDCHAR
STARTCHAR uni04F0
ENCODING 1264
SWIDTH 500 0
DWIDTH 11 0
BBX 11 22 0 -5
BITMAP
3180
3180
3180
0000
60C0
60C0
60C0
60C0
60C0
60C0
30C0
1FC0
00C0
00C0
00C0
0180
3F00
0000
0000
0000
0000
0000
ENDCHAR
STARTCHAR uni04F1
ENCODING 1265
SWIDTH 500 0
DWIDTH 11 0
BBX 11 22 0 -5
BITMAP
0000
0000
0000
3180
3180
3180
0000
60C0
60C0
60C0
60C0
60C0
60C0
60C0
60C0
30C0
1FC0
00C0
00C0
0180
3F00
0000
ENDCHAR
STARTCHAR uni04F2
ENCODING 1266
SWIDTH 500 0
DWIDTH 11 0
BBX 11 22 0 -5
BITMAP
0660
0CC0
1980
0000
60C0
60C0
60C0
60C0
60C0
60C0
30C0
1FC0
00C0
00C0
00C0
0180
3F00
0000
0000
0000
0000
0000
ENDCHAR
STARTCHAR uni04F3
ENCODING 1267
SWIDTH 500 0
DWIDTH 11 0
BBX 11 22 0 -5
BITMAP
0000
0000
0000
0660
0CC0
1980
0000
60C0
60C0
60C0
60C0
60C0
60C0
60C0
60C0
30C0
1FC0
00C0
00C0
0180
3F00
0000
ENDCHAR
STARTCHAR uni04F4
ENCODING 1268
SWIDTH 500 0
DWIDTH 11 0
BBX 11 22 0 -5
BITMAP
3180
3180
3180
0000
60C0
60C0
60C0
60C0
60C0
30C0
1FC0
00C0
00C0
00C0
00C0
00C0
00C0
0000
0000
0000
0000
0000
ENDCHAR
STARTCHAR uni04F5
ENCODING 1269
SWIDTH 500 0
DWIDTH 11 0
BBX 11 22 0 -5
BITMAP
0000
0000
0000
3180
3180
3180
0000
60C0
60C0
60C0
60C0
30C0
1FC0
00C0
00C0
00C0
00C0
0000
0000
0000
0000
0000
ENDCHAR
STARTCHAR uni04F8
ENCODING 1272
SWIDTH 500 0
DWIDTH 11 0
BBX 11 22 0 -5
BITMAP
6300
6300
6300
0000
C0C0
C0C0
C0C0
C0C0
F8C0
CCC0
C6C0
C6C0
C6C0
C6C0
C6C0
CCC0
F8C0
0000
0000
0000
0000
0000
ENDCHAR
STARTCHAR uni04F9
ENCODING 1273
SWIDTH 500 0
DWIDTH 11 0
BBX 11 22 0 -5
BITMAP
0000
0000
0000
3180
3180
3180
0000
C0C0
C0C0
C0C0
F8C0
CCC0
C6C0
C6C0
C6C0
CCC0
F8C0
0000
0000
0000
0000
0000
ENDCHAR
STARTCHAR afii57664
ENCODING 1488
SWIDTH 500 0
DWIDTH 11 0
BBX 11 22 0 -5
BITMAP
0000
0000
0000
60C0
60C0
30C0
30C0
18C0
18C0
3D80
6F00
C600
C600
C300
C300
C180
C180
0000
0000
0000
0000
0000
ENDCHAR
STARTCHAR afii57665
ENCODING 1489
SWIDTH 500 0
DWIDTH 11 0
BBX 11 22 0 -5
BITMAP
0000
0000
0000
FE00
0300
0180
0180
0180
0180
0180
0180
0180
0180
0180
0180
0180
FFE0
0000
0000
0000
0000
0000
ENDCHAR
STARTCHAR afii57666
ENCODING 1490
SWIDTH 500 0
DWIDTH 11 0
BBX 11 22 0 -5
BITMAP
0000
0000
0000
7C00
0600
0300
0300
0300
0300
0300
0300
0700
0F00
1980
3180
60C0
C0C0
0000
0000
0000
0000
0000
ENDCHAR
STARTCHAR afii57667
ENCODING 1491
SWIDTH 500 0
DWIDTH 11 0
BBX 11 22 0 -5
BITMAP
0000
0000
0000
FFE0
0180
0180
0180
0180
0180
0180
0180
0180
0180
0180
0180
0180
0180
0000
0000
0000
0000
0000
ENDCHAR
STARTCHAR afii57668
ENCODING 1492
SWIDTH 500 0
DWIDTH 11 0
BBX 11 22 0 -5
BITMAP
0000
0000
0000
7F00
0180
00C0
00C0
60C0
60C0
60C0
60C0
60C0
60C0
60C0
60C0
60C0
60C0
0000
0000
0000
0000
0000
ENDCHAR
STARTCHAR afii57669
ENCODING 1493
SWIDTH 500 0
DWIDTH 11 0
BBX 11 22 0 -5
BITMAP
0000
0000
0000
3800
0C00
0600
0600
0600
0600
0600
0600
0600
0600
0600
0600
0600
0600
0000
0000
0000
0000
0000
ENDCHAR
STARTCHAR afii57670
ENCODING 1494
SWIDTH 500 0
DWIDTH 11 0
BBX 11 22 0 -5
BITMAP
0000
0000
0000
7F80
0300
0600
0C00
0C00
0C00
0C00
0C00
0C00
0C00
0C00
0C00
0C00
0C00
0000
0000
0000
0000
0000
ENDCHAR
STARTCHAR afii57671
ENCODING 1495
SWIDTH 500 0
DWIDTH 11 0
BBX 11 22 0 -5
BITMAP
0000
0000
0000
7F00
6180
60C0
60C0
60C0
60C0
60C0
60C0
60C0
60C0
60C0
60C0
60C0
60C0
0000
0000
0000
0000
0000
ENDCHAR
STARTCHAR afii57672
ENCODING 1496
SWIDTH 500 0
DWIDTH 11 0
BBX 11 22 0 -5
BITMAP
0000
0000
0000
6700
6180
60C0
60C0
60C0
60C0
60C0
60C0
60C0
60C0
60C0
60C0
3180
1F00
0000
0000
0000
0000
0000
ENDCHAR
STARTCHAR afii57673
ENCODING 1497
SWIDTH 500 0
DWIDTH 11 0
BBX 11 22 0 -5
BITMAP
0000
0000
0000
3800
0C00
0600
0600
0600
0600
0600
0000
0000
0000
0000
0000
0000
0000
0000
0000
0000
0000
0000
ENDCHAR
STARTCHAR afii57674
ENCODING 1498
SWIDTH 500 0
DWIDTH 11 0
BBX 11 22 0 -5
BITMAP
0000
0000
0000
7F00
0180
00C0
00C0
00C0
00C0
00C0
00C0
00C0
00C0
00C0
00C0
00C0
00C0
00C0
00C0
00C0
00C0
0000
ENDCHAR
STARTCHAR afii57675
ENCODING 1499
SWIDTH 500 0
DWIDTH 11 0
BBX 11 22 0 -5
BITMAP
0000
0000
0000
7F00
0180
00C0
00C0
00C0
00C0
00C0
00C0
00C0
00C0
00C0
00C0
0180
7F00
0000
0000
0000
0000
0000
ENDCHAR
STARTCHAR afii57676
ENCODING 1500
SWIDTH 500 0
DWIDTH 11 0
BBX 11 22 0 -5
BITMAP
6000
6000
6000
7FC0
00C0
00C0
00C0
00C0
00C0
0180
0300
0600
0C00
1800
1800
1800
1800
0000
0000
0000
0000
0000
ENDCHAR
STARTCHAR afii57677
ENCODING 1501
SWIDTH 500 0
DWIDTH 11 0
BBX 11 22 0 -5
BITMAP
0000
0000
0000
7F00
6180
60C0
60C0
60C0
60C0
60C0
60C0
60C0
60C0
60C0
60C0
60C0
7FC0
0000
0000
0000
0000
0000
ENDCHAR
STARTCHAR afii57678
ENCODING 1502
SWIDTH 500 0
DWIDTH 11 0
BBX 11 22 0 -5
BITMAP
0000
0000
0000
DF00
F180
60C0
60C0
60C0
60C0
60C0
60C0
60C0
60C0
60C0
60C0
60C0
63C0
0000
0000
0000
0000
0000
ENDCHAR
STARTCHAR afii57679
ENCODING 1503
SWIDTH 500 0
DWIDTH 11 0
BBX 11 22 0 -5
BITMAP
0000
0000
0000
7C00
0600
0300
0300
0300
0300
0300
0300
0300
0300
0300
0300
0300
0300
0300
0300
0300
0300
0000
ENDCHAR
STARTCHAR afii57680
ENCODING 1504
SWIDTH 500 0
DWIDTH 11 0
BBX 11 22 0 -5
BITMAP
0000
0000
0000
3E00
0300
0180
0180
0180
0180
0180
0180
0180
0180
0180
0180
0180
3F80
0000
0000
0000
0000
0000
ENDCHAR
STARTCHAR afii57681
ENCODING 1505
SWIDTH 500 0
DWIDTH 11 0
BBX 11 22 0 -5
BITMAP
0000
0000
0000
FF00
C180
60C0
60C0
60C0
60C0
60C0
60C0
60C0
60C0
60C0
60C0
3180
1F00
0000
0000
0000
0000
0000
ENDCHAR
STARTCHAR afii57682
ENCODING 1506
SWIDTH 500 0
DWIDTH 11 0
BBX 11 22 0 -5
BITMAP
0000
0000
0000
60C0
60C0
60C0
30C0
30C0
30C0
18C0
1980
0D80
0D80
0700
0E00
1C00
7000
0000
0000
0000
0000
0000
ENDCHAR
STARTCHAR afii57683
ENCODING 1507
SWIDTH 500 0
DWIDTH 11 0
BBX 11 22 0 -5
BITMAP
0000
0000
0000
7F00
6180
60C0
60C0
60C0
30C0
1CC0
00C0
00C0
00C0
00C0
00C0
00C0
00C0
00C0
00C0
00C0
00C0
0000
ENDCHAR
STARTCHAR afii57684
ENCODING 1508
SWIDTH 500 0
DWIDTH 11 0
BBX 11 22 0 -5
BITMAP
0000
0000
0000
7F00
6180
60C0
60C0
60C0
30C0
1CC0
00C0
00C0
00C0
00C0
00C0
0180
7F00
0000
0000
0000
0000
0000
ENDCHAR
STARTCHAR afii57685
ENCODING 1509
SWIDTH 500 0
DWIDTH 11 0
BBX 11 22 0 -5
BITMAP
0000
0000
0000
60C0
60C0
30C0
30C0
1980
1B00
0E00
0C00
0C00
0C00
0C00
0C00
0C00
0C00
0C00
0C00
0C00
0C00
0000
ENDCHAR
STARTCHAR afii57686
ENCODING 1510
SWIDTH 500 0
DWIDTH 11 0
BBX 11 22 0 -5
BITMAP
0000
0000
0000
60C0
60C0
30C0
30C0
1980
1B00
0E00
0C00
0600
0600
0300
0300
0180
7F80
0000
0000
0000
0000
0000
ENDCHAR
STARTCHAR afii57687
ENCODING 1511
SWIDTH 500 0
DWIDTH 11 0
BBX 11 22 0 -5
BITMAP
0000
0000
0000
7FC0
00C0
00C0
00C0
60C0
60C0
6180
6300
6600
6600
6600
6600
6600
6600
6000
6000
6000
6000
0000
ENDCHAR
STARTCHAR afii57688
ENCODING 1512
SWIDTH 500 0
DWIDTH 11 0
BBX 11 22 0 -5
BITMAP
0000
0000
0000
7F00
0180
00C0
00C0
00C0
00C0
00C0
00C0
00C0
00C0
00C0
00C0
00C0
00C0
0000
0000
0000
0000
0000
ENDCHAR
STARTCHAR afii57689
ENCODING 1513
SWIDTH 500 0
DWIDTH 11 0
BBX 11 22 0 -5
BITMAP
0000
0000
0000
6660
6660
6660
6660
6660
6660
6660
6C60
7860
6060
6060
6060
60C0
7F80
0000
0000
0000
0000
0000
ENDCHAR
STARTCHAR afii57690
ENCODING 1514
SWIDTH 500 0
DWIDTH 11 0
BBX 11 22 0 -5
BITMAP
0000
0000
0000
FF00
C180
60C0
60C0
60C0
60C0
60C0
60C0
60C0
60C0
60C0
60C0
E0C0
C0C0
0000
0000
0000
0000
0000
ENDCHAR
STARTCHAR uni1E0C
ENCODING 7692
SWIDTH 500 0
DWIDTH 11 0
BBX 11 22 0 -5
BITMAP
0000
0000
0000
7F00
6180
60C0
60C0
60C0
60C0
60C0
60C0
60C0
60C0
60C0
60C0
6180
7F00
0000
0C00
0C00
0C00
0000
ENDCHAR
STARTCHAR uni1E0D
ENCODING 7693
SWIDTH 500 0
DWIDTH 11 0
BBX 11 22 0 -5
BITMAP
0000
0000
0000
00C0
00C0
00C0
00C0
1FC0
30C0
60C0
60C0
60C0
60C0
60C0
60C0
30C0
1FC0
0000
0600
0600
0600
0000
ENDCHAR
STARTCHAR Klinebelow
ENCODING 7732
SWIDTH 500 0
DWIDTH 11 0
BBX 11 22 0 -5
BITMAP
0000
0000
0000
60C0
60C0
6180
6300
6600
6C00
7800
7800
6C00
6600
6300
6180
60C0
60C0
0000
3F80
0000
0000
0000
ENDCHAR
STARTCHAR klinebelow
ENCODING 7733
SWIDTH 500 0
DWIDTH 11 0
BBX 11 22 0 -5
BITMAP
0000
0000
0000
3000
3000
3000
3000
30C0
3180
3300
3600
3C00
3C00
3600
3300
3180
30C0
0000
1F80
0000
0000
0000
ENDCHAR
STARTCHAR uni1E36
ENCODING 7734
SWIDTH 500 0
DWIDTH 11 0
BBX 11 22 0 -5
BITMAP
0000
0000
0000
6000
6000
6000
6000
6000
6000
6000
6000
6000
6000
6000
6000
6000
7FC0
0000
0C00
0C00
0C00
0000
ENDCHAR
STARTCHAR uni1E37
ENCODING 7735
SWIDTH 500 0
DWIDTH 11 0
BBX 11 22 0 -5
BITMAP
0000
0000
0000
1E00
0600
0600
0600
0600
0600
0600
0600
0600
0600
0600
0600
0600
1F80
0000
0C00
0C00
0C00
0000
ENDCHAR
STARTCHAR uni1E40
ENCODING 7744
SWIDTH 500 0
DWIDTH 11 0
BBX 11 22 0 -5
BITMAP
0C00
0C00
0C00
8040
C0C0
E1C0
F3C0
DEC0
CCC0
C0C0
C0C0
C0C0
C0C0
C0C0
C0C0
C0C0
C0C0
0000
0000
0000
0000
0000
ENDCHAR
STARTCHAR uni1E41
ENCODING 7745
SWIDTH 500 0
DWIDTH 11 0
BBX 11 22 0 -5
BITMAP
0000
0000
0000
0C00
0C00
0C00
0000
FF00
CD80
CCC0
CCC0
CCC0
CCC0
CCC0
CCC0
CCC0
CCC0
0000
0000
0000
0000
0000
ENDCHAR
STARTCHAR uni1E42
ENCODING 7746
SWIDTH 500 0
DWIDTH 11 0
BBX 11 22 0 -5
BITMAP
0000
0000
0000
8040
C0C0
E1C0
F3C0
DEC0
CCC0
C0C0
C0C0
C0C0
C0C0
C0C0
C0C0
C0C0
C0C0
0000
0C00
0C00
0C00
0000
ENDCHAR
STARTCHAR uni1E43
ENCODING 7747
SWIDTH 500 0
DWIDTH 11 0
BBX 11 22 0 -5
BITMAP
0000
0000
0000
0000
0000
0000
0000
FF00
CD80
CCC0
CCC0
CCC0
CCC0
CCC0
CCC0
CCC0
CCC0
0000
0C00
0C00
0C00
0000
ENDCHAR
STARTCHAR uni1E44
ENCODING 7748
SWIDTH 500 0
DWIDTH 11 0
BBX 11 22 0 -5
BITMAP
0C00
0C00
0C00
60C0
60C0
60C0
60C0
70C0
78C0
6CC0
66C0
63C0
61C0
60C0
60C0
60C0
60C0
0000
0000
0000
0000
0000
ENDCHAR
STARTCHAR uni1E45
ENCODING 7749
SWIDTH 500 0
DWIDTH 11 0
BBX 11 22 0 -5
BITMAP
0000
0000
0000
0C00
0C00
0C00
0000
7F00
6180
60C0
60C0
60C0
60C0
60C0
60C0
60C0
60C0
0000
0000
0000
0000
0000
ENDCHAR
STARTCHAR uni1E46
ENCODING 7750
SWIDTH 500 0
DWIDTH 11 0
BBX 11 22 0 -5
BITMAP
0000
0000
0000
60C0
60C0
60C0
60C0
70C0
78C0
6CC0
66C0
63C0
61C0
60C0
60C0
60C0
60C0
0000
0C00
0C00
0C00
0000
ENDCHAR
STARTCHAR uni1E47
ENCODING 7751
SWIDTH 500 0
DWIDTH 11 0
BBX 11 22 0 -5
BITMAP
0000
0000
0000
0000
0000
0000
0000
7F00
6180
60C0
60C0
60C0
60C0
60C0
60C0
60C0
60C0
0000
0C00
0C00
0C00
0000
ENDCHAR
STARTCHAR uni1E6C
ENCODING 7788
SWIDTH 500 0
DWIDTH 11 0
BBX 11 22 0 -5
BITMAP
0000
0000
0000
FFC0
0C00
0C00
0C00
0C00
0C00
0C00
0C00
0C00
0C00
0C00
0C00
0C00
0C00
0000
0C00
0C00
0C00
0000
ENDCHAR
STARTCHAR uni1E6D
ENCODING 7789
SWIDTH 500 0
DWIDTH 11 0
BBX 11 22 0 -5
BITMAP
0000
0000
0000
0C00
0C00
0C00
0C00
7F80
0C00
0C00
0C00
0C00
0C00
0C00
0C00
0C00
07C0
0000
0300
0300
0300
0000
ENDCHAR
STARTCHAR Edotbelow
ENCODING 7864
SWIDTH 500 0
DWIDTH 11 0
BBX 11 22 0 -5
BITMAP
0000
0000
0000
7FC0
6000
6000
6000
6000
6000
7F00
6000
6000
6000
6000
6000
6000
7FC0
0000
0C00
0C00
0C00
0000
ENDCHAR
STARTCHAR edotbelow
ENCODING 7865
SWIDTH 500 0
DWIDTH 11 0
BBX 11 22 0 -5
BITMAP
0000
0000
0000
0000
0000
0000
0000
1F00
3180
60C0
60C0
7FC0
6000
6000
6000
30C0
1F80
0000
0C00
0C00
0C00
0000
ENDCHAR
STARTCHAR Etilde
ENCODING 7868
SWIDTH 500 0
DWIDTH 11 0
BBX 11 22 0 -5
BITMAP
1CC0
36C0
3380
0000
7FC0
6000
6000
6000
6000
6000
7F00
6000
6000
6000
6000
6000
7FC0
0000
0000
0000
0000
0000
ENDCHAR
STARTCHAR etilde
ENCODING 7869
SWIDTH 500 0
DWIDTH 11 0
BBX 11 22 0 -5
BITMAP
0000
0000
0000
1CC0
36C0
3380
0000
1F00
3180
60C0
60C0
7FC0
6000
6000
6000
30C0
1F80
0000
0000
0000
0000
0000
ENDCHAR
STARTCHAR uni1ECA
ENCODING 7882
SWIDTH 500 0
DWIDTH 11 0
BBX 11 22 0 -5
BITMAP
0000
0000
0000
3F00
0C00
0C00
0C00
0C00
0C00
0C00
0C00
0C00
0C00
0C00
0C00
0C00
3F00
0000
0C00
0C00
0C00
0000
ENDCHAR
STARTCHAR uni1ECB
ENCODING 7883
SWIDTH 500 0
DWIDTH 11 0
BBX 11 22 0 -5
BITMAP
0000
0000
0000
0600
0600
0600
0000
1E00
0600
0600
0600
0600
0600
0600
0600
0600
1F80
0000
0600
0600
0600
0000
ENDCHAR
STARTCHAR Odotbelow
ENCODING 7884
SWIDTH 500 0
DWIDTH 11 0
BBX 11 22 0 -5
BITMAP
0000
0000
0000
1F00
3180
60C0
60C0
60C0
60C0
60C0
60C0
60C0
60C0
60C0
60C0
3180
1F00
0000
0C00
0C00
0C00
0000
ENDCHAR
STARTCHAR odotbelow
ENCODING 7885
SWIDTH 500 0
DWIDTH 11 0
BBX 11 22 0 -5
BITMAP
0000
0000
0000
0000
0000
0000
0000
1F00
3180
60C0
60C0
60C0
60C0
60C0
60C0
3180
1F00
0000
0C00
0C00
0C00
0000
ENDCHAR
STARTCHAR uni1EE4
ENCODING 7908
SWIDTH 500 0
DWIDTH 11 0
BBX 11 22 0 -5
BITMAP
0000
0000
0000
60C0
60C0
60C0
60C0
60C0
60C0
60C0
60C0
60C0
60C0
60C0
60C0
3180
1F00
0000
0C00
0C00
0C00
0000
ENDCHAR
STARTCHAR uni1EE5
ENCODING 7909
SWIDTH 500 0
DWIDTH 11 0
BBX 11 22 0 -5
BITMAP
0000
0000
0000
0000
0000
0000
0000
60C0
60C0
60C0
60C0
60C0
60C0
60C0
60C0
30C0
1FC0
0000
0600
0600
0600
0000
ENDCHAR
STARTCHAR Ytilde
ENCODING 7928
SWIDTH 500 0
DWIDTH 11 0
BBX 11 22 0 -5
BITMAP
3980
6D80
6700
0000
C0C0
C0C0
6180
6180
3300
3300
1E00
0C00
0C00
0C00
0C00
0C00
0C00
0000
0000
0000
0000
0000
ENDCHAR
STARTCHAR ytilde
ENCODING 7929
SWIDTH 500 0
DWIDTH 11 0
BBX 11 22 0 -5
BITMAP
0000
0000
0000
1CC0
36C0
3380
0000
60C0
60C0
60C0
60C0
60C0
60C0
60C0
60C0
30C0
1FC0
00C0
00C0
0180
3F00
0000
ENDCHAR
STARTCHAR uni2000
ENCODING 8192
SWIDTH 500 0
DWIDTH 11 0
BBX 11 22 0 -5
BITMAP
0000
0000
0000
0000
0000
0000
0000
0000
0000
0000
0000
0000
0000
0000
0000
0000
0000
0000
0000
0000
0000
0000
ENDCHAR
STARTCHAR uni2001
ENCODING 8193
SWIDTH 500 0
DWIDTH 11 0
BBX 11 22 0 -5
BITMAP
0000
0000
0000
0000
0000
0000
0000
0000
0000
0000
0000
0000
0000
0000
0000
0000
0000
0000
0000
0000
0000
0000
ENDCHAR
STARTCHAR enspace
ENCODING 8194
SWIDTH 500 0
DWIDTH 11 0
BBX 11 22 0 -5
BITMAP
0000
0000
0000
0000
0000
0000
0000
0000
0000
0000
0000
0000
0000
0000
0000
0000
0000
0000
0000
0000
0000
0000
ENDCHAR
STARTCHAR uni2003
ENCODING 8195
SWIDTH 500 0
DWIDTH 11 0
BBX 11 22 0 -5
BITMAP
0000
0000
0000
0000
0000
0000
0000
0000
0000
0000
0000
0000
0000
0000
0000
0000
0000
0000
0000
0000
0000
0000
ENDCHAR
STARTCHAR uni2004
ENCODING 8196
SWIDTH 500 0
DWIDTH 11 0
BBX 11 22 0 -5
BITMAP
0000
0000
0000
0000
0000
0000
0000
0000
0000
0000
0000
0000
0000
0000
0000
0000
0000
0000
0000
0000
0000
0000
ENDCHAR
STARTCHAR uni2005
ENCODING 8197
SWIDTH 500 0
DWIDTH 11 0
BBX 11 22 0 -5
BITMAP
0000
0000
0000
0000
0000
0000
0000
0000
0000
0000
0000
0000
0000
0000
0000
0000
0000
0000
0000
0000
0000
0000
ENDCHAR
STARTCHAR uni2006
ENCODING 8198
SWIDTH 500 0
DWIDTH 11 0
BBX 11 22 0 -5
BITMAP
0000
0000
0000
0000
0000
0000
0000
0000
0000
0000
0000
0000
0000
0000
0000
0000
0000
0000
0000
0000
0000
0000
ENDCHAR
STARTCHAR uni2007
ENCODING 8199
SWIDTH 500 0
DWIDTH 11 0
BBX 11 22 0 -5
BITMAP
0000
0000
0000
0000
0000
0000
0000
0000
0000
0000
0000
0000
0000
0000
0000
0000
0000
0000
0000
0000
0000
0000
ENDCHAR
STARTCHAR uni2008
ENCODING 8200
SWIDTH 500 0
DWIDTH 11 0
BBX 11 22 0 -5
BITMAP
0000
0000
0000
0000
0000
0000
0000
0000
0000
0000
0000
0000
0000
0000
0000
0000
0000
0000
0000
0000
0000
0000
ENDCHAR
STARTCHAR uni2009
ENCODING 8201
SWIDTH 500 0
DWIDTH 11 0
BBX 11 22 0 -5
BITMAP
0000
0000
0000
0000
0000
0000
0000
0000
0000
0000
0000
0000
0000
0000
0000
0000
0000
0000
0000
0000
0000
0000
ENDCHAR
STARTCHAR uni200A
ENCODING 8202
SWIDTH 500 0
DWIDTH 11 0
BBX 11 22 0 -5
BITMAP
0000
0000
0000
0000
0000
0000
0000
0000
0000
0000
0000
0000
0000
0000
0000
0000
0000
0000
0000
0000
0000
0000
ENDCHAR
STARTCHAR uni200B
ENCODING 8203
SWIDTH 500 0
DWIDTH 11 0
BBX 11 22 0 -5
BITMAP
0000
0000
0000
0000
0000
0000
0000
0000
0000
0000
0000
0000
0000
0000
0000
0000
0000
0000
0000
0000
0000
0000
ENDCHAR
STARTCHAR afii61664
ENCODING 8204
SWIDTH 500 0
DWIDTH 11 0
BBX 11 22 0 -5
BITMAP
0000
0000
0000
0000
0000
0000
0000
0000
0000
0000
0000
0000
0000
0000
0000
0000
0000
0000
0000
0000
0000
0000
ENDCHAR
STARTCHAR afii301
ENCODING 8205
SWIDTH 500 0
DWIDTH 11 0
BBX 11 22 0 -5
BITMAP
0000
0000
0000
0000
0000
0000
0000
0000
0000
0000
0000
0000
0000
0000
0000
0000
0000
0000
0000
0000
0000
0000
ENDCHAR
STARTCHAR afii299
ENCODING 8206
SWIDTH 500 0
DWIDTH 11 0
BBX 11 22 0 -5
BITMAP
0000
0000
0000
0000
0000
0000
0000
0000
0000
0000
0000
0000
0000
0000
0000
0000
0000
0000
0000
0000
0000
0000
ENDCHAR
STARTCHAR afii300
ENCODING 8207
SWIDTH 500 0
DWIDTH 11 0
BBX 11 22 0 -5
BITMAP
0000
0000
0000
0000
0000
0000
0000
0000
0000
0000
0000
0000
0000
0000
0000
0000
0000
0000
0000
0000
0000
0000
ENDCHAR
STARTCHAR hyphentwo
ENCODING 8208
SWIDTH 500 0
DWIDTH 11 0
BBX 11 22 0 -5
BITMAP
0000
0000
0000
0000
0000
0000
0000
0000
0000
0000
7FC0
0000
0000
0000
0000
0000
0000
0000
0000
0000
0000
0000
ENDCHAR
STARTCHAR uni2011
ENCODING 8209
SWIDTH 500 0
DWIDTH 11 0
BBX 11 22 0 -5
BITMAP
0000
0000
0000
0000
0000
0000
0000
0000
0000
0000
7FC0
0000
0000
0000
0000
0000
0000
0000
0000
0000
0000
0000
ENDCHAR
STARTCHAR figuredash
ENCODING 8210
SWIDTH 500 0
DWIDTH 11 0
BBX 11 22 0 -5
BITMAP
0000
0000
0000
0000
0000
0000
0000
0000
0000
0000
7FC0
0000
0000
0000
0000
0000
0000
0000
0000
0000
0000
0000
ENDCHAR
STARTCHAR endash
ENCODING 8211
SWIDTH 500 0
DWIDTH 11 0
BBX 11 22 0 -5
BITMAP
0000
0000
0000
0000
0000
0000
0000
0000
0000
0000
7FC0
0000
0000
0000
0000
0000
0000
0000
0000
0000
0000
0000
ENDCHAR
STARTCHAR emdash
ENCODING 8212
SWIDTH 500 0
DWIDTH 11 0
BBX 11 22 0 -5
BITMAP
0000
0000
0000
0000
0000
0000
0000
0000
0000
0000
FFC0
0000
0000
0000
0000
0000
0000
0000
0000
0000
0000
0000
ENDCHAR
STARTCHAR afii00208
ENCODING 8213
SWIDTH 500 0
DWIDTH 11 0
BBX 11 22 0 -5
BITMAP
0000
0000
0000
0000
0000
0000
0000
0000
0000
0000
FFC0
0000
0000
0000
0000
0000
0000
0000
0000
0000
0000
0000
ENDCHAR
STARTCHAR dblverticalbar
ENCODING 8214
SWIDTH 500 0
DWIDTH 11 0
BBX 11 22 0 -5
BITMAP
0000
0000
0000
1B00
1B00
1B00
1B00
1B00
1B00
1B00
1B00
1B00
1B00
1B00
1B00
1B00
1B00
0000
0000
0000
0000
0000
ENDCHAR
STARTCHAR underscoredbl
ENCODING 8215
SWIDTH 500 0
DWIDTH 11 0
BBX 11 22 0 -5
BITMAP
0000
0000
0000
0000
0000
0000
0000
0000
0000
0000
0000
0000
0000
0000
0000
0000
0000
0000
7FC0
0000
0000
7FC0
ENDCHAR
STARTCHAR quoteleft
ENCODING 8216
SWIDTH 500 0
DWIDTH 11 0
BBX 11 22 0 -5
BITMAP
0000
0300
0600
0600
0600
0600
0000
0000
0000
0000
0000
0000
0000
0000
0000
0000
0000
0000
0000
0000
0000
0000
ENDCHAR
STARTCHAR quoteright
ENCODING 8217
SWIDTH 500 0
DWIDTH 11 0
BBX 11 22 0 -5
BITMAP
0000
0600
0600
0600
0600
0C00
0000
0000
0000
0000
0000
0000
0000
0000
0000
0000
0000
0000
0000
0000
0000
0000
ENDCHAR
STARTCHAR quotesinglbase
ENCODING 8218
SWIDTH 500 0
DWIDTH 11 0
BBX 11 22 0 -5
BITMAP
0000
0000
0000
0000
0000
0000
0000
0000
0000
0000
0000
0000
0000
0C00
0C00
0C00
0C00
1800
0000
0000
0000
0000
ENDCHAR
STARTCHAR quotereversed
ENCODING 8219
SWIDTH 500 0
DWIDTH 11 0
BBX 11 22 0 -5
BITMAP
0000
0C00
0C00
0C00
0C00
0600
0000
0000
0000
0000
0000
0000
0000
0000
0000
0000
0000
0000
0000
0000
0000
0000
ENDCHAR
STARTCHAR quotedblleft
ENCODING 8220
SWIDTH 500 0
DWIDTH 11 0
BBX 11 22 0 -5
BITMAP
0000
0CC0
1980
1980
1980
1980
0000
0000
0000
0000
0000
0000
0000
0000
0000
0000
0000
0000
0000
0000
0000
0000
ENDCHAR
STARTCHAR quotedblright
ENCODING 8221
SWIDTH 500 0
DWIDTH 11 0
BBX 11 22 0 -5
BITMAP
0000
1980
1980
1980
1980
3300
0000
0000
0000
0000
0000
0000
0000
0000
0000
0000
0000
0000
0000
0000
0000
0000
ENDCHAR
STARTCHAR quotedblbase
ENCODING 8222
SWIDTH 500 0
DWIDTH 11 0
BBX 11 22 0 -5
BITMAP
0000
0000
0000
0000
0000
0000
0000
0000
0000
0000
0000
0000
0000
1980
1980
1980
1980
3300
0000
0000
0000
0000
ENDCHAR
STARTCHAR uni201F
ENCODING 8223
SWIDTH 500 0
DWIDTH 11 0
BBX 11 22 0 -5
BITMAP
0000
3300
3300
3300
3300
1980
0000
0000
0000
0000
0000
0000
0000
0000
0000
0000
0000
0000
0000
0000
0000
0000
ENDCHAR
STARTCHAR dagger
ENCODING 8224
SWIDTH 500 0
DWIDTH 11 0
BBX 11 22 0 -5
BITMAP
0000
0000
0000
0C00
0C00
0C00
7F80
0C00
0C00
0C00
0C00
0C00
0C00
0C00
0C00
0C00
0C00
0000
0000
0000
0000
0000
ENDCHAR
STARTCHAR daggerdbl
ENCODING 8225
SWIDTH 500 0
DWIDTH 11 0
BBX 11 22 0 -5
BITMAP
0000
0000
0000
0C00
0C00
0C00
7F80
0C00
0C00
0C00
0C00
0C00
0C00
7F80
0C00
0C00
0C00
0000
0000
0000
0000
0000
ENDCHAR
STARTCHAR bullet
ENCODING 8226
SWIDTH 500 0
DWIDTH 11 0
BBX 11 22 0 -5
BITMAP
0000
0000
0000
0000
0000
0000
0000
0000
0E00
1F00
1F00
1F00
0E00
0000
0000
0000
0000
0000
0000
0000
0000
0000
ENDCHAR
STARTCHAR ellipsis
ENCODING 8230
SWIDTH 500 0
DWIDTH 11 0
BBX 11 22 0 -5
BITMAP
0000
0000
0000
0000
0000
0000
0000
0000
0000
0000
0000
0000
0000
0000
CCC0
CCC0
CCC0
0000
0000
0000
0000
0000
ENDCHAR
STARTCHAR perthousand
ENCODING 8240
SWIDTH 500 0
DWIDTH 11 0
BBX 11 22 0 -5
BITMAP
0000
0000
0000
7300
DB00
DE00
7600
0C00
0C00
1800
1800
3000
3000
7DC0
7760
F760
DDC0
0000
0000
0000
0000
0000
ENDCHAR
STARTCHAR minute
ENCODING 8242
SWIDTH 500 0
DWIDTH 11 0
BBX 11 22 0 -5
BITMAP
0000
0600
0600
0600
0600
0400
0400
0000
0000
0000
0000
0000
0000
0000
0000
0000
0000
0000
0000
0000
0000
0000
ENDCHAR
STARTCHAR second
ENCODING 8243
SWIDTH 500 0
DWIDTH 11 0
BBX 11 22 0 -5
BITMAP
0000
1980
1980
1980
1980
1100
1100
0000
0000
0000
0000
0000
0000
0000
0000
0000
0000
0000
0000
0000
0000
0000
ENDCHAR
STARTCHAR guilsinglleft
ENCODING 8249
SWIDTH 500 0
DWIDTH 11 0
BBX 11 22 0 -5
BITMAP
0000
0000
0000
0000
0000
0000
0000
0300
0600
0C00
1800
3000
3000
1800
0C00
0600
0300
0000
0000
0000
0000
0000
ENDCHAR
STARTCHAR guilsinglright
ENCODING 8250
SWIDTH 500 0
DWIDTH 11 0
BBX 11 22 0 -5
BITMAP
0000
0000
0000
0000
0000
0000
0000
3000
1800
0C00
0600
0300
0300
0600
0C00
1800
3000
0000
0000
0000
0000
0000
ENDCHAR
STARTCHAR exclamdbl
ENCODING 8252
SWIDTH 500 0
DWIDTH 11 0
BBX 11 22 0 -5
BITMAP
0000
0000
0000
3300
3300
3300
3300
3300
3300
3300
3300
3300
0000
0000
3300
3300
3300
0000
0000
0000
0000
0000
ENDCHAR
STARTCHAR overline
ENCODING 8254
SWIDTH 500 0
DWIDTH 11 0
BBX 11 22 0 -5
BITMAP
0000
7FC0
0000
0000
0000
0000
0000
0000
0000
0000
0000
0000
0000
0000
0000
0000
0000
0000
0000
0000
0000
0000
ENDCHAR
STARTCHAR uni2070
ENCODING 8304
SWIDTH 500 0
DWIDTH 11 0
BBX 11 22 0 -5
BITMAP
0000
1E00
3300
3300
3300
3300
3300
3300
1E00
0000
0000
0000
0000
0000
0000
0000
0000
0000
0000
0000
0000
0000
ENDCHAR
STARTCHAR uni2071
ENCODING 8305
SWIDTH 500 0
DWIDTH 11 0
BBX 11 22 0 -5
BITMAP
0C00
0C00
0000
1C00
0C00
0C00
0C00
0C00
1E00
0000
0000
0000
0000
0000
0000
0000
0000
0000
0000
0000
0000
0000
ENDCHAR
STARTCHAR uni2074
ENCODING 8308
SWIDTH 500 0
DWIDTH 11 0
BBX 11 22 0 -5
BITMAP
0000
0300
0700
0F00
1B00
3300
3F00
0300
0300
0000
0000
0000
0000
0000
0000
0000
0000
0000
0000
0000
0000
0000
ENDCHAR
STARTCHAR uni2075
ENCODING 8309
SWIDTH 500 0
DWIDTH 11 0
BBX 11 22 0 -5
BITMAP
0000
3F00
3000
3000
3E00
0300
0300
3300
1E00
0000
0000
0000
0000
0000
0000
0000
0000
0000
0000
0000
0000
0000
ENDCHAR
STARTCHAR uni2076
ENCODING 8310
SWIDTH 500 0
DWIDTH 11 0
BBX 11 22 0 -5
BITMAP
0000
1E00
3000
3000
3E00
3300
3300
3300
1E00
0000
0000
0000
0000
0000
0000
0000
0000
0000
0000
0000
0000
0000
ENDCHAR
STARTCHAR uni2077
ENCODING 8311
SWIDTH 500 0
DWIDTH 11 0
BBX 11 22 0 -5
BITMAP
0000
3F00
0300
0300
0600
0600
0C00
0C00
0C00
0000
0000
0000
0000
0000
0000
0000
0000
0000
0000
0000
0000
0000
ENDCHAR
STARTCHAR uni2078
ENCODING 8312
SWIDTH 500 0
DWIDTH 11 0
BBX 11 22 0 -5
BITMAP
0000
1E00
3300
3300
1E00
3300
3300
3300
1E00
0000
0000
0000
0000
0000
0000
0000
0000
0000
0000
0000
0000
0000
ENDCHAR
STARTCHAR uni2079
ENCODING 8313
SWIDTH 500 0
DWIDTH 11 0
BBX 11 22 0 -5
BITMAP
0000
1E00
3300
3300
3300
1F00
0300
0300
1E00
0000
0000
0000
0000
0000
0000
0000
0000
0000
0000
0000
0000
0000
ENDCHAR
STARTCHAR uni207A
ENCODING 8314
SWIDTH 500 0
DWIDTH 11 0
BBX 11 22 0 -5
BITMAP
0000
0000
0C00
0C00
0C00
7F80
0C00
0C00
0C00
0000
0000
0000
0000
0000
0000
0000
0000
0000
0000
0000
0000
0000
ENDCHAR
STARTCHAR uni207B
ENCODING 8315
SWIDTH 500 0
DWIDTH 11 0
BBX 11 22 0 -5
BITMAP
0000
0000
0000
0000
0000
3F80
0000
0000
0000
0000
0000
0000
0000
0000
0000
0000
0000
0000
0000
0000
0000
0000
ENDCHAR
STARTCHAR uni207C
ENCODING 8316
SWIDTH 500 0
DWIDTH 11 0
BBX 11 22 0 -5
BITMAP
0000
0000
0000
3F80
0000
0000
3F80
0000
0000
0000
0000
0000
0000
0000
0000
0000
0000
0000
0000
0000
0000
0000
ENDCHAR
STARTCHAR uni207D
ENCODING 8317
SWIDTH 500 0
DWIDTH 11 0
BBX 11 22 0 -5
BITMAP
0000
0600
0C00
1800
1800
1800
1800
0C00
0600
0000
0000
0000
0000
0000
0000
0000
0000
0000
0000
0000
0000
0000
ENDCHAR
STARTCHAR uni207E
ENCODING 8318
SWIDTH 500 0
DWIDTH 11 0
BBX 11 22 0 -5
BITMAP
0000
1800
0C00
0600
0600
0600
0600
0C00
1800
0000
0000
0000
0000
0000
0000
0000
0000
0000
0000
0000
0000
0000
ENDCHAR
STARTCHAR nsuperior
ENCODING 8319
SWIDTH 500 0
DWIDTH 11 0
BBX 11 22 0 -5
BITMAP
0000
0000
3F00
3180
3180
3180
3180
3180
3180
0000
0000
0000
0000
0000
0000
0000
0000
0000
0000
0000
0000
0000
ENDCHAR
STARTCHAR uni2080
ENCODING 8320
SWIDTH 500 0
DWIDTH 11 0
BBX 11 22 0 -5
BITMAP
0000
0000
0000
0000
0000
0000
0000
0000
0000
0000
0000
1E00
3300
3300
3300
3300
3300
3300
1E00
0000
0000
0000
ENDCHAR
STARTCHAR uni2081
ENCODING 8321
SWIDTH 500 0
DWIDTH 11 0
BBX 11 22 0 -5
BITMAP
0000
0000
0000
0000
0000
0000
0000
0000
0000
0000
0000
0C00
1C00
0C00
0C00
0C00
0C00
0C00
1E00
0000
0000
0000
ENDCHAR
STARTCHAR uni2082
ENCODING 8322
SWIDTH 500 0
DWIDTH 11 0
BBX 11 22 0 -5
BITMAP
0000
0000
0000
0000
0000
0000
0000
0000
0000
0000
0000
1E00
3300
3300
0300
0600
0C00
1800
3F00
0000
0000
0000
ENDCHAR
STARTCHAR uni2083
ENCODING 8323
SWIDTH 500 0
DWIDTH 11 0
BBX 11 22 0 -5
BITMAP
0000
0000
0000
0000
0000
0000
0000
0000
0000
0000
0000
1E00
3300
0300
0E00
0300
0300
3300
1E00
0000
0000
0000
ENDCHAR
STARTCHAR uni2084
ENCODING 8324
SWIDTH 500 0
DWIDTH 11 0
BBX 11 22 0 -5
BITMAP
0000
0000
0000
0000
0000
0000
0000
0000
0000
0000
0000
0300
0700
0F00
1B00
3300
3F00
0300
0300
0000
0000
0000
ENDCHAR
STARTCHAR uni2085
ENCODING 8325
SWIDTH 500 0
DWIDTH 11 0
BBX 11 22 0 -5
BITMAP
0000
0000
0000
0000
0000
0000
0000
0000
0000
0000
0000
3F00
3000
3000
3E00
0300
0300
3300
1E00
0000
0000
0000
ENDCHAR
STARTCHAR uni2086
ENCODING 8326
SWIDTH 500 0
DWIDTH 11 0
BBX 11 22 0 -5
BITMAP
0000
0000
0000
0000
0000
0000
0000
0000
0000
0000
0000
1E00
3000
3000
3E00
3300
3300
3300
1E00
0000
0000
0000
ENDCHAR
STARTCHAR uni2087
ENCODING 8327
SWIDTH 500 0
DWIDTH 11 0
BBX 11 22 0 -5
BITMAP
0000
0000
0000
0000
0000
0000
0000
0000
0000
0000
0000
3F00
0300
0300
0600
0600
0C00
0C00
0C00
0000
0000
0000
ENDCHAR
STARTCHAR uni2088
ENCODING 8328
SWIDTH 500 0
DWIDTH 11 0
BBX 11 22 0 -5
BITMAP
0000
0000
0000
0000
0000
0000
0000
0000
0000
0000
0000
1E00
3300
3300
1E00
3300
3300
3300
1E00
0000
0000
0000
ENDCHAR
STARTCHAR uni2089
ENCODING 8329
SWIDTH 500 0
DWIDTH 11 0
BBX 11 22 0 -5
BITMAP
0000
0000
0000
0000
0000
0000
0000
0000
0000
0000
0000
1E00
3300
3300
3300
1F00
0300
0300
1E00
0000
0000
0000
ENDCHAR
STARTCHAR uni208A
ENCODING 8330
SWIDTH 500 0
DWIDTH 11 0
BBX 11 22 0 -5
BITMAP
0000
0000
0000
0000
0000
0000
0000
0000
0000
0000
0000
0000
0C00
0C00
0C00
7F80
0C00
0C00
0C00
0000
0000
0000
ENDCHAR
STARTCHAR uni208B
ENCODING 8331
SWIDTH 500 0
DWIDTH 11 0
BBX 11 22 0 -5
BITMAP
0000
0000
0000
0000
0000
0000
0000
0000
0000
0000
0000
0000
0000
0000
0000
3F80
0000
0000
0000
0000
0000
0000
ENDCHAR
STARTCHAR uni208C
ENCODING 8332
SWIDTH 500 0
DWIDTH 11 0
BBX 11 22 0 -5
BITMAP
0000
0000
0000
0000
0000
0000
0000
0000
0000
0000
0000
0000
0000
3F80
0000
0000
3F80
0000
0000
0000
0000
0000
ENDCHAR
STARTCHAR uni208D
ENCODING 8333
SWIDTH 500 0
DWIDTH 11 0
BBX 11 22 0 -5
BITMAP
0000
0000
0000
0000
0000
0000
0000
0000
0000
0000
0000
0600
0C00
1800
1800
1800
1800
0C00
0600
0000
0000
0000
ENDCHAR
STARTCHAR uni208E
ENCODING 8334
SWIDTH 500 0
DWIDTH 11 0
BBX 11 22 0 -5
BITMAP
0000
0000
0000
0000
0000
0000
0000
0000
0000
0000
0000
1800
0C00
0600
0600
0600
0600
0C00
1800
0000
0000
0000
ENDCHAR
STARTCHAR uni2090
ENCODING 8336
SWIDTH 500 0
DWIDTH 11 0
BBX 11 22 0 -5
BITMAP
0000
0000
0000
0000
0000
0000
0000
0000
0000
0000
0000
0000
1F00
0180
1F80
3180
3180
3180
1F80
0000
0000
0000
ENDCHAR
STARTCHAR uni2091
ENCODING 8337
SWIDTH 500 0
DWIDTH 11 0
BBX 11 22 0 -5
BITMAP
0000
0000
0000
0000
0000
0000
0000
0000
0000
0000
0000
0000
1F00
3180
3180
3F80
3000
3000
1F00
0000
0000
0000
ENDCHAR
STARTCHAR uni2092
ENCODING 8338
SWIDTH 500 0
DWIDTH 11 0
BBX 11 22 0 -5
BITMAP
0000
0000
0000
0000
0000
0000
0000
0000
0000
0000
0000
0000
1F00
3180
3180
3180
3180
3180
1F00
0000
0000
0000
ENDCHAR
STARTCHAR uni2093
ENCODING 8339
SWIDTH 500 0
DWIDTH 11 0
BBX 11 22 0 -5
BITMAP
0000
0000
0000
0000
0000
0000
0000
0000
0000
0000
0000
0000
3180
3180
1B00
0E00
1B00
3180
3180
0000
0000
0000
ENDCHAR
STARTCHAR uni2094
ENCODING 8340
SWIDTH 500 0
DWIDTH 11 0
BBX 11 22 0 -5
BITMAP
0000
0000
0000
0000
0000
0000
0000
0000
0000
0000
0000
0000
1F00
0180
0180
3F80
3180
3180
1F00
0000
0000
0000
ENDCHAR
STARTCHAR uni2095
ENCODING 8341
SWIDTH 500 0
DWIDTH 11 0
BBX 11 22 0 -5
BITMAP
0000
0000
0000
0000
0000
0000
0000
0000
0000
3000
3000
3000
3F00
3180
3180
3180
3180
3180
3180
0000
0000
0000
ENDCHAR
STARTCHAR uni2096
ENCODING 8342
SWIDTH 500 0
DWIDTH 11 0
BBX 11 22 0 -5
BITMAP
0000
0000
0000
0000
0000
0000
0000
0000
0000
3000
3000
3000
3180
3300
3600
3C00
3600
3300
3180
0000
0000
0000
ENDCHAR
STARTCHAR uni2097
ENCODING 8343
SWIDTH 500 0
DWIDTH 11 0
BBX 11 22 0 -5
BITMAP
0000
0000
0000
0000
0000
0000
0000
0000
0000
1C00
0C00
0C00
0C00
0C00
0C00
0C00
0C00
0C00
1E00
0000
0000
0000
ENDCHAR
STARTCHAR uni2098
ENCODING 8344
SWIDTH 500 0
DWIDTH 11 0
BBX 11 22 0 -5
BITMAP
0000
0000
0000
0000
0000
0000
0000
0000
0000
0000
0000
0000
7F00
6D80
6D80
6D80
6D80
6D80
6D80
0000
0000
0000
ENDCHAR
STARTCHAR uni209A
ENCODING 8346
SWIDTH 500 0
DWIDTH 11 0
BBX 11 22 0 -5
BITMAP
0000
0000
0000
0000
0000
0000
0000
0000
0000
0000
0000
0000
3F00
3180
3180
3180
3180
3180
3F00
3000
3000
3000
ENDCHAR
STARTCHAR peseta
ENCODING 8359
SWIDTH 500 0
DWIDTH 11 0
BBX 11 22 0 -5
BITMAP
0000
0000
0000
F800
CC00
C600
C600
C600
C600
CC00
FB00
C300
CFC0
C300
C300
C300
C1C0
0000
0000
0000
0000
0000
ENDCHAR
STARTCHAR afii57636
ENCODING 8362
SWIDTH 500 0
DWIDTH 11 0
BBX 11 22 0 -5
BITMAP
0000
0000
0000
F840
8440
8240
8240
9240
9240
9240
9240
9240
9240
9040
9040
9080
9F00
0000
0000
0000
0000
0000
ENDCHAR
STARTCHAR Euro
ENCODING 8364
SWIDTH 500 0
DWIDTH 11 0
BBX 11 22 0 -5
BITMAP
0000
0000
0000
1F00
3180
60C0
6000
6000
FE00
6000
6000
FE00
6000
6000
60C0
3180
1F00
0000
0000
0000
0000
0000
ENDCHAR
STARTCHAR uni20AE
ENCODING 8366
SWIDTH 500 0
DWIDTH 11 0
BBX 11 22 0 -5
BITMAP
0000
0000
0000
FFC0
0C00
0C00
0C00
0F80
0E00
1C00
7F80
0E00
1C00
7C00
0C00
0C00
0C00
0000
0000
0000
0000
0000
ENDCHAR
STARTCHAR uni2102
ENCODING 8450
SWIDTH 500 0
DWIDTH 11 0
BBX 11 22 0 -5
BITMAP
0000
0000
0000
1E00
3100
5080
5080
5000
5000
5000
5000
5000
5000
5080
5080
3100
1E00
0000
0000
0000
0000
0000
ENDCHAR
STARTCHAR uni210E
ENCODING 8462
SWIDTH 500 0
DWIDTH 11 0
BBX 11 22 0 -5
BITMAP
0000
0000
0000
6000
6000
6000
6000
7F00
6180
60C0
60C0
60C0
60C0
60C0
60C0
60C0
60C0
0000
0000
0000
0000
0000
ENDCHAR
STARTCHAR uni210F
ENCODING 8463
SWIDTH 500 0
DWIDTH 11 0
BBX 11 22 0 -5
BITMAP
0000
0000
0000
6000
FE00
6000
6000
7F00
6180
60C0
60C0
60C0
60C0
60C0
60C0
60C0
60C0
0000
0000
0000
0000
0000
ENDCHAR
STARTCHAR uni2115
ENCODING 8469
SWIDTH 500 0
DWIDTH 11 0
BBX 11 22 0 -5
BITMAP
0000
0000
0000
4080
4080
4080
6080
5080
6880
5480
4A80
4580
4280
4180
4080
4080
4080
0000
0000
0000
0000
0000
ENDCHAR
STARTCHAR afii61352
ENCODING 8470
SWIDTH 500 0
DWIDTH 11 0
BBX 11 22 0 -5
BITMAP
0000
0000
0000
CC00
CCC0
CD20
CD20
ECC0
EC00
FC00
FC00
DC00
DDE0
CC00
CDE0
CC00
CC00
0000
0000
0000
0000
0000
ENDCHAR
STARTCHAR uni211A
ENCODING 8474
SWIDTH 500 0
DWIDTH 11 0
BBX 11 22 0 -5
BITMAP
0000
0000
0000
1E00
3100
5080
5080
5080
5080
5080
5080
5080
5080
5080
5480
3300
1F00
0080
0040
0000
0000
0000
ENDCHAR
STARTCHAR uni211D
ENCODING 8477
SWIDTH 500 0
DWIDTH 11 0
BBX 11 22 0 -5
BITMAP
0000
0000
0000
7E00
5100
5080
5080
5080
5080
5100
5E00
5400
5A00
5500
5280
5140
70C0
0000
0000
0000
0000
0000
ENDCHAR
STARTCHAR trademark
ENCODING 8482
SWIDTH 500 0
DWIDTH 11 0
BBX 11 22 0 -5
BITMAP
0000
0000
0000
FE20
3360
33E0
3360
3360
3360
0000
0000
0000
0000
0000
0000
0000
0000
0000
0000
0000
0000
0000
ENDCHAR
STARTCHAR uni2124
ENCODING 8484
SWIDTH 500 0
DWIDTH 11 0
BBX 11 22 0 -5
BITMAP
0000
0000
0000
7F80
0080
0080
0180
0280
0500
0A00
1400
2800
5000
6000
4000
4000
7F80
0000
0000
0000
0000
0000
ENDCHAR
STARTCHAR Ohm
ENCODING 8486
SWIDTH 500 0
DWIDTH 11 0
BBX 11 22 0 -5
BITMAP
0000
0000
0000
1F00
3180
60C0
60C0
60C0
60C0
60C0
60C0
60C0
60C0
3180
1B00
1B00
7BC0
0000
0000
0000
0000
0000
ENDCHAR
STARTCHAR aleph
ENCODING 8501
SWIDTH 500 0
DWIDTH 11 0
BBX 11 22 0 -5
BITMAP
0000
0000
0000
6300
6300
3180
3180
18C0
1860
3CC0
6D80
C700
C600
C300
C300
6180
3180
0000
0000
0000
0000
0000
ENDCHAR
STARTCHAR arrowleft
ENCODING 8592
SWIDTH 500 0
DWIDTH 11 0
BBX 11 22 0 -5
BITMAP
0000
0000
0000
0000
0000
0000
0000
1000
3000
6000
FFC0
FFC0
6000
3000
1000
0000
0000
0000
0000
0000
0000
0000
ENDCHAR
STARTCHAR arrowup
ENCODING 8593
SWIDTH 500 0
DWIDTH 11 0
BBX 11 22 0 -5
BITMAP
0000
0000
0000
0C00
1E00
3F00
6D80
0C00
0C00
0C00
0C00
0C00
0C00
0C00
0C00
0C00
0C00
0000
0000
0000
0000
0000
ENDCHAR
STARTCHAR arrowright
ENCODING 8594
SWIDTH 500 0
DWIDTH 11 0
BBX 11 22 0 -5
BITMAP
0000
0000
0000
0000
0000
0000
0000
0200
0300
0180
FFC0
FFC0
0180
0300
0200
0000
0000
0000
0000
0000
0000
0000
ENDCHAR
STARTCHAR arrowdown
ENCODING 8595
SWIDTH 500 0
DWIDTH 11 0
BBX 11 22 0 -5
BITMAP
0000
0000
0000
0C00
0C00
0C00
0C00
0C00
0C00
0C00
0C00
0C00
0C00
6D80
3F00
1E00
0C00
0000
0000
0000
0000
0000
ENDCHAR
STARTCHAR arrowboth
ENCODING 8596
SWIDTH 500 0
DWIDTH 11 0
BBX 11 22 0 -5
BITMAP
0000
0000
0000
0000
0000
0000
0000
1100
3180
60C0
FFE0
FFE0
60C0
3180
1100
0000
0000
0000
0000
0000
0000
0000
ENDCHAR
STARTCHAR arrowupdn
ENCODING 8597
SWIDTH 500 0
DWIDTH 11 0
BBX 11 22 0 -5
BITMAP
0000
0000
0000
0C00
1E00
3F00
6D80
0C00
0C00
0C00
0C00
0C00
0C00
6D80
3F00
1E00
0C00
0000
0000
0000
0000
0000
ENDCHAR
STARTCHAR uni21A4
ENCODING 8612
SWIDTH 500 0
DWIDTH 11 0
BBX 11 22 0 -5
BITMAP
0000
0000
0000
0000
0000
0000
0000
10C0
30C0
60C0
FFC0
FFC0
60C0
30C0
10C0
0000
0000
0000
0000
0000
0000
0000
ENDCHAR
STARTCHAR uni21A6
ENCODING 8614
SWIDTH 500 0
DWIDTH 11 0
BBX 11 22 0 -5
BITMAP
0000
0000
0000
0000
0000
0000
0000
C200
C300
C180
FFC0
FFC0
C180
C300
C200
0000
0000
0000
0000
0000
0000
0000
ENDCHAR
STARTCHAR arrowupdnbse
ENCODING 8616
SWIDTH 500 0
DWIDTH 11 0
BBX 11 22 0 -5
BITMAP
0000
0000
0000
0C00
1E00
3F00
6D80
0C00
0C00
0C00
0C00
0C00
6D80
3F00
1E00
0C00
7F80
0000
0000
0000
0000
0000
ENDCHAR
STARTCHAR carriagereturn
ENCODING 8629
SWIDTH 500 0
DWIDTH 11 0
BBX 11 22 0 -5
BITMAP
0000
0000
0000
00C0
00C0
00C0
00C0
00C0
00C0
10C0
30C0
60C0
FFC0
FFC0
6000
3000
1000
0000
0000
0000
0000
0000
ENDCHAR
STARTCHAR uni21BB
ENCODING 8635
SWIDTH 500 0
DWIDTH 11 0
BBX 11 22 0 -5
BITMAP
0000
0000
0000
0000
0000
F800
3800
6880
C8C0
C0C0
C0C0
C0C0
C0C0
6180
3F00
0000
0000
0000
0000
0000
0000
0000
ENDCHAR
STARTCHAR uni21CB
ENCODING 8651
SWIDTH 500 0
DWIDTH 11 0
BBX 11 22 0 -5
BITMAP
0000
0000
0000
0000
0000
1000
3000
6000
FFC0
FFC0
0000
FFC0
FFC0
0180
0300
0200
0000
0000
0000
0000
0000
0000
ENDCHAR
STARTCHAR uni21CC
ENCODING 8652
SWIDTH 500 0
DWIDTH 11 0
BBX 11 22 0 -5
BITMAP
0000
0000
0000
0000
0000
0200
0300
0180
FFC0
FFC0
0000
FFC0
FFC0
6000
3000
1000
0000
0000
0000
0000
0000
0000
ENDCHAR
STARTCHAR arrowdblleft
ENCODING 8656
SWIDTH 500 0
DWIDTH 11 0
BBX 11 22 0 -5
BITMAP
0000
0000
0000
0000
0000
0000
0800
1800
3FC0
7FC0
E000
7FC0
3FC0
1800
0800
0000
0000
0000
0000
0000
0000
0000
ENDCHAR
STARTCHAR arrowdblup
ENCODING 8657
SWIDTH 500 0
DWIDTH 11 0
BBX 11 22 0 -5
BITMAP
0000
0000
0000
0400
0E00
1F00
3B80
7BC0
1B00
1B00
1B00
1B00
1B00
1B00
1B00
1B00
1B00
0000
0000
0000
0000
0000
ENDCHAR
STARTCHAR arrowdblright
ENCODING 8658
SWIDTH 500 0
DWIDTH 11 0
BBX 11 22 0 -5
BITMAP
0000
0000
0000
0000
0000
0000
0400
0600
FF00
FF80
01C0
FF80
FF00
0600
0400
0000
0000
0000
0000
0000
0000
0000
ENDCHAR
STARTCHAR arrowdbldown
ENCODING 8659
SWIDTH 500 0
DWIDTH 11 0
BBX 11 22 0 -5
BITMAP
0000
0000
0000
1B00
1B00
1B00
1B00
1B00
1B00
1B00
1B00
1B00
7BC0
3B80
1F00
0E00
0400
0000
0000
0000
0000
0000
ENDCHAR
STARTCHAR arrowdblboth
ENCODING 8660
SWIDTH 500 0
DWIDTH 11 0
BBX 11 22 0 -5
BITMAP
0000
0000
0000
0000
0000
0000
1100
3180
7FC0
FFE0
E0E0
FFE0
7FC0
3180
1100
0000
0000
0000
0000
0000
0000
0000
ENDCHAR
STARTCHAR uni21D5
ENCODING 8661
SWIDTH 500 0
DWIDTH 11 0
BBX 11 22 0 -5
BITMAP
0000
0000
0000
0400
0E00
1F00
3B80
7BC0
1B00
1B00
1B00
1B00
7BC0
3B80
1F00
0E00
0400
0000
0000
0000
0000
0000
ENDCHAR
STARTCHAR universal
ENCODING 8704
SWIDTH 500 0
DWIDTH 11 0
BBX 11 22 0 -5
BITMAP
0000
0000
0000
C0C0
C0C0
C0C0
6180
7F80
6180
3300
3300
3300
1200
1E00
0C00
0C00
0C00
0000
0000
0000
0000
0000
ENDCHAR
STARTCHAR existential
ENCODING 8707
SWIDTH 500 0
DWIDTH 11 0
BBX 11 22 0 -5
BITMAP
0000
0000
0000
0000
7FC0
00C0
00C0
00C0
00C0
00C0
7FC0
00C0
00C0
00C0
00C0
00C0
7FC0
0000
0000
0000
0000
0000
ENDCHAR
STARTCHAR uni2204
ENCODING 8708
SWIDTH 500 0
DWIDTH 11 0
BBX 11 22 0 -5
BITMAP
0000
0000
00C0
00C0
7FC0
01C0
03C0
03C0
06C0
06C0
7FC0
0CC0
0CC0
18C0
18C0
30C0
7FC0
6000
6000
0000
0000
0000
ENDCHAR
STARTCHAR emptyset
ENCODING 8709
SWIDTH 500 0
DWIDTH 11 0
BBX 11 22 0 -5
BITMAP
0000
0000
0000
0000
0000
00C0
0180
1F00
3380
66C0
66C0
6CC0
6CC0
3980
1F00
3000
6000
0000
0000
0000
0000
0000
ENDCHAR
STARTCHAR increment
ENCODING 8710
SWIDTH 500 0
DWIDTH 11 0
BBX 11 22 0 -5
BITMAP
0000
0000
0000
0C00
0C00
0C00
1E00
1E00
3300
3300
3300
6180
6180
6180
C0C0
C0C0
FFC0
0000
0000
0000
0000
0000
ENDCHAR
STARTCHAR gradient
ENCODING 8711
SWIDTH 500 0
DWIDTH 11 0
BBX 11 22 0 -5
BITMAP
0000
0000
0000
FFC0
C0C0
C0C0
6180
6180
6180
3300
3300
3300
1E00
1E00
0C00
0C00
0C00
0000
0000
0000
0000
0000
ENDCHAR
STARTCHAR element
ENCODING 8712
SWIDTH 500 0
DWIDTH 11 0
BBX 11 22 0 -5
BITMAP
0000
0000
0000
0000
0FC0
1800
3000
6000
6000
6000
7FC0
6000
6000
6000
3000
1800
0FC0
0000
0000
0000
0000
0000
ENDCHAR
STARTCHAR notelement
ENCODING 8713
SWIDTH 500 0
DWIDTH 11 0
BBX 11 22 0 -5
BITMAP
0000
0000
00C0
00C0
0FC0
1980
3180
6300
6300
6600
7FC0
6600
6C00
6C00
3800
1800
3FC0
3000
3000
0000
0000
0000
ENDCHAR
STARTCHAR uni220A
ENCODING 8714
SWIDTH 500 0
DWIDTH 11 0
BBX 11 22 0 -5
BITMAP
0000
0000
0000
0000
0000
0000
1FC0
3000
6000
6000
7FC0
6000
6000
3000
1FC0
0000
0000
0000
0000
0000
0000
0000
ENDCHAR
STARTCHAR suchthat
ENCODING 8715
SWIDTH 500 0
DWIDTH 11 0
BBX 11 22 0 -5
BITMAP
0000
0000
0000
0000
7E00
0300
0180
00C0
00C0
00C0
7FC0
00C0
00C0
00C0
0180
0300
7E00
0000
0000
0000
0000
0000
ENDCHAR
STARTCHAR uni220C
ENCODING 8716
SWIDTH 500 0
DWIDTH 11 0
BBX 11 22 0 -5
BITMAP
0000
0000
6000
6000
7E00
3300
3180
18C0
18C0
0CC0
7FC0
0CC0
06C0
06C0
0380
0300
7F80
0180
0180
0000
0000
0000
ENDCHAR
STARTCHAR uni220D
ENCODING 8717
SWIDTH 500 0
DWIDTH 11 0
BBX 11 22 0 -5
BITMAP
0000
0000
0000
0000
0000
0000
7F00
0180
00C0
00C0
7FC0
00C0
00C0
0180
7F00
0000
0000
0000
0000
0000
0000
0000
ENDCHAR
STARTCHAR minus
ENCODING 8722
SWIDTH 500 0
DWIDTH 11 0
BBX 11 22 0 -5
BITMAP
0000
0000
0000
0000
0000
0000
0000
0000
0000
0000
7FC0
0000
0000
0000
0000
0000
0000
0000
0000
0000
0000
0000
ENDCHAR
STARTCHAR uni2213
ENCODING 8723
SWIDTH 500 0
DWIDTH 11 0
BBX 11 22 0 -5
BITMAP
0000
0000
0000
0000
0000
FFC0
0000
0000
0C00
0C00
0C00
0C00
FFC0
0C00
0C00
0C00
0C00
0000
0000
0000
0000
0000
ENDCHAR
STARTCHAR uni2214
ENCODING 8724
SWIDTH 500 0
DWIDTH 11 0
BBX 11 22 0 -5
BITMAP
0000
0000
0000
0C00
0C00
0C00
0000
0000
0C00
0C00
0C00
0C00
FFC0
0C00
0C00
0C00
0C00
0000
0000
0000
0000
0000
ENDCHAR
STARTCHAR uni2215
ENCODING 8725
SWIDTH 500 0
DWIDTH 11 0
BBX 11 22 0 -5
BITMAP
0000
0000
0000
0000
0000
0000
00C0
0180
0300
0600
0C00
1800
3000
6000
C000
0000
0000
0000
0000
0000
0000
0000
ENDCHAR
STARTCHAR uni2216
ENCODING 8726
SWIDTH 500 0
DWIDTH 11 0
BBX 11 22 0 -5
BITMAP
0000
0000
0000
0000
0000
0000
C000
6000
3000
1800
0C00
0600
0300
0180
00C0
0000
0000
0000
0000
0000
0000
0000
ENDCHAR
STARTCHAR bulletoperator
ENCODING 8729
SWIDTH 500 0
DWIDTH 11 0
BBX 11 22 0 -5
BITMAP
0000
0000
0000
0000
0000
0000
0000
0000
0000
0C00
1E00
1E00
0C00
0000
0000
0000
0000
0000
0000
0000
0000
0000
ENDCHAR
STARTCHAR radical
ENCODING 8730
SWIDTH 500 0
DWIDTH 11 0
BBX 11 22 0 -5
BITMAP
0000
01C0
01C0
0180
0180
0180
0180
0180
0180
6180
6180
6180
3180
1980
0D80
0780
0380
0000
0000
0000
0000
0000
ENDCHAR
STARTCHAR infinity
ENCODING 8734
SWIDTH 500 0
DWIDTH 11 0
BBX 11 22 0 -5
BITMAP
0000
0000
0000
0000
0000
0000
0000
7F80
CCC0
CCC0
CCC0
CCC0
CCC0
7F80
0000
0000
0000
0000
0000
0000
0000
0000
ENDCHAR
STARTCHAR orthogonal
ENCODING 8735
SWIDTH 500 0
DWIDTH 11 0
BBX 11 22 0 -5
BITMAP
0000
0000
0000
0000
0000
0000
6000
6000
6000
6000
6000
6000
6000
7FC0
0000
0000
0000
0000
0000
0000
0000
0000
ENDCHAR
STARTCHAR uni2225
ENCODING 8741
SWIDTH 500 0
DWIDTH 11 0
BBX 11 22 0 -5
BITMAP
0000
0000
0000
1B00
1B00
1B00
1B00
1B00
1B00
1B00
1B00
1B00
1B00
1B00
1B00
1B00
1B00
0000
0000
0000
0000
0000
ENDCHAR
STARTCHAR logicaland
ENCODING 8743
SWIDTH 500 0
DWIDTH 11 0
BBX 11 22 0 -5
BITMAP
0000
0000
0000
0000
0000
0000
0000
0C00
0C00
1E00
1E00
3300
3300
6180
6180
C0C0
C0C0
0000
0000
0000
0000
0000
ENDCHAR
STARTCHAR logicalor
ENCODING 8744
SWIDTH 500 0
DWIDTH 11 0
BBX 11 22 0 -5
BITMAP
0000
0000
0000
0000
0000
0000
0000
C0C0
C0C0
6180
6180
3300
3300
1E00
1E00
0C00
0C00
0000
0000
0000
0000
0000
ENDCHAR
STARTCHAR intersection
ENCODING 8745
SWIDTH 500 0
DWIDTH 11 0
BBX 11 22 0 -5
BITMAP
0000
0000
0000
0000
0000
0000
1F00
3180
60C0
60C0
60C0
60C0
60C0
60C0
60C0
60C0
60C0
0000
0000
0000
0000
0000
ENDCHAR
STARTCHAR union
ENCODING 8746
SWIDTH 500 0
DWIDTH 11 0
BBX 11 22 0 -5
BITMAP
0000
0000
0000
0000
0000
0000
60C0
60C0
60C0
60C0
60C0
60C0
60C0
60C0
60C0
3180
1F00
0000
0000
0000
0000
0000
ENDCHAR
STARTCHAR approxequal
ENCODING 8776
SWIDTH 500 0
DWIDTH 11 0
BBX 11 22 0 -5
BITMAP
0000
0000
0000
0000
0000
0000
0000
38C0
6EC0
6380
0000
38C0
6EC0
6380
0000
0000
0000
0000
0000
0000
0000
0000
ENDCHAR
STARTCHAR notequal
ENCODING 8800
SWIDTH 500 0
DWIDTH 11 0
BBX 11 22 0 -5
BITMAP
0000
0000
0000
0000
0000
0000
00C0
7FC0
0300
0600
0C00
1800
7FC0
6000
0000
0000
0000
0000
0000
0000
0000
0000
ENDCHAR
STARTCHAR equivalence
ENCODING 8801
SWIDTH 500 0
DWIDTH 11 0
BBX 11 22 0 -5
BITMAP
0000
0000
0000
0000
0000
0000
7FC0
0000
0000
0000
7FC0
0000
0000
0000
7FC0
0000
0000
0000
0000
0000
0000
0000
ENDCHAR
STARTCHAR lessequal
ENCODING 8804
SWIDTH 500 0
DWIDTH 11 0
BBX 11 22 0 -5
BITMAP
0000
0000
0000
0180
0300
0600
0C00
1800
3000
3000
1800
0C00
0600
0300
0180
0000
7FC0
0000
0000
0000
0000
0000
ENDCHAR
STARTCHAR greaterequal
ENCODING 8805
SWIDTH 500 0
DWIDTH 11 0
BBX 11 22 0 -5
BITMAP
0000
0000
0000
3000
1800
0C00
0600
0300
0180
0180
0300
0600
0C00
1800
3000
0000
7FC0
0000
0000
0000
0000
0000
ENDCHAR
STARTCHAR uni226A
ENCODING 8810
SWIDTH 500 0
DWIDTH 11 0
BBX 11 22 0 -5
BITMAP
0000
0000
0000
0000
0660
0CC0
1980
3300
6600
CC00
CC00
6600
3300
1980
0CC0
0660
0000
0000
0000
0000
0000
0000
ENDCHAR
STARTCHAR uni226B
ENCODING 8811
SWIDTH 500 0
DWIDTH 11 0
BBX 11 22 0 -5
BITMAP
0000
0000
0000
0000
CC00
6600
3300
1980
0CC0
0660
0660
0CC0
1980
3300
6600
CC00
0000
0000
0000
0000
0000
0000
ENDCHAR
STARTCHAR propersubset
ENCODING 8834
SWIDTH 500 0
DWIDTH 11 0
BBX 11 22 0 -5
BITMAP
0000
0000
0000
0000
0000
1FC0
3000
6000
C000
C000
C000
C000
6000
3000
1FC0
0000
0000
0000
0000
0000
0000
0000
ENDCHAR
STARTCHAR propersuperset
ENCODING 8835
SWIDTH 500 0
DWIDTH 11 0
BBX 11 22 0 -5
BITMAP
0000
0000
0000
0000
0000
FE00
0300
0180
00C0
00C0
00C0
00C0
0180
0300
FE00
0000
0000
0000
0000
0000
0000
0000
ENDCHAR
STARTCHAR reflexsubset
ENCODING 8838
SWIDTH 500 0
DWIDTH 11 0
BBX 11 22 0 -5
BITMAP
0000
0000
0000
0000
1FC0
3000
6000
C000
C000
C000
C000
6000
3000
1FC0
0000
0000
FFC0
0000
0000
0000
0000
0000
ENDCHAR
STARTCHAR reflexsuperset
ENCODING 8839
SWIDTH 500 0
DWIDTH 11 0
BBX 11 22 0 -5
BITMAP
0000
0000
0000
0000
FE00
0300
0180
00C0
00C0
00C0
00C0
0180
0300
FE00
0000
0000
FFC0
0000
0000
0000
0000
0000
ENDCHAR
STARTCHAR perpendicular
ENCODING 8869
SWIDTH 500 0
DWIDTH 11 0
BBX 11 22 0 -5
BITMAP
0000
0000
0000
0000
0000
0000
0C00
0C00
0C00
0C00
0C00
0C00
0C00
0C00
0C00
0C00
FFC0
0000
0000
0000
0000
0000
ENDCHAR
STARTCHAR uni22C2
ENCODING 8898
SWIDTH 500 0
DWIDTH 11 0
BBX 11 22 0 -5
BITMAP
0000
0000
0000
1F00
3180
60C0
60C0
60C0
60C0
60C0
60C0
60C0
60C0
60C0
60C0
60C0
60C0
0000
0000
0000
0000
0000
ENDCHAR
STARTCHAR uni22C3
ENCODING 8899
SWIDTH 500 0
DWIDTH 11 0
BBX 11 22 0 -5
BITMAP
0000
0000
0000
60C0
60C0
60C0
60C0
60C0
60C0
60C0
60C0
60C0
60C0
60C0
60C0
3180
1F00
0000
0000
0000
0000
0000
ENDCHAR
STARTCHAR uni2300
ENCODING 8960
SWIDTH 500 0
DWIDTH 11 0
BBX 11 22 0 -5
BITMAP
0000
0000
0000
0000
0000
00C0
0180
1F00
3380
66C0
66C0
6CC0
6CC0
3980
1F00
3000
6000
0000
0000
0000
0000
0000
ENDCHAR
STARTCHAR house
ENCODING 8962
SWIDTH 500 0
DWIDTH 11 0
BBX 11 22 0 -5
BITMAP
0000
0000
0000
0000
0000
0000
0C00
1E00
3300
6180
C0C0
C0C0
C0C0
C0C0
C0C0
C0C0
FFC0
0000
0000
0000
0000
0000
ENDCHAR
STARTCHAR uni2308
ENCODING 8968
SWIDTH 500 0
DWIDTH 11 0
BBX 11 22 0 -5
BITMAP
0000
0000
0000
1F00
1800
1800
1800
1800
1800
1800
1800
1800
1800
1800
1800
1800
1800
0000
0000
0000
0000
0000
ENDCHAR
STARTCHAR uni2309
ENCODING 8969
SWIDTH 500 0
DWIDTH 11 0
BBX 11 22 0 -5
BITMAP
0000
0000
0000
1F00
0300
0300
0300
0300
0300
0300
0300
0300
0300
0300
0300
0300
0300
0000
0000
0000
0000
0000
ENDCHAR
STARTCHAR uni230A
ENCODING 8970
SWIDTH 500 0
DWIDTH 11 0
BBX 11 22 0 -5
BITMAP
0000
0000
0000
1800
1800
1800
1800
1800
1800
1800
1800
1800
1800
1800
1800
1800
1F00
0000
0000
0000
0000
0000
ENDCHAR
STARTCHAR uni230B
ENCODING 8971
SWIDTH 500 0
DWIDTH 11 0
BBX 11 22 0 -5
BITMAP
0000
0000
0000
0300
0300
0300
0300
0300
0300
0300
0300
0300
0300
0300
0300
0300
1F00
0000
0000
0000
0000
0000
ENDCHAR
STARTCHAR revlogicalnot
ENCODING 8976
SWIDTH 500 0
DWIDTH 11 0
BBX 11 22 0 -5
BITMAP
0000
0000
0000
0000
0000
0000
0000
0000
7FC0
6000
6000
6000
6000
0000
0000
0000
0000
0000
0000
0000
0000
0000
ENDCHAR
STARTCHAR uni2319
ENCODING 8985
SWIDTH 500 0
DWIDTH 11 0
BBX 11 22 0 -5
BITMAP
0000
0000
0000
0000
0000
0000
0000
0000
6000
6000
6000
6000
7FC0
0000
0000
0000
0000
0000
0000
0000
0000
0000
ENDCHAR
STARTCHAR integraltp
ENCODING 8992
SWIDTH 500 0
DWIDTH 11 0
BBX 11 22 0 -5
BITMAP
0000
0000
0000
0780
0CC0
0CC0
0C00
0C00
0C00
0C00
0C00
0C00
0C00
0C00
0C00
0C00
0C00
0C00
0C00
0C00
0C00
0C00
ENDCHAR
STARTCHAR integralbt
ENCODING 8993
SWIDTH 500 0
DWIDTH 11 0
BBX 11 22 0 -5
BITMAP
0C00
0C00
0C00
0C00
0C00
0C00
0C00
0C00
0C00
0C00
0C00
0C00
0C00
0C00
CC00
CC00
7800
0000
0000
0000
0000
0000
ENDCHAR
STARTCHAR uni239B
ENCODING 9115
SWIDTH 500 0
DWIDTH 11 0
BBX 11 22 0 -5
BITMAP
0180
0300
0600
0C00
0C00
1800
1800
1800
3000
3000
3000
3000
6000
6000
6000
6000
6000
6000
6000
6000
6000
6000
ENDCHAR
STARTCHAR uni239C
ENCODING 9116
SWIDTH 500 0
DWIDTH 11 0
BBX 11 22 0 -5
BITMAP
6000
6000
6000
6000
6000
6000
6000
6000
6000
6000
6000
6000
6000
6000
6000
6000
6000
6000
6000
6000
6000
6000
ENDCHAR
STARTCHAR uni239D
ENCODING 9117
SWIDTH 500 0
DWIDTH 11 0
BBX 11 22 0 -5
BITMAP
6000
6000
6000
6000
6000
6000
6000
6000
6000
6000
3000
3000
3000
3000
1800
1800
1800
0C00
0C00
0600
0300
0180
ENDCHAR
STARTCHAR uni239E
ENCODING 9118
SWIDTH 500 0
DWIDTH 11 0
BBX 11 22 0 -5
BITMAP
6000
3000
1800
0C00
0C00
0600
0600
0600
0300
0300
0300
0300
0180
0180
0180
0180
0180
0180
0180
0180
0180
0180
ENDCHAR
STARTCHAR uni239F
ENCODING 9119
SWIDTH 500 0
DWIDTH 11 0
BBX 11 22 0 -5
BITMAP
0180
0180
0180
0180
0180
0180
0180
0180
0180
0180
0180
0180
0180
0180
0180
0180
0180
0180
0180
0180
0180
0180
ENDCHAR
STARTCHAR uni23A0
ENCODING 9120
SWIDTH 500 0
DWIDTH 11 0
BBX 11 22 0 -5
BITMAP
0180
0180
0180
0180
0180
0180
0180
0180
0180
0180
0300
0300
0300
0300
0600
0600
0600
0C00
0C00
1800
3000
6000
ENDCHAR
STARTCHAR uni23A1
ENCODING 9121
SWIDTH 500 0
DWIDTH 11 0
BBX 11 22 0 -5
BITMAP
7F80
6000
6000
6000
6000
6000
6000
6000
6000
6000
6000
6000
6000
6000
6000
6000
6000
6000
6000
6000
6000
6000
ENDCHAR
STARTCHAR uni23A2
ENCODING 9122
SWIDTH 500 0
DWIDTH 11 0
BBX 11 22 0 -5
BITMAP
6000
6000
6000
6000
6000
6000
6000
6000
6000
6000
6000
6000
6000
6000
6000
6000
6000
6000
6000
6000
6000
6000
ENDCHAR
STARTCHAR uni23A3
ENCODING 9123
SWIDTH 500 0
DWIDTH 11 0
BBX 11 22 0 -5
BITMAP
6000
6000
6000
6000
6000
6000
6000
6000
6000
6000
6000
6000
6000
6000
6000
6000
6000
6000
6000
6000
6000
7F80
ENDCHAR
STARTCHAR uni23A4
ENCODING 9124
SWIDTH 500 0
DWIDTH 11 0
BBX 11 22 0 -5
BITMAP
7F80
0180
0180
0180
0180
0180
0180
0180
0180
0180
0180
0180
0180
0180
0180
0180
0180
0180
0180
0180
0180
0180
ENDCHAR
STARTCHAR uni23A5
ENCODING 9125
SWIDTH 500 0
DWIDTH 11 0
BBX 11 22 0 -5
BITMAP
0180
0180
0180
0180
0180
0180
0180
0180
0180
0180
0180
0180
0180
0180
0180
0180
0180
0180
0180
0180
0180
0180
ENDCHAR
STARTCHAR uni23A6
ENCODING 9126
SWIDTH 500 0
DWIDTH 11 0
BBX 11 22 0 -5
BITMAP
0180
0180
0180
0180
0180
0180
0180
0180
0180
0180
0180
0180
0180
0180
0180
0180
0180
0180
0180
0180
0180
7F80
ENDCHAR
STARTCHAR uni23A7
ENCODING 9127
SWIDTH 500 0
DWIDTH 11 0
BBX 11 22 0 -5
BITMAP
03C0
0E00
0C00
1800
1800
1800
1800
1800
1800
1800
1800
1800
1800
1800
1800
1800
1800
1800
1800
1800
1800
1800
ENDCHAR
STARTCHAR uni23A8
ENCODING 9128
SWIDTH 500 0
DWIDTH 11 0
BBX 11 22 0 -5
BITMAP
1800
1800
1800
1800
1800
1800
1800
1800
1800
3000
E000
E000
3000
1800
1800
1800
1800
1800
1800
1800
1800
1800
ENDCHAR
STARTCHAR uni23A9
ENCODING 9129
SWIDTH 500 0
DWIDTH 11 0
BBX 11 22 0 -5
BITMAP
1800
1800
1800
1800
1800
1800
1800
1800
1800
1800
1800
1800
1800
1800
1800
1800
1800
1800
1800
0C00
0E00
03C0
ENDCHAR
STARTCHAR uni23AB
ENCODING 9131
SWIDTH 500 0
DWIDTH 11 0
BBX 11 22 0 -5
BITMAP
F000
1C00
0C00
0600
0600
0600
0600
0600
0600
0600
0600
0600
0600
0600
0600
0600
0600
0600
0600
0600
0600
0600
ENDCHAR
STARTCHAR uni23AC
ENCODING 9132
SWIDTH 500 0
DWIDTH 11 0
BBX 11 22 0 -5
BITMAP
0600
0600
0600
0600
0600
0600
0600
0600
0600
0300
01C0
01C0
0300
0600
0600
0600
0600
0600
0600
0600
0600
0600
ENDCHAR
STARTCHAR uni23AD
ENCODING 9133
SWIDTH 500 0
DWIDTH 11 0
BBX 11 22 0 -5
BITMAP
0600
0600
0600
0600
0600
0600
0600
0600
0600
0600
0600
0600
0600
0600
0600
0600
0600
0600
0600
0C00
1C00
F000
ENDCHAR
STARTCHAR uni23AE
ENCODING 9134
SWIDTH 500 0
DWIDTH 11 0
BBX 11 22 0 -5
BITMAP
0C00
0C00
0C00
0C00
0C00
0C00
0C00
0C00
0C00
0C00
0C00
0C00
0C00
0C00
0C00
0C00
0C00
0C00
0C00
0C00
0C00
0C00
ENDCHAR
STARTCHAR uni23AF
ENCODING 9135
SWIDTH 500 0
DWIDTH 11 0
BBX 11 22 0 -5
BITMAP
0000
0000
0000
0000
0000
0000
0000
0000
0000
0000
FFE0
FFE0
0000
0000
0000
0000
0000
0000
0000
0000
0000
0000
ENDCHAR
STARTCHAR uni23BA
ENCODING 9146
SWIDTH 500 0
DWIDTH 11 0
BBX 11 22 0 -5
BITMAP
FFE0
FFE0
0000
0000
0000
0000
0000
0000
0000
0000
0000
0000
0000
0000
0000
0000
0000
0000
0000
0000
0000
0000
ENDCHAR
STARTCHAR uni23BB
ENCODING 9147
SWIDTH 500 0
DWIDTH 11 0
BBX 11 22 0 -5
BITMAP
0000
0000
0000
0000
0000
FFE0
FFE0
0000
0000
0000
0000
0000
0000
0000
0000
0000
0000
0000
0000
0000
0000
0000
ENDCHAR
STARTCHAR uni23BC
ENCODING 9148
SWIDTH 500 0
DWIDTH 11 0
BBX 11 22 0 -5
BITMAP
0000
0000
0000
0000
0000
0000
0000
0000
0000
0000
0000
0000
0000
0000
0000
FFE0
FFE0
0000
0000
0000
0000
0000
ENDCHAR
STARTCHAR uni23BD
ENCODING 9149
SWIDTH 500 0
DWIDTH 11 0
BBX 11 22 0 -5
BITMAP
0000
0000
0000
0000
0000
0000
0000
0000
0000
0000
0000
0000
0000
0000
0000
0000
0000
0000
0000
0000
FFE0
FFE0
ENDCHAR
STARTCHAR uni23D0
ENCODING 9168
SWIDTH 500 0
DWIDTH 11 0
BBX 11 22 0 -5
BITMAP
0C00
0C00
0C00
0C00
0C00
0C00
0C00
0C00
0C00
0C00
0C00
0C00
0C00
0C00
0C00
0C00
0C00
0C00
0C00
0C00
0C00
0C00
ENDCHAR
STARTCHAR uni2409
ENCODING 9225
SWIDTH 500 0
DWIDTH 11 0
BBX 11 22 0 -5
BITMAP
0000
0000
6600
6600
6600
7E00
6600
6600
6600
0000
0FC0
0300
0300
0300
0300
0300
0300
0000
0000
0000
0000
0000
ENDCHAR
STARTCHAR uni240A
ENCODING 9226
SWIDTH 500 0
DWIDTH 11 0
BBX 11 22 0 -5
BITMAP
0000
0000
6000
6000
6000
6000
6000
6000
7E00
0000
0FC0
0C00
0C00
0F00
0C00
0C00
0C00
0000
0000
0000
0000
0000
ENDCHAR
STARTCHAR uni240B
ENCODING 9227
SWIDTH 500 0
DWIDTH 11 0
BBX 11 22 0 -5
BITMAP
0000
0000
CC00
CC00
CC00
CC00
CC00
7800
3000
0000
1F80
0600
0600
0600
0600
0600
0600
0000
0000
0000
0000
0000
ENDCHAR
STARTCHAR uni240C
ENCODING 9228
SWIDTH 500 0
DWIDTH 11 0
BBX 11 22 0 -5
BITMAP
0000
0000
7E00
6000
6000
7800
6000
6000
6000
0000
0FC0
0C00
0C00
0F00
0C00
0C00
0C00
0000
0000
0000
0000
0000
ENDCHAR
STARTCHAR uni240D
ENCODING 9229
SWIDTH 500 0
DWIDTH 11 0
BBX 11 22 0 -5
BITMAP
0000
0000
3C00
6600
6000
6000
6000
6600
3C00
0000
0F80
0CC0
0CC0
0F80
0F00
0D80
0CC0
0000
0000
0000
0000
0000
ENDCHAR
STARTCHAR uni2424
ENCODING 9252
SWIDTH 500 0
DWIDTH 11 0
BBX 11 22 0 -5
BITMAP
0000
0000
6600
6600
7600
7E00
6E00
6600
6600
0000
0C00
0C00
0C00
0C00
0C00
0C00
0FC0
0000
0000
0000
0000
0000
ENDCHAR
STARTCHAR SF100000
ENCODING 9472
SWIDTH 500 0
DWIDTH 11 0
BBX 11 22 0 -5
BITMAP
0000
0000
0000
0000
0000
0000
0000
0000
0000
0000
FFE0
FFE0
0000
0000
0000
0000
0000
0000
0000
0000
0000
0000
ENDCHAR
STARTCHAR uni2501
ENCODING 9473
SWIDTH 500 0
DWIDTH 11 0
BBX 11 22 0 -5
BITMAP
0000
0000
0000
0000
0000
0000
0000
0000
0000
FFE0
FFE0
FFE0
0000
0000
0000
0000
0000
0000
0000
0000
0000
0000
ENDCHAR
STARTCHAR SF110000
ENCODING 9474
SWIDTH 500 0
DWIDTH 11 0
BBX 11 22 0 -5
BITMAP
0C00
0C00
0C00
0C00
0C00
0C00
0C00
0C00
0C00
0C00
0C00
0C00
0C00
0C00
0C00
0C00
0C00
0C00
0C00
0C00
0C00
0C00
ENDCHAR
STARTCHAR uni2503
ENCODING 9475
SWIDTH 500 0
DWIDTH 11 0
BBX 11 22 0 -5
BITMAP
0E00
0E00
0E00
0E00
0E00
0E00
0E00
0E00
0E00
0E00
0E00
0E00
0E00
0E00
0E00
0E00
0E00
0E00
0E00
0E00
0E00
0E00
ENDCHAR
STARTCHAR uni2508
ENCODING 9480
SWIDTH 500 0
DWIDTH 11 0
BBX 11 22 0 -5
BITMAP
0000
0000
0000
0000
0000
0000
0000
0000
0000
0000
D6C0
D6C0
0000
0000
0000
0000
0000
0000
0000
0000
0000
0000
ENDCHAR
STARTCHAR uni2509
ENCODING 9481
SWIDTH 500 0
DWIDTH 11 0
BBX 11 22 0 -5
BITMAP
0000
0000
0000
0000
0000
0000
0000
0000
0000
D6C0
D6C0
D6C0
0000
0000
0000
0000
0000
0000
0000
0000
0000
0000
ENDCHAR
STARTCHAR uni250A
ENCODING 9482
SWIDTH 500 0
DWIDTH 11 0
BBX 11 22 0 -5
BITMAP
0C00
0C00
0C00
0C00
0C00
0000
0C00
0C00
0C00
0C00
0000
0C00
0C00
0C00
0C00
0000
0C00
0C00
0C00
0C00
0C00
0000
ENDCHAR
STARTCHAR uni250B
ENCODING 9483
SWIDTH 500 0
DWIDTH 11 0
BBX 11 22 0 -5
BITMAP
0E00
0E00
0E00
0E00
0E00
0000
0E00
0E00
0E00
0E00
0000
0E00
0E00
0E00
0E00
0E00
0000
0E00
0E00
0E00
0E00
0000
ENDCHAR
STARTCHAR SF010000
ENCODING 9484
SWIDTH 500 0
DWIDTH 11 0
BBX 11 22 0 -5
BITMAP
0000
0000
0000
0000
0000
0000
0000
0000
0000
0000
0FE0
0FE0
0C00
0C00
0C00
0C00
0C00
0C00
0C00
0C00
0C00
0C00
ENDCHAR
STARTCHAR uni250D
ENCODING 9485
SWIDTH 500 0
DWIDTH 11 0
BBX 11 22 0 -5
BITMAP
0000
0000
0000
0000
0000
0000
0000
0000
0000
0FE0
0FE0
0FE0
0C00
0C00
0C00
0C00
0C00
0C00
0C00
0C00
0C00
0C00
ENDCHAR
STARTCHAR uni250E
ENCODING 9486
SWIDTH 500 0
DWIDTH 11 0
BBX 11 22 0 -5
BITMAP
0000
0000
0000
0000
0000
0000
0000
0000
0000
0000
0FE0
0FE0
0E00
0E00
0E00
0E00
0E00
0E00
0E00
0E00
0E00
0E00
ENDCHAR
STARTCHAR uni250F
ENCODING 9487
SWIDTH 500 0
DWIDTH 11 0
BBX 11 22 0 -5
BITMAP
0000
0000
0000
0000
0000
0000
0000
0000
0000
0FE0
0FE0
0FE0
0E00
0E00
0E00
0E00
0E00
0E00
0E00
0E00
0E00
0E00
ENDCHAR
STARTCHAR SF030000
ENCODING 9488
SWIDTH 500 0
DWIDTH 11 0
BBX 11 22 0 -5
BITMAP
0000
0000
0000
0000
0000
0000
0000
0000
0000
0000
FC00
FC00
0C00
0C00
0C00
0C00
0C00
0C00
0C00
0C00
0C00
0C00
ENDCHAR
STARTCHAR uni2511
ENCODING 9489
SWIDTH 500 0
DWIDTH 11 0
BBX 11 22 0 -5
BITMAP
0000
0000
0000
0000
0000
0000
0000
0000
0000
FC00
FC00
FC00
0C00
0C00
0C00
0C00
0C00
0C00
0C00
0C00
0C00
0C00
ENDCHAR
STARTCHAR uni2512
ENCODING 9490
SWIDTH 500 0
DWIDTH 11 0
BBX 11 22 0 -5
BITMAP
0000
0000
0000
0000
0000
0000
0000
0000
0000
0000
FE00
FE00
0E00
0E00
0E00
0E00
0E00
0E00
0E00
0E00
0E00
0E00
ENDCHAR
STARTCHAR uni2513
ENCODING 9491
SWIDTH 500 0
DWIDTH 11 0
BBX 11 22 0 -5
BITMAP
0000
0000
0000
0000
0000
0000
0000
0000
0000
FE00
FE00
FE00
0E00
0E00
0E00
0E00
0E00
0E00
0E00
0E00
0E00
0E00
ENDCHAR
STARTCHAR SF020000
ENCODING 9492
SWIDTH 500 0
DWIDTH 11 0
BBX 11 22 0 -5
BITMAP
0C00
0C00
0C00
0C00
0C00
0C00
0C00
0C00
0C00
0C00
0FE0
0FE0
0000
0000
0000
0000
0000
0000
0000
0000
0000
0000
ENDCHAR
STARTCHAR uni2515
ENCODING 9493
SWIDTH 500 0
DWIDTH 11 0
BBX 11 22 0 -5
BITMAP
0C00
0C00
0C00
0C00
0C00
0C00
0C00
0C00
0C00
0FE0
0FE0
0FE0
0000
0000
0000
0000
0000
0000
0000
0000
0000
0000
ENDCHAR
STARTCHAR uni2516
ENCODING 9494
SWIDTH 500 0
DWIDTH 11 0
BBX 11 22 0 -5
BITMAP
0E00
0E00
0E00
0E00
0E00
0E00
0E00
0E00
0E00
0E00
0FE0
0FE0
0000
0000
0000
0000
0000
0000
0000
0000
0000
0000
ENDCHAR
STARTCHAR uni2517
ENCODING 9495
SWIDTH 500 0
DWIDTH 11 0
BBX 11 22 0 -5
BITMAP
0E00
0E00
0E00
0E00
0E00
0E00
0E00
0E00
0E00
0FE0
0FE0
0FE0
0000
0000
0000
0000
0000
0000
0000
0000
0000
0000
ENDCHAR
STARTCHAR SF040000
ENCODING 9496
SWIDTH 500 0
DWIDTH 11 0
BBX 11 22 0 -5
BITMAP
0C00
0C00
0C00
0C00
0C00
0C00
0C00
0C00
0C00
0C00
FC00
FC00
0000
0000
0000
0000
0000
0000
0000
0000
0000
0000
ENDCHAR
STARTCHAR uni2519
ENCODING 9497
SWIDTH 500 0
DWIDTH 11 0
BBX 11 22 0 -5
BITMAP
0C00
0C00
0C00
0C00
0C00
0C00
0C00
0C00
0C00
FC00
FC00
FC00
0000
0000
0000
0000
0000
0000
0000
0000
0000
0000
ENDCHAR
STARTCHAR uni251A
ENCODING 9498
SWIDTH 500 0
DWIDTH 11 0
BBX 11 22 0 -5
BITMAP
0E00
0E00
0E00
0E00
0E00
0E00
0E00
0E00
0E00
0E00
FE00
FE00
0000
0000
0000
0000
0000
0000
0000
0000
0000
0000
ENDCHAR
STARTCHAR uni251B
ENCODING 9499
SWIDTH 500 0
DWIDTH 11 0
BBX 11 22 0 -5
BITMAP
0E00
0E00
0E00
0E00
0E00
0E00
0E00
0E00
0E00
FE00
FE00
FE00
0000
0000
0000
0000
0000
0000
0000
0000
0000
0000
ENDCHAR
STARTCHAR SF080000
ENCODING 9500
SWIDTH 500 0
DWIDTH 11 0
BBX 11 22 0 -5
BITMAP
0C00
0C00
0C00
0C00
0C00
0C00
0C00
0C00
0C00
0C00
0FE0
0FE0
0C00
0C00
0C00
0C00
0C00
0C00
0C00
0C00
0C00
0C00
ENDCHAR
STARTCHAR uni251D
ENCODING 9501
SWIDTH 500 0
DWIDTH 11 0
BBX 11 22 0 -5
BITMAP
0C00
0C00
0C00
0C00
0C00
0C00
0C00
0C00
0C00
0FE0
0FE0
0FE0
0C00
0C00
0C00
0C00
0C00
0C00
0C00
0C00
0C00
0C00
ENDCHAR
STARTCHAR uni251E
ENCODING 9502
SWIDTH 500 0
DWIDTH 11 0
BBX 11 22 0 -5
BITMAP
0E00
0E00
0E00
0E00
0E00
0E00
0E00
0E00
0E00
0E00
0FE0
0FE0
0C00
0C00
0C00
0C00
0C00
0C00
0C00
0C00
0C00
0C00
ENDCHAR
STARTCHAR uni251F
ENCODING 9503
SWIDTH 500 0
DWIDTH 11 0
BBX 11 22 0 -5
BITMAP
0C00
0C00
0C00
0C00
0C00
0C00
0C00
0C00
0C00
0C00
0FE0
0FE0
0E00
0E00
0E00
0E00
0E00
0E00
0E00
0E00
0E00
0E00
ENDCHAR
STARTCHAR uni2520
ENCODING 9504
SWIDTH 500 0
DWIDTH 11 0
BBX 11 22 0 -5
BITMAP
0E00
0E00
0E00
0E00
0E00
0E00
0E00
0E00
0E00
0E00
0FE0
0FE0
0E00
0E00
0E00
0E00
0E00
0E00
0E00
0E00
0E00
0E00
ENDCHAR
STARTCHAR uni2521
ENCODING 9505
SWIDTH 500 0
DWIDTH 11 0
BBX 11 22 0 -5
BITMAP
0E00
0E00
0E00
0E00
0E00
0E00
0E00
0E00
0E00
0FE0
0FE0
0FE0
0C00
0C00
0C00
0C00
0C00
0C00
0C00
0C00
0C00
0C00
ENDCHAR
STARTCHAR uni2522
ENCODING 9506
SWIDTH 500 0
DWIDTH 11 0
BBX 11 22 0 -5
BITMAP
0C00
0C00
0C00
0C00
0C00
0C00
0C00
0C00
0C00
0FE0
0FE0
0FE0
0E00
0E00
0E00
0E00
0E00
0E00
0E00
0E00
0E00
0E00
ENDCHAR
STARTCHAR uni2523
ENCODING 9507
SWIDTH 500 0
DWIDTH 11 0
BBX 11 22 0 -5
BITMAP
0E00
0E00
0E00
0E00
0E00
0E00
0E00
0E00
0E00
0FE0
0FE0
0FE0
0E00
0E00
0E00
0E00
0E00
0E00
0E00
0E00
0E00
0E00
ENDCHAR
STARTCHAR SF090000
ENCODING 9508
SWIDTH 500 0
DWIDTH 11 0
BBX 11 22 0 -5
BITMAP
0C00
0C00
0C00
0C00
0C00
0C00
0C00
0C00
0C00
0C00
FC00
FC00
0C00
0C00
0C00
0C00
0C00
0C00
0C00
0C00
0C00
0C00
ENDCHAR
STARTCHAR uni2525
ENCODING 9509
SWIDTH 500 0
DWIDTH 11 0
BBX 11 22 0 -5
BITMAP
0C00
0C00
0C00
0C00
0C00
0C00
0C00
0C00
0C00
FC00
FC00
FC00
0C00
0C00
0C00
0C00
0C00
0C00
0C00
0C00
0C00
0C00
ENDCHAR
STARTCHAR uni2526
ENCODING 9510
SWIDTH 500 0
DWIDTH 11 0
BBX 11 22 0 -5
BITMAP
0E00
0E00
0E00
0E00
0E00
0E00
0E00
0E00
0E00
0E00
FE00
FE00
0C00
0C00
0C00
0C00
0C00
0C00
0C00
0C00
0C00
0C00
ENDCHAR
STARTCHAR uni2527
ENCODING 9511
SWIDTH 500 0
DWIDTH 11 0
BBX 11 22 0 -5
BITMAP
0C00
0C00
0C00
0C00
0C00
0C00
0C00
0C00
0C00
0C00
FE00
FE00
0E00
0E00
0E00
0E00
0E00
0E00
0E00
0E00
0E00
0E00
ENDCHAR
STARTCHAR uni2528
ENCODING 9512
SWIDTH 500 0
DWIDTH 11 0
BBX 11 22 0 -5
BITMAP
0E00
0E00
0E00
0E00
0E00
0E00
0E00
0E00
0E00
0E00
FE00
FE00
0E00
0E00
0E00
0E00
0E00
0E00
0E00
0E00
0E00
0E00
ENDCHAR
STARTCHAR uni2529
ENCODING 9513
SWIDTH 500 0
DWIDTH 11 0
BBX 11 22 0 -5
BITMAP
0E00
0E00
0E00
0E00
0E00
0E00
0E00
0E00
0E00
FE00
FE00
FE00
0C00
0C00
0C00
0C00
0C00
0C00
0C00
0C00
0C00
0C00
ENDCHAR
STARTCHAR uni252A
ENCODING 9514
SWIDTH 500 0
DWIDTH 11 0
BBX 11 22 0 -5
BITMAP
0C00
0C00
0C00
0C00
0C00
0C00
0C00
0C00
0C00
FE00
FE00
FE00
0E00
0E00
0E00
0E00
0E00
0E00
0E00
0E00
0E00
0E00
ENDCHAR
STARTCHAR uni252B
ENCODING 9515
SWIDTH 500 0
DWIDTH 11 0
BBX 11 22 0 -5
BITMAP
0E00
0E00
0E00
0E00
0E00
0E00
0E00
0E00
0E00
FE00
FE00
FE00
0E00
0E00
0E00
0E00
0E00
0E00
0E00
0E00
0E00
0E00
ENDCHAR
STARTCHAR SF060000
ENCODING 9516
SWIDTH 500 0
DWIDTH 11 0
BBX 11 22 0 -5
BITMAP
0000
0000
0000
0000
0000
0000
0000
0000
0000
0000
FFE0
FFE0
0C00
0C00
0C00
0C00
0C00
0C00
0C00
0C00
0C00
0C00
ENDCHAR
STARTCHAR uni252D
ENCODING 9517
SWIDTH 500 0
DWIDTH 11 0
BBX 11 22 0 -5
BITMAP
0000
0000
0000
0000
0000
0000
0000
0000
0000
FC00
FFE0
FFE0
0C00
0C00
0C00
0C00
0C00
0C00
0C00
0C00
0C00
0C00
ENDCHAR
STARTCHAR uni252E
ENCODING 9518
SWIDTH 500 0
DWIDTH 11 0
BBX 11 22 0 -5
BITMAP
0000
0000
0000
0000
0000
0000
0000
0000
0000
0FE0
FFE0
FFE0
0C00
0C00
0C00
0C00
0C00
0C00
0C00
0C00
0C00
0C00
ENDCHAR
STARTCHAR uni252F
ENCODING 9519
SWIDTH 500 0
DWIDTH 11 0
BBX 11 22 0 -5
BITMAP
0000
0000
0000
0000
0000
0000
0000
0000
0000
FFE0
FFE0
FFE0
0C00
0C00
0C00
0C00
0C00
0C00
0C00
0C00
0C00
0C00
ENDCHAR
STARTCHAR uni2530
ENCODING 9520
SWIDTH 500 0
DWIDTH 11 0
BBX 11 22 0 -5
BITMAP
0000
0000
0000
0000
0000
0000
0000
0000
0000
0000
FFE0
FFE0
0E00
0E00
0E00
0E00
0E00
0E00
0E00
0E00
0E00
0E00
ENDCHAR
STARTCHAR uni2531
ENCODING 9521
SWIDTH 500 0
DWIDTH 11 0
BBX 11 22 0 -5
BITMAP
0000
0000
0000
0000
0000
0000
0000
0000
0000
FE00
FFE0
FFE0
0E00
0E00
0E00
0E00
0E00
0E00
0E00
0E00
0E00
0E00
ENDCHAR
STARTCHAR uni2532
ENCODING 9522
SWIDTH 500 0
DWIDTH 11 0
BBX 11 22 0 -5
BITMAP
0000
0000
0000
0000
0000
0000
0000
0000
0000
0FE0
FFE0
FFE0
0E00
0E00
0E00
0E00
0E00
0E00
0E00
0E00
0E00
0E00
ENDCHAR
STARTCHAR uni2533
ENCODING 9523
SWIDTH 500 0
DWIDTH 11 0
BBX 11 22 0 -5
BITMAP
0000
0000
0000
0000
0000
0000
0000
0000
0000
FFE0
FFE0
FFE0
0E00
0E00
0E00
0E00
0E00
0E00
0E00
0E00
0E00
0E00
ENDCHAR
STARTCHAR SF070000
ENCODING 9524
SWIDTH 500 0
DWIDTH 11 0
BBX 11 22 0 -5
BITMAP
0C00
0C00
0C00
0C00
0C00
0C00
0C00
0C00
0C00
0C00
FFE0
FFE0
0000
0000
0000
0000
0000
0000
0000
0000
0000
0000
ENDCHAR
STARTCHAR uni2535
ENCODING 9525
SWIDTH 500 0
DWIDTH 11 0
BBX 11 22 0 -5
BITMAP
0C00
0C00
0C00
0C00
0C00
0C00
0C00
0C00
0C00
FC00
FFE0
FFE0
0000
0000
0000
0000
0000
0000
0000
0000
0000
0000
ENDCHAR
STARTCHAR uni2536
ENCODING 9526
SWIDTH 500 0
DWIDTH 11 0
BBX 11 22 0 -5
BITMAP
0C00
0C00
0C00
0C00
0C00
0C00
0C00
0C00
0C00
0FE0
FFE0
FFE0
0000
0000
0000
0000
0000
0000
0000
0000
0000
0000
ENDCHAR
STARTCHAR uni2537
ENCODING 9527
SWIDTH 500 0
DWIDTH 11 0
BBX 11 22 0 -5
BITMAP
0C00
0C00
0C00
0C00
0C00
0C00
0C00
0C00
0C00
FFE0
FFE0
FFE0
0000
0000
0000
0000
0000
0000
0000
0000
0000
0000
ENDCHAR
STARTCHAR uni2538
ENCODING 9528
SWIDTH 500 0
DWIDTH 11 0
BBX 11 22 0 -5
BITMAP
0E00
0E00
0E00
0E00
0E00
0E00
0E00
0E00
0E00
0E00
FFE0
FFE0
0000
0000
0000
0000
0000
0000
0000
0000
0000
0000
ENDCHAR
STARTCHAR uni2539
ENCODING 9529
SWIDTH 500 0
DWIDTH 11 0
BBX 11 22 0 -5
BITMAP
0E00
0E00
0E00
0E00
0E00
0E00
0E00
0E00
0E00
FE00
FFE0
FFE0
0000
0000
0000
0000
0000
0000
0000
0000
0000
0000
ENDCHAR
STARTCHAR uni253A
ENCODING 9530
SWIDTH 500 0
DWIDTH 11 0
BBX 11 22 0 -5
BITMAP
0E00
0E00
0E00
0E00
0E00
0E00
0E00
0E00
0E00
0FE0
FFE0
FFE0
0000
0000
0000
0000
0000
0000
0000
0000
0000
0000
ENDCHAR
STARTCHAR uni253B
ENCODING 9531
SWIDTH 500 0
DWIDTH 11 0
BBX 11 22 0 -5
BITMAP
0E00
0E00
0E00
0E00
0E00
0E00
0E00
0E00
0E00
FFE0
FFE0
FFE0
0000
0000
0000
0000
0000
0000
0000
0000
0000
0000
ENDCHAR
STARTCHAR SF050000
ENCODING 9532
SWIDTH 500 0
DWIDTH 11 0
BBX 11 22 0 -5
BITMAP
0C00
0C00
0C00
0C00
0C00
0C00
0C00
0C00
0C00
0C00
FFE0
FFE0
0C00
0C00
0C00
0C00
0C00
0C00
0C00
0C00
0C00
0C00
ENDCHAR
STARTCHAR uni253D
ENCODING 9533
SWIDTH 500 0
DWIDTH 11 0
BBX 11 22 0 -5
BITMAP
0C00
0C00
0C00
0C00
0C00
0C00
0C00
0C00
0C00
FC00
FFE0
FFE0
0C00
0C00
0C00
0C00
0C00
0C00
0C00
0C00
0C00
0C00
ENDCHAR
STARTCHAR uni253E
ENCODING 9534
SWIDTH 500 0
DWIDTH 11 0
BBX 11 22 0 -5
BITMAP
0C00
0C00
0C00
0C00
0C00
0C00
0C00
0C00
0C00
0FE0
FFE0
FFE0
0C00
0C00
0C00
0C00
0C00
0C00
0C00
0C00
0C00
0C00
ENDCHAR
STARTCHAR uni253F
ENCODING 9535
SWIDTH 500 0
DWIDTH 11 0
BBX 11 22 0 -5
BITMAP
0C00
0C00
0C00
0C00
0C00
0C00
0C00
0C00
0C00
FFE0
FFE0
FFE0
0C00
0C00
0C00
0C00
0C00
0C00
0C00
0C00
0C00
0C00
ENDCHAR
STARTCHAR uni2540
ENCODING 9536
SWIDTH 500 0
DWIDTH 11 0
BBX 11 22 0 -5
BITMAP
0E00
0E00
0E00
0E00
0E00
0E00
0E00
0E00
0E00
0E00
FFE0
FFE0
0C00
0C00
0C00
0C00
0C00
0C00
0C00
0C00
0C00
0C00
ENDCHAR
STARTCHAR uni2541
ENCODING 9537
SWIDTH 500 0
DWIDTH 11 0
BBX 11 22 0 -5
BITMAP
0C00
0C00
0C00
0C00
0C00
0C00
0C00
0C00
0C00
0C00
FFE0
FFE0
0E00
0E00
0E00
0E00
0E00
0E00
0E00
0E00
0E00
0E00
ENDCHAR
STARTCHAR uni2542
ENCODING 9538
SWIDTH 500 0
DWIDTH 11 0
BBX 11 22 0 -5
BITMAP
0E00
0E00
0E00
0E00
0E00
0E00
0E00
0E00
0E00
0E00
FFE0
FFE0
0E00
0E00
0E00
0E00
0E00
0E00
0E00
0E00
0E00
0E00
ENDCHAR
STARTCHAR uni2543
ENCODING 9539
SWIDTH 500 0
DWIDTH 11 0
BBX 11 22 0 -5
BITMAP
0E00
0E00
0E00
0E00
0E00
0E00
0E00
0E00
0E00
FE00
FFE0
FFE0
0C00
0C00
0C00
0C00
0C00
0C00
0C00
0C00
0C00
0C00
ENDCHAR
STARTCHAR uni2544
ENCODING 9540
SWIDTH 500 0
DWIDTH 11 0
BBX 11 22 0 -5
BITMAP
0E00
0E00
0E00
0E00
0E00
0E00
0E00
0E00
0E00
0FE0
FFE0
FFE0
0C00
0C00
0C00
0C00
0C00
0C00
0C00
0C00
0C00
0C00
ENDCHAR
STARTCHAR uni2545
ENCODING 9541
SWIDTH 500 0
DWIDTH 11 0
BBX 11 22 0 -5
BITMAP
0C00
0C00
0C00
0C00
0C00
0C00
0C00
0C00
0C00
FC00
FFE0
FFE0
0E00
0E00
0E00
0E00
0E00
0E00
0E00
0E00
0E00
0E00
ENDCHAR
STARTCHAR uni2546
ENCODING 9542
SWIDTH 500 0
DWIDTH 11 0
BBX 11 22 0 -5
BITMAP
0C00
0C00
0C00
0C00
0C00
0C00
0C00
0C00
0C00
0FE0
FFE0
FFE0
0E00
0E00
0E00
0E00
0E00
0E00
0E00
0E00
0E00
0E00
ENDCHAR
STARTCHAR uni2547
ENCODING 9543
SWIDTH 500 0
DWIDTH 11 0
BBX 11 22 0 -5
BITMAP
0E00
0E00
0E00
0E00
0E00
0E00
0E00
0E00
0E00
FFE0
FFE0
FFE0
0C00
0C00
0C00
0C00
0C00
0C00
0C00
0C00
0C00
0C00
ENDCHAR
STARTCHAR uni2548
ENCODING 9544
SWIDTH 500 0
DWIDTH 11 0
BBX 11 22 0 -5
BITMAP
0C00
0C00
0C00
0C00
0C00
0C00
0C00
0C00
0C00
FFE0
FFE0
FFE0
0E00
0E00
0E00
0E00
0E00
0E00
0E00
0E00
0E00
0E00
ENDCHAR
STARTCHAR uni2549
ENCODING 9545
SWIDTH 500 0
DWIDTH 11 0
BBX 11 22 0 -5
BITMAP
0E00
0E00
0E00
0E00
0E00
0E00
0E00
0E00
0E00
FE00
FFE0
FFE0
0E00
0E00
0E00
0E00
0E00
0E00
0E00
0E00
0E00
0E00
ENDCHAR
STARTCHAR uni254A
ENCODING 9546
SWIDTH 500 0
DWIDTH 11 0
BBX 11 22 0 -5
BITMAP
0E00
0E00
0E00
0E00
0E00
0E00
0E00
0E00
0E00
0FE0
FFE0
FFE0
0E00
0E00
0E00
0E00
0E00
0E00
0E00
0E00
0E00
0E00
ENDCHAR
STARTCHAR uni254B
ENCODING 9547
SWIDTH 500 0
DWIDTH 11 0
BBX 11 22 0 -5
BITMAP
0E00
0E00
0E00
0E00
0E00
0E00
0E00
0E00
0E00
FFE0
FFE0
FFE0
0E00
0E00
0E00
0E00
0E00
0E00
0E00
0E00
0E00
0E00
ENDCHAR
STARTCHAR SF430000
ENCODING 9552
SWIDTH 500 0
DWIDTH 11 0
BBX 11 22 0 -5
BITMAP
0000
0000
0000
0000
0000
0000
0000
0000
FFE0
FFE0
0000
FFE0
FFE0
0000
0000
0000
0000
0000
0000
0000
0000
0000
ENDCHAR
STARTCHAR SF240000
ENCODING 9553
SWIDTH 500 0
DWIDTH 11 0
BBX 11 22 0 -5
BITMAP
1B00
1B00
1B00
1B00
1B00
1B00
1B00
1B00
1B00
1B00
1B00
1B00
1B00
1B00
1B00
1B00
1B00
1B00
1B00
1B00
1B00
1B00
ENDCHAR
STARTCHAR SF510000
ENCODING 9554
SWIDTH 500 0
DWIDTH 11 0
BBX 11 22 0 -5
BITMAP
0000
0000
0000
0000
0000
0000
0000
0000
0FE0
0FE0
0C00
0FE0
0FE0
0C00
0C00
0C00
0C00
0C00
0C00
0C00
0C00
0C00
ENDCHAR
STARTCHAR SF520000
ENCODING 9555
SWIDTH 500 0
DWIDTH 11 0
BBX 11 22 0 -5
BITMAP
0000
0000
0000
0000
0000
0000
0000
0000
0000
0000
1FE0
1FE0
1B00
1B00
1B00
1B00
1B00
1B00
1B00
1B00
1B00
1B00
ENDCHAR
STARTCHAR SF390000
ENCODING 9556
SWIDTH 500 0
DWIDTH 11 0
BBX 11 22 0 -5
BITMAP
0000
0000
0000
0000
0000
0000
0000
0000
1FE0
1FE0
1800
1BE0
1BE0
1B00
1B00
1B00
1B00
1B00
1B00
1B00
1B00
1B00
ENDCHAR
STARTCHAR SF220000
ENCODING 9557
SWIDTH 500 0
DWIDTH 11 0
BBX 11 22 0 -5
BITMAP
0000
0000
0000
0000
0000
0000
0000
0000
FC00
FC00
0C00
FC00
FC00
0C00
0C00
0C00
0C00
0C00
0C00
0C00
0C00
0C00
ENDCHAR
STARTCHAR SF210000
ENCODING 9558
SWIDTH 500 0
DWIDTH 11 0
BBX 11 22 0 -5
BITMAP
0000
0000
0000
0000
0000
0000
0000
0000
0000
0000
FF00
FF00
1B00
1B00
1B00
1B00
1B00
1B00
1B00
1B00
1B00
1B00
ENDCHAR
STARTCHAR SF250000
ENCODING 9559
SWIDTH 500 0
DWIDTH 11 0
BBX 11 22 0 -5
BITMAP
0000
0000
0000
0000
0000
0000
0000
0000
FF00
FF00
0300
FB00
FB00
1B00
1B00
1B00
1B00
1B00
1B00
1B00
1B00
1B00
ENDCHAR
STARTCHAR SF500000
ENCODING 9560
SWIDTH 500 0
DWIDTH 11 0
BBX 11 22 0 -5
BITMAP
0C00
0C00
0C00
0C00
0C00
0C00
0C00
0C00
0FE0
0FE0
0C00
0FE0
0FE0
0000
0000
0000
0000
0000
0000
0000
0000
0000
ENDCHAR
STARTCHAR SF490000
ENCODING 9561
SWIDTH 500 0
DWIDTH 11 0
BBX 11 22 0 -5
BITMAP
1B00
1B00
1B00
1B00
1B00
1B00
1B00
1B00
1B00
1B00
1FE0
1FE0
0000
0000
0000
0000
0000
0000
0000
0000
0000
0000
ENDCHAR
STARTCHAR SF380000
ENCODING 9562
SWIDTH 500 0
DWIDTH 11 0
BBX 11 22 0 -5
BITMAP
1B00
1B00
1B00
1B00
1B00
1B00
1B00
1B00
1BE0
1BE0
1800
1FE0
1FE0
0000
0000
0000
0000
0000
0000
0000
0000
0000
ENDCHAR
STARTCHAR SF280000
ENCODING 9563
SWIDTH 500 0
DWIDTH 11 0
BBX 11 22 0 -5
BITMAP
0C00
0C00
0C00
0C00
0C00
0C00
0C00
0C00
FC00
FC00
0400
FC00
FC00
0000
0000
0000
0000
0000
0000
0000
0000
0000
ENDCHAR
STARTCHAR SF270000
ENCODING 9564
SWIDTH 500 0
DWIDTH 11 0
BBX 11 22 0 -5
BITMAP
1B00
1B00
1B00
1B00
1B00
1B00
1B00
1B00
1B00
1B00
FF00
FF00
0000
0000
0000
0000
0000
0000
0000
0000
0000
0000
ENDCHAR
STARTCHAR SF260000
ENCODING 9565
SWIDTH 500 0
DWIDTH 11 0
BBX 11 22 0 -5
BITMAP
1B00
1B00
1B00
1B00
1B00
1B00
1B00
1B00
FB00
FB00
0300
FF00
FF00
0000
0000
0000
0000
0000
0000
0000
0000
0000
ENDCHAR
STARTCHAR SF360000
ENCODING 9566
SWIDTH 500 0
DWIDTH 11 0
BBX 11 22 0 -5
BITMAP
0C00
0C00
0C00
0C00
0C00
0C00
0C00
0C00
0FE0
0FE0
0C00
0FE0
0FE0
0C00
0C00
0C00
0C00
0C00
0C00
0C00
0C00
0C00
ENDCHAR
STARTCHAR SF370000
ENCODING 9567
SWIDTH 500 0
DWIDTH 11 0
BBX 11 22 0 -5
BITMAP
1B00
1B00
1B00
1B00
1B00
1B00
1B00
1B00
1B00
1B00
1FE0
1FE0
1B00
1B00
1B00
1B00
1B00
1B00
1B00
1B00
1B00
1B00
ENDCHAR
STARTCHAR SF420000
ENCODING 9568
SWIDTH 500 0
DWIDTH 11 0
BBX 11 22 0 -5
BITMAP
1B00
1B00
1B00
1B00
1B00
1B00
1B00
1B00
1BE0
1BE0
1800
1BE0
1BE0
1B00
1B00
1B00
1B00
1B00
1B00
1B00
1B00
1B00
ENDCHAR
STARTCHAR SF190000
ENCODING 9569
SWIDTH 500 0
DWIDTH 11 0
BBX 11 22 0 -5
BITMAP
0C00
0C00
0C00
0C00
0C00
0C00
0C00
0C00
FC00
FC00
0C00
FC00
FC00
0C00
0C00
0C00
0C00
0C00
0C00
0C00
0C00
0C00
ENDCHAR
STARTCHAR SF200000
ENCODING 9570
SWIDTH 500 0
DWIDTH 11 0
BBX 11 22 0 -5
BITMAP
1B00
1B00
1B00
1B00
1B00
1B00
1B00
1B00
1B00
1B00
FF00
FF00
1B00
1B00
1B00
1B00
1B00
1B00
1B00
1B00
1B00
1B00
ENDCHAR
STARTCHAR SF230000
ENCODING 9571
SWIDTH 500 0
DWIDTH 11 0
BBX 11 22 0 -5
BITMAP
1B00
1B00
1B00
1B00
1B00
1B00
1B00
1B00
FB00
FB00
0300
FB00
FB00
1B00
1B00
1B00
1B00
1B00
1B00
1B00
1B00
1B00
ENDCHAR
STARTCHAR SF470000
ENCODING 9572
SWIDTH 500 0
DWIDTH 11 0
BBX 11 22 0 -5
BITMAP
0000
0000
0000
0000
0000
0000
0000
0000
FFE0
FFE0
0000
FFE0
FFE0
0C00
0C00
0C00
0C00
0C00
0C00
0C00
0C00
0C00
ENDCHAR
STARTCHAR SF480000
ENCODING 9573
SWIDTH 500 0
DWIDTH 11 0
BBX 11 22 0 -5
BITMAP
0000
0000
0000
0000
0000
0000
0000
0000
0000
0000
FFE0
FFE0
1B00
1B00
1B00
1B00
1B00
1B00
1B00
1B00
1B00
1B00
ENDCHAR
STARTCHAR SF410000
ENCODING 9574
SWIDTH 500 0
DWIDTH 11 0
BBX 11 22 0 -5
BITMAP
0000
0000
0000
0000
0000
0000
0000
0000
FFE0
FFE0
0000
FBE0
FBE0
1B00
1B00
1B00
1B00
1B00
1B00
1B00
1B00
1B00
ENDCHAR
STARTCHAR SF450000
ENCODING 9575
SWIDTH 500 0
DWIDTH 11 0
BBX 11 22 0 -5
BITMAP
0C00
0C00
0C00
0C00
0C00
0C00
0C00
0C00
FFE0
FFE0
0000
FFE0
FFE0
0000
0000
0000
0000
0000
0000
0000
0000
0000
ENDCHAR
STARTCHAR SF460000
ENCODING 9576
SWIDTH 500 0
DWIDTH 11 0
BBX 11 22 0 -5
BITMAP
1B00
1B00
1B00
1B00
1B00
1B00
1B00
1B00
1B00
1B00
FFE0
FFE0
0000
0000
0000
0000
0000
0000
0000
0000
0000
0000
ENDCHAR
STARTCHAR SF400000
ENCODING 9577
SWIDTH 500 0
DWIDTH 11 0
BBX 11 22 0 -5
BITMAP
1B00
1B00
1B00
1B00
1B00
1B00
1B00
1B00
FBE0
FBE0
0000
FFE0
FFE0
0000
0000
0000
0000
0000
0000
0000
0000
0000
ENDCHAR
STARTCHAR SF540000
ENCODING 9578
SWIDTH 500 0
DWIDTH 11 0
BBX 11 22 0 -5
BITMAP
0C00
0C00
0C00
0C00
0C00
0C00
0C00
0C00
FFE0
FFE0
0C00
FFE0
FFE0
0C00
0C00
0C00
0C00
0C00
0C00
0C00
0C00
0C00
ENDCHAR
STARTCHAR SF530000
ENCODING 9579
SWIDTH 500 0
DWIDTH 11 0
BBX 11 22 0 -5
BITMAP
1B00
1B00
1B00
1B00
1B00
1B00
1B00
1B00
1B00
1B00
FFE0
FFE0
1B00
1B00
1B00
1B00
1B00
1B00
1B00
1B00
1B00
1B00
ENDCHAR
STARTCHAR SF440000
ENCODING 9580
SWIDTH 500 0
DWIDTH 11 0
BBX 11 22 0 -5
BITMAP
1B00
1B00
1B00
1B00
1B00
1B00
1B00
1B00
FBE0
FBE0
0000
FBE0
FBE0
1B00
1B00
1B00
1B00
1B00
1B00
1B00
1B00
1B00
ENDCHAR
STARTCHAR uni256D
ENCODING 9581
SWIDTH 500 0
DWIDTH 11 0
BBX 11 22 0 -5
BITMAP
0000
0000
0000
0000
0000
0000
0000
0000
0000
0000
00E0
03E0
0700
0600
0C00
0C00
0C00
0C00
0C00
0C00
0C00
0C00
ENDCHAR
STARTCHAR uni256E
ENCODING 9582
SWIDTH 500 0
DWIDTH 11 0
BBX 11 22 0 -5
BITMAP
0000
0000
0000
0000
0000
0000
0000
0000
0000
0000
C000
F000
3800
1800
0C00
0C00
0C00
0C00
0C00
0C00
0C00
0C00
ENDCHAR
STARTCHAR uni256F
ENCODING 9583
SWIDTH 500 0
DWIDTH 11 0
BBX 11 22 0 -5
BITMAP
0C00
0C00
0C00
0C00
0C00
0C00
0C00
0C00
1800
3800
F000
C000
0000
0000
0000
0000
0000
0000
0000
0000
0000
0000
ENDCHAR
STARTCHAR uni2570
ENCODING 9584
SWIDTH 500 0
DWIDTH 11 0
BBX 11 22 0 -5
BITMAP
0C00
0C00
0C00
0C00
0C00
0C00
0C00
0C00
0600
0700
03E0
00E0
0000
0000
0000
0000
0000
0000
0000
0000
0000
0000
ENDCHAR
STARTCHAR uni2571
ENCODING 9585
SWIDTH 500 0
DWIDTH 11 0
BBX 11 22 0 -5
BITMAP
0020
0020
0060
0040
00C0
0080
0180
0100
0300
0200
0600
0400
0C00
0800
1800
1000
3000
2000
6000
4000
C000
8000
ENDCHAR
STARTCHAR uni2572
ENCODING 9586
SWIDTH 500 0
DWIDTH 11 0
BBX 11 22 0 -5
BITMAP
8000
C000
4000
6000
2000
3000
1000
1800
0800
0C00
0400
0600
0200
0300
0100
0180
0080
00C0
0040
0060
0020
0020
ENDCHAR
STARTCHAR uni2573
ENCODING 9587
SWIDTH 500 0
DWIDTH 11 0
BBX 11 22 0 -5
BITMAP
8020
C020
4060
6040
20C0
3080
1180
1900
0B00
0E00
0600
0600
0E00
0B00
1900
1180
3080
20C0
6040
4060
C020
8020
ENDCHAR
STARTCHAR uni2574
ENCODING 9588
SWIDTH 500 0
DWIDTH 11 0
BBX 11 22 0 -5
BITMAP
0000
0000
0000
0000
0000
0000
0000
0000
0000
0000
FC00
FC00
0000
0000
0000
0000
0000
0000
0000
0000
0000
0000
ENDCHAR
ENDFONT
